<svg id="Camada_1" data-name="Camada 1" xmlns="http://www.w3.org/2000/svg" xmlns:xlink="http://www.w3.org/1999/xlink" viewBox="0 0 100 100"><defs><style>.cls-1{fill-rule:evenodd;fill:url(#Gradiente_sem_nome_14);}</style><linearGradient id="Gradiente_sem_nome_14" x1="21.57" y1="95.61" x2="78.42" y2="38.76" gradientUnits="userSpaceOnUse"><stop offset="0" stop-color="#fff"/><stop offset="0.25" stop-color="#fff"/><stop offset="0.5" stop-color="#fff"/><stop offset="0.75" stop-color="#fff"/><stop offset="1" stop-color="#fff"/></linearGradient></defs><title>beneficios-usuarios</title><path class="cls-1" d="M54.25,31.15a14.2,14.2,0,0,1,10,13.56.86.86,0,0,1-.86.86H36.64a.86.86,0,0,1-.86-.86,14.21,14.21,0,0,1,9.95-13.56,9.08,9.08,0,1,1,10.67-1.6h0a9.15,9.15,0,0,1-2.15,1.59Zm-5.11,17a.86.86,0,0,1,1.72,0v5.77A7.3,7.3,0,0,1,55.18,56h0a7.32,7.32,0,0,1,.87,9.32L60.68,70a.85.85,0,0,1,0,1.21.86.86,0,0,1-1.21,0l-4.54-4.59a7.3,7.3,0,0,1-9.7.13l-4.46,4.46A.86.86,0,0,1,39.55,70l4.51-4.51a7.32,7.32,0,0,1,5.08-11.58V48.11Zm-3.33,16.8h0a.23.23,0,0,1,.07.07l.14.15h0a5.63,5.63,0,1,0,4-9.6h0a5.62,5.62,0,0,0-5.62,5.62,5.56,5.56,0,0,0,1.44,3.75ZM25.59,54.43A9.06,9.06,0,0,0,19.18,69.9a8.66,8.66,0,0,0,2.15,1.6,14.21,14.21,0,0,0-9.95,13.57.85.85,0,0,0,.86.85H39a.85.85,0,0,0,.86-.85,14.23,14.23,0,0,0-10-13.57A8.92,8.92,0,0,0,32,69.9h0a9.07,9.07,0,0,0-6.41-15.47Zm5.19,3.87a7.35,7.35,0,0,1,0,10.4h0a7.29,7.29,0,0,1-5.19,2.15h0A7.35,7.35,0,1,1,30.78,58.3Zm3.65,17.92a12.5,12.5,0,0,1,3.64,8h-25A12.49,12.49,0,0,1,25.59,72.56h0a12.47,12.47,0,0,1,8.84,3.66Zm40-21.79A9.06,9.06,0,0,0,68,69.9a8.85,8.85,0,0,0,2.15,1.6,14.21,14.21,0,0,0-10,13.57.85.85,0,0,0,.86.85H87.76a.85.85,0,0,0,.86-.85,14.2,14.2,0,0,0-10-13.57,8.92,8.92,0,0,0,2.15-1.6h0A9.07,9.07,0,0,0,74.4,54.43Zm5.2,3.87a7.34,7.34,0,0,1,0,10.4h0a7.32,7.32,0,0,1-5.19,2.15h0A7.35,7.35,0,1,1,79.6,58.3Zm3.65,17.92a12.48,12.48,0,0,1,3.63,8H61.93A12.51,12.51,0,0,1,74.4,72.56h0a12.51,12.51,0,0,1,8.84,3.66ZM50,30.5h0a7.37,7.37,0,0,0,5.2-2.15h0A7.36,7.36,0,1,0,50,30.5Zm8.85,5.37A12.49,12.49,0,0,0,50,32.21h0A12.51,12.51,0,0,0,37.52,43.86H62.47A12.51,12.51,0,0,0,58.84,35.87Z"/></svg>