<svg id="Camada_1" data-name="Camada 1" xmlns="http://www.w3.org/2000/svg" xmlns:xlink="http://www.w3.org/1999/xlink" viewBox="0 0 100 100"><defs><style>.cls-1{fill-rule:evenodd;fill:url(#Gradiente_sem_nome_14);}</style><linearGradient id="Gradiente_sem_nome_14" x1="18.08" y1="81.92" x2="81.92" y2="18.08" gradientUnits="userSpaceOnUse"><stop offset="0" stop-color="#fff"/><stop offset="0.25" stop-color="#fff"/><stop offset="0.5" stop-color="#fff"/><stop offset="0.75" stop-color="#fff"/><stop offset="1" stop-color="#fff"/></linearGradient></defs><title>produtos</title><path class="cls-1" d="M21.66,16.63h9l47.75,0a5.12,5.12,0,0,1,5.13,5.13h0V39.22l0,39a5.16,5.16,0,0,1-5.13,5.13l-56.71,0a5.12,5.12,0,0,1-5.13-5.13V21.76h0a5.14,5.14,0,0,1,5.14-5.13h0ZM50.86,40V60H81.77l0-20H50.86ZM49.15,60V40H18.22V60H30.57l.17,0Zm21.12,1.71h0v20h8.09a3.45,3.45,0,0,0,3.43-3.42V61.69Zm-1.72,0H31.43v20l37.13,0v-20ZM31.44,38.31H68.57v-20H31.44v20ZM29.71,81.65v-20H18.21V78.22a3.43,3.43,0,0,0,3.43,3.42ZM18.22,38.3H29.74v-20H21.66a3.45,3.45,0,0,0-3.43,3.43h0V38.3ZM70.28,18.35v20H81.79V21.79h0a3.43,3.43,0,0,0-1-2.43,3.38,3.38,0,0,0-2.41-1Z"/></svg>