<svg id="Camada_1" data-name="Camada 1" xmlns="http://www.w3.org/2000/svg" xmlns:xlink="http://www.w3.org/1999/xlink" viewBox="0 0 100 100"><defs><style>.cls-1{fill-rule:evenodd;fill:url(#Gradiente_sem_nome_14);}</style><linearGradient id="Gradiente_sem_nome_14" x1="16.57" y1="83.43" x2="83.43" y2="16.57" gradientUnits="userSpaceOnUse"><stop offset="0" stop-color="#FFF"/><stop offset="0.25" stop-color="#FFF"/><stop offset="0.5" stop-color="#FFF"/><stop offset="0.75" stop-color="#FFF"/><stop offset="1" stop-color="#FFF"/></linearGradient></defs><title>beneficios-entornos</title><path class="cls-1" d="M30,40.39l-2.31-2.31-5,5a.86.86,0,0,1-1.21,0,.79.79,0,0,1-.24-.47L16.33,17.34a.85.85,0,0,1,.68-1,.78.78,0,0,1,.34,0l25.26,4.93a.87.87,0,0,1,.68,1,.94.94,0,0,1-.24.44h0L38.1,27.66,40.41,30a5.14,5.14,0,0,1,0,7.26h0l-3.15,3.15-.06,0a5.1,5.1,0,0,1-3.58,1.46A5.15,5.15,0,0,1,30,40.39ZM70,59.61l2.31,2.31,5-5a.86.86,0,0,1,1.21,0,.85.85,0,0,1,.24.47l4.94,25.24a.87.87,0,0,1-.68,1,.78.78,0,0,1-.34,0L57.39,78.73a.85.85,0,0,1-.67-1,.78.78,0,0,1,.23-.44h0l4.95-5L59.59,70a5.13,5.13,0,0,1,0-7.25h0l3.16-3.15,0,0a5.08,5.08,0,0,1,3.57-1.45A5.13,5.13,0,0,1,70,59.61Zm1.7,4.12L68.8,60.82a3.44,3.44,0,0,0-4.81,0l0,0L60.8,64h0a3.44,3.44,0,0,0,0,4.85l2.92,2.91a.86.86,0,0,1,0,1.21L59.3,77.36l22.44,4.38L77.36,59.3l-4.44,4.43a.85.85,0,0,1-1.21,0ZM31.2,60.82l-2.91,2.91a.85.85,0,0,1-1.21,0L22.64,59.3,18.26,81.74,40.7,77.36l-4.42-4.42a.86.86,0,0,1,0-1.21l2.92-2.91,0,0a3.44,3.44,0,0,0,0-4.81L36,60.82a3.38,3.38,0,0,0-2.42-1,3.45,3.45,0,0,0-2.42,1Zm-3.52,1.1L30,59.61h0a5.14,5.14,0,0,1,7.26,0l3.15,3.15A5.14,5.14,0,0,1,40.46,70l-.05,0L38.1,72.34l4.95,5h0a.94.94,0,0,1,.24.44.87.87,0,0,1-.68,1L17.35,83.66a.78.78,0,0,1-.34,0,.86.86,0,0,1-.68-1l4.94-25.24a.79.79,0,0,1,.24-.47.86.86,0,0,1,1.21,0l5,5ZM68.8,39.18l2.91-2.91a.85.85,0,0,1,1.21,0l4.44,4.43,4.38-22.44L59.3,22.64l4.42,4.42a.86.86,0,0,1,0,1.21L60.8,31.19l0,0a3.44,3.44,0,0,0,0,4.81L64,39.18a3.41,3.41,0,0,0,2.42,1,3.45,3.45,0,0,0,2.43-1Zm3.52-1.1L70,40.39h0a5.12,5.12,0,0,1-7.26,0l-3.16-3.15A5.14,5.14,0,0,1,59.54,30l.05-.05,2.31-2.32L57,22.71h0a.78.78,0,0,1-.23-.44.85.85,0,0,1,.67-1l25.26-4.93a.78.78,0,0,1,.34,0,.86.86,0,0,1,.68,1L78.73,42.58a.85.85,0,0,1-.24.47.86.86,0,0,1-1.21,0l-5-5Zm-44-1.81,2.91,2.91a3.44,3.44,0,0,0,4.81,0l0,0L39.2,36h0a3.43,3.43,0,0,0,0-4.84l-2.92-2.92a.86.86,0,0,1,0-1.21l4.42-4.42L18.26,18.26,22.64,40.7l4.44-4.43A.85.85,0,0,1,28.29,36.27Z"/></svg>