<svg id="Camada_1" data-name="Camada 1" xmlns="http://www.w3.org/2000/svg" xmlns:xlink="http://www.w3.org/1999/xlink" viewBox="0 0 100 100"><defs><style>.cls-1{fill-rule:evenodd;fill:url(#Gradiente_sem_nome_14);}</style><linearGradient id="Gradiente_sem_nome_14" x1="20.51" y1="79.49" x2="82.81" y2="17.19" gradientUnits="userSpaceOnUse"><stop offset="0" stop-color="#fff"/><stop offset="0.25" stop-color="#fff"/><stop offset="0.5" stop-color="#fff"/><stop offset="0.75" stop-color="#fff"/><stop offset="1" stop-color="#fff"/></linearGradient></defs><title>crescimento-economico</title><path class="cls-1" d="M83.89,73a.86.86,0,0,1,.85.86.85.85,0,0,1-.85.85H27v9.16a.86.86,0,0,1-1.71,0V74.73H16.11a.85.85,0,0,1-.85-.85.86.86,0,0,1,.85-.86h9.16V16.11a.86.86,0,0,1,1.71,0V73Zm-50-12.75h0a2.92,2.92,0,0,0-.6,2.2,3,3,0,0,0,1.13,2h0l2.26,1.75a3,3,0,0,0,4.2-.54L51.27,52.24l15.69,0a.85.85,0,0,0,.78-.43l6.6-11.59,0,1.22a.84.84,0,0,0,.88.82L82.33,42h0a.86.86,0,0,0,.85-.86V18h0a.82.82,0,0,0-.1-.4A.86.86,0,0,0,82,17.2l-20.39,11h0a.84.84,0,0,0-.36,1.12l3.14,6.41a.85.85,0,0,0,1.13.39l1.46-.71-4.53,8h-15a.86.86,0,0,0-.71.33L33.9,60.27ZM47.79,45.08,35.26,61.3v0a1.27,1.27,0,0,0-.26,1,1.32,1.32,0,0,0,.48.85h0l2.25,1.74a1.3,1.3,0,0,0,1,.26,1.32,1.32,0,0,0,.85-.48L50.18,50.86h0a.84.84,0,0,1,.67-.33l15.65,0,7.85-13.77a.83.83,0,0,1,.71-.44.84.84,0,0,1,.88.82l.12,3.38,5.45-.19V19.38L63.1,29.27l2.4,4.9,3.16-1.55h0a.86.86,0,0,1,1.12,1.19L63.67,44.6a.84.84,0,0,1-.76.47Z"/></svg>