<svg id="Camada_1" data-name="Camada 1" xmlns="http://www.w3.org/2000/svg" xmlns:xlink="http://www.w3.org/1999/xlink" viewBox="0 0 100 100"><defs><style>.cls-1{fill-rule:evenodd;fill:url(#Gradiente_sem_nome_14);}</style><linearGradient id="Gradiente_sem_nome_14" x1="29.69" y1="70.31" x2="70.31" y2="29.69" gradientUnits="userSpaceOnUse"><stop offset="0" stop-color="#fff"/><stop offset="0.25" stop-color="#ffff"/><stop offset="0.5" stop-color="#fff"/><stop offset="0.75" stop-color="#fff"/><stop offset="1" stop-color="#fff"/></linearGradient></defs><title>respeito-ambiental</title><path class="cls-1" d="M49.14,13.39c-1.26,1.85-2.74,4-4.34,6.28-2.41,3.46-5.08,7.29-7.59,11l11.93,6.89V13.39Zm0,40.68L29.62,42.81c-.51.95-.93,1.8-1.24,2.54a23.89,23.89,0,0,0-1.86,8.31L49.14,66.72V54.07ZM30.45,41.31C32,38.66,34,35.46,36.26,32.1l12.88,7.43V52.11L30.45,41.31ZM26.54,55.64l22.6,13v8.24a24.72,24.72,0,0,1-8.72-1.86,22.85,22.85,0,0,1-10.11-8.22,21.86,21.86,0,0,1-3.77-11.21Zm24.32-3.53,18.69-10.8C68,38.66,66,35.46,63.74,32.1L50.86,39.53V52.11Zm19.52-9.3c.51.95.93,1.8,1.24,2.54a23.89,23.89,0,0,1,1.86,8.31L50.86,66.72V54.07L70.38,42.81ZM50.86,37.56V13.39c1.26,1.85,2.74,4,4.34,6.28,2.41,3.45,5.09,7.29,7.59,11L50.86,37.56ZM73.47,55.64l-22.61,13v8.24a24.72,24.72,0,0,0,8.72-1.86,22.85,22.85,0,0,0,10.11-8.22,22,22,0,0,0,3.78-11.21ZM49.23,10.2a.87.87,0,0,1,1.54,0c1.36,2.07,3.48,5.1,5.84,8.49,6.26,9,14.31,20.54,16.58,26a25.25,25.25,0,0,1,2,9.79A23.62,23.62,0,0,1,71.1,67.8a24.5,24.5,0,0,1-10.87,8.84,26.27,26.27,0,0,1-9.37,2V89.41a.86.86,0,0,1-1.72,0V78.65a26.27,26.27,0,0,1-9.37-2A24.56,24.56,0,0,1,28.9,67.8a23.62,23.62,0,0,1-4.11-13.32,25.25,25.25,0,0,1,2-9.79c2.27-5.46,10.32-17,16.58-26C45.75,15.31,47.87,12.27,49.23,10.2Z"/></svg>