<svg id="Camada_1" data-name="Camada 1" xmlns="http://www.w3.org/2000/svg" xmlns:xlink="http://www.w3.org/1999/xlink" viewBox="0 0 100 100"><defs><style>.cls-1{fill-rule:evenodd;fill:url(#Gradiente_sem_nome_14);}</style><linearGradient id="Gradiente_sem_nome_14" x1="30.8" y1="74.17" x2="71.98" y2="32.99" gradientUnits="userSpaceOnUse"><stop offset="0" stop-color="#fff"/><stop offset="0.25" stop-color="#fff"/><stop offset="0.5" stop-color="#fff"/><stop offset="0.75" stop-color="#fff"/><stop offset="1" stop-color="#fff"/></linearGradient></defs><title>respeito-social</title><path class="cls-1" d="M27.54,65.45a7.89,7.89,0,0,0,2.28,5.32,7,7,0,0,0,5.1,2.09l7.46-.09a.85.85,0,0,1,.86.84h0v3.51l11.53-7.76L43.24,61.61v3.53a.85.85,0,0,1-.86.85h-5a20.48,20.48,0,0,1-7-1.55,13.58,13.58,0,0,1-2.93-1.59l.09,2.6ZM72.17,52.09a9.07,9.07,0,0,1,6.4,15.48h0a9,9,0,0,1-2.14,1.59,14.21,14.21,0,0,1,9.95,13.57.85.85,0,0,1-.85.85H58.81a.85.85,0,0,1-.85-.85,14.2,14.2,0,0,1,4.16-10.06,14.39,14.39,0,0,1,5.79-3.51,8.69,8.69,0,0,1-2.15-1.59,9.07,9.07,0,0,1,6.41-15.48ZM77.36,56a7.35,7.35,0,1,0-5.19,12.55h0a7.31,7.31,0,0,0,5.19-2.15h0a7.34,7.34,0,0,0,0-10.4ZM81,73.89a12.44,12.44,0,0,0-8.84-3.67h0A12.51,12.51,0,0,0,59.7,81.87H84.64a12.46,12.46,0,0,0-3.63-8ZM27.82,16.42a9.06,9.06,0,0,1,6.41,15.47h0a9.06,9.06,0,0,1-2.14,1.58,14.26,14.26,0,0,1,10,13.57.87.87,0,0,1-.86.86H14.47a.86.86,0,0,1-.85-.86,14.21,14.21,0,0,1,10-13.56,9.42,9.42,0,0,1-2.16-1.59,9.07,9.07,0,0,1,6.41-15.48ZM33,20.28a7.35,7.35,0,1,0-5.2,12.56h0A7.32,7.32,0,0,0,33,30.68h0a7.36,7.36,0,0,0,0-10.41Zm3.65,17.93a12.47,12.47,0,0,0-8.84-3.66h0A12.49,12.49,0,0,0,15.36,46.19H40.3a12.46,12.46,0,0,0-3.63-8Zm34.47-.6a7.89,7.89,0,0,0-2.28-5.32,7,7,0,0,0-5.09-2.09l-7.46.1a.85.85,0,0,1-.86-.85h0V25.93L43.91,33.69l11.53,7.77V37.92a.86.86,0,0,1,.86-.85h5a20.48,20.48,0,0,1,7,1.55,13.35,13.35,0,0,1,2.93,1.59l-.09-2.6Zm-1.07-6.53a8.74,8.74,0,0,0-6.32-2.59l-6.6.09V24.32a.85.85,0,0,0-.85-.85.9.9,0,0,0-.54.18L41.91,33a.88.88,0,0,0-.24,1.19,1,1,0,0,0,.24.23l13.92,9.37A.86.86,0,0,0,57,43.53a.92.92,0,0,0,.14-.47h0V38.78h4.13a18.62,18.62,0,0,1,6.38,1.42,7.88,7.88,0,0,1,3.77,2.61A.85.85,0,0,0,73,42.36h0l-.17-4.8a9.66,9.66,0,0,0-2.78-6.48ZM28.61,72a9.66,9.66,0,0,1-2.78-6.48l-.16-4.8h0a.85.85,0,0,1,1.59-.45A7.78,7.78,0,0,0,31,62.86a18.52,18.52,0,0,0,6.37,1.42h4.13V60h0a.89.89,0,0,1,.14-.47.87.87,0,0,1,1.19-.24l13.91,9.37a.91.91,0,0,1,.24.24.86.86,0,0,1-.24,1.18L42.92,79.4a.85.85,0,0,1-1.39-.67V74.48l-6.59.09A8.76,8.76,0,0,1,28.61,72Z"/></svg>