<svg xmlns="http://www.w3.org/2000/svg" xmlns:xlink="http://www.w3.org/1999/xlink" width="234.911" height="151.742" viewBox="0 0 234.911 151.742"><defs><style>.a{fill:none;}.b{clip-path:url(#a);}.c{fill:#e50019;}.c,.d{fill-rule:evenodd;}.d{fill:#505153;}</style><clipPath id="a"><rect class="a" width="234.911" height="151.742"/></clipPath></defs><g class="b"><path class="c" d="M88.077,193.169a6.065,6.065,0,0,0,1.274-3.937,7.35,7.35,0,0,0-.853-3.676,6.5,6.5,0,0,0-2.417-2.385,11.523,11.523,0,0,0-3.73-1.3,27.534,27.534,0,0,0-4.82-.39H60.122v31.249H78.046a22.125,22.125,0,0,0,4.844-.524,14.3,14.3,0,0,0,4.205-1.616,8.727,8.727,0,0,0,2.924-2.826,7.54,7.54,0,0,0,1.089-4.09,7.72,7.72,0,0,0-1.682-5.012,9.059,9.059,0,0,0-5.109-2.911,9.088,9.088,0,0,0,3.76-2.586Zm-19.818-6.348h7.614a14.411,14.411,0,0,1,2.1.155,5.7,5.7,0,0,1,1.782.55,2.965,2.965,0,0,1,1.711,2.887,3.1,3.1,0,0,1-1.4,2.846,6.616,6.616,0,0,1-3.571.876H68.258v-7.313Zm14.222,18.471a3.606,3.606,0,0,1-1.32,1.25,6.306,6.306,0,0,1-1.919.655,12.9,12.9,0,0,1-2.279.2h-8.7v-8.582h8.858a7.761,7.761,0,0,1,4.246,1.029,4.433,4.433,0,0,1,1.118,5.447ZM220.7,181.486v31.249h26.173v-5.776H228.842V181.486Zm-25.712-25.9c7.55,4.022,13.217,10.475,20.512,16.286a56.884,56.884,0,0,0,7.325,4.967H129.041c8.534-4.806,14.266-11.413,20.8-16.535a42.609,42.609,0,0,1,11.01-6.552,40.518,40.518,0,0,1,15.093-2.641c8.189.02,14,1.781,19.043,4.476Zm51.286,61.805v-.01h48.74v40.513H60.1V217.376h45.5v.01c8.2.015,14.011,1.781,19.05,4.472,7.557,4.026,13.224,10.473,20.512,16.29a49.949,49.949,0,0,0,12.8,7.568,48.488,48.488,0,0,0,17.984,3.18h.1a46.488,46.488,0,0,0,22.613-5.376c8.93-4.842,14.8-11.68,21.519-16.945a43.146,43.146,0,0,1,11-6.553,40.554,40.554,0,0,1,15.094-2.635Zm-119.75-22.511a8.286,8.286,0,0,0,1.373-4.767,7.66,7.66,0,0,0-.752-3.352,8.152,8.152,0,0,0-2.172-2.73,10.8,10.8,0,0,0-3.422-1.866,13.937,13.937,0,0,0-4.483-.675H97.114v31.249h8.141V200.526h8.131a6.82,6.82,0,0,1,4.406,1.136,5.789,5.789,0,0,1,1.764,3.591c.206,1.254.361,2.57.468,3.936a10.438,10.438,0,0,0,.828,3.552l8.138-.006a4.328,4.328,0,0,1-.86-1.595,11.653,11.653,0,0,1-.408-1.991c-.089-.7-.154-1.385-.189-2.056s-.066-1.254-.1-1.751a17.479,17.479,0,0,0-.386-2.371,7.357,7.357,0,0,0-.912-2.165,6.077,6.077,0,0,0-1.6-1.705,6.613,6.613,0,0,0-2.488-1.071l.007-.09a8.477,8.477,0,0,0,4.477-3.065Zm-8.16-.3a7,7,0,0,1-4.2,1.051l-8.913-.006v-8.8h8.913a7.072,7.072,0,0,1,4.2,1.031,3.838,3.838,0,0,1,1.4,3.307,4.008,4.008,0,0,1-1.4,3.415Zm165.56,18.16V187.262H295v-5.776H264.7v5.776h11.085v25.473Zm-3.82-76.414H75.019s-14.915,0-14.915,12.6v27.915h46.015A40.137,40.137,0,0,0,120.7,174.2a43.111,43.111,0,0,0,11.008-6.552c6.709-5.267,12.584-12.109,21.519-16.945a46.533,46.533,0,0,1,22.715-5.377,48.464,48.464,0,0,1,17.972,3.177,49.748,49.748,0,0,1,12.8,7.577c7.3,5.807,12.969,12.264,20.523,16.286a38.5,38.5,0,0,0,18.677,4.466h49.1V148.919s0-12.6-14.91-12.6ZM251.9,212.735h8.136V181.48H251.9v31.255Zm0-31.255-38.6,0h-8.138v31.255h8.138V181.48Zm0,31.255M189.459,207.4a9.708,9.708,0,0,1-2.339.59,19.234,19.234,0,0,1-2.328.151,14.471,14.471,0,0,1-3.108-.325,8.364,8.364,0,0,1-2.617-1.011,5.282,5.282,0,0,1-1.788-1.77,5.048,5.048,0,0,1-.669-2.671h-7.883a9.042,9.042,0,0,0,1.251,4.991,10.454,10.454,0,0,0,3.5,3.456,16.23,16.23,0,0,0,5.069,1.991,27.356,27.356,0,0,0,5.939.635,26.9,26.9,0,0,0,6.65-.74,15.112,15.112,0,0,0,4.826-2.086,8.954,8.954,0,0,0,2.924-3.171,8.279,8.279,0,0,0,1-3.981,6.766,6.766,0,0,0-1.326-4.311,10.273,10.273,0,0,0-3.139-2.691,15.166,15.166,0,0,0-3.647-1.465c-1.232-.31-2.186-.52-2.877-.641-2.321-.5-4.193-.9-5.626-1.221a24.338,24.338,0,0,1-3.369-.964,3.583,3.583,0,0,1-1.628-1.056,2.424,2.424,0,0,1-.421-1.48,2.607,2.607,0,0,1,.522-1.666,4.256,4.256,0,0,1,1.32-1.095,5.9,5.9,0,0,1,1.789-.611,11,11,0,0,1,1.972-.174,16.471,16.471,0,0,1,2.771.215,7.453,7.453,0,0,1,2.25.744,4.139,4.139,0,0,1,1.581,1.446,4.828,4.828,0,0,1,.7,2.321l7.882-.006a8.4,8.4,0,0,0-1.22-4.612,9.672,9.672,0,0,0-3.292-3.13,15.278,15.278,0,0,0-4.738-1.775,27.674,27.674,0,0,0-5.571-.546,22.208,22.208,0,0,0-4.975.57,15.184,15.184,0,0,0-4.458,1.751,10.1,10.1,0,0,0-3.186,2.956,7.189,7.189,0,0,0-1.214,4.177,6.723,6.723,0,0,0,.954,3.655,8.251,8.251,0,0,0,2.516,2.516,14.991,14.991,0,0,0,3.523,1.646c1.314.42,2.666.774,4.038,1.07q2.024.478,4,.875a28.147,28.147,0,0,1,3.519.92,7.964,7.964,0,0,1,2.516,1.31,2.534,2.534,0,0,1,.953,2.061,2.708,2.708,0,0,1-.722,1.945,5.071,5.071,0,0,1-1.812,1.205Zm-53.081,14.96c7.3,5.812,12.969,12.264,20.525,16.285,5.032,2.7,10.853,4.462,19.043,4.478a40.531,40.531,0,0,0,15.1-2.641,42.944,42.944,0,0,0,11-6.552c6.531-5.122,12.282-11.739,20.821-16.551H129.041a56.19,56.19,0,0,1,7.337,4.982Zm-5.217-9.624h8.189l2.9-6.957h13.833l2.794,6.957h8.455L153.5,181.486h-8.344l-13.992,31.249ZM149.3,189.188l4.667,11.469h-9.588l4.814-11.469Z" transform="translate(-60.104 -136.322)"/><path class="d" d="M248.567,426.956a9.2,9.2,0,0,1-4.359.885h-5.269V412.826h4.074c1.859,0,3.741,0,5.17,1.165a3.623,3.623,0,0,1,1.432,2.8,3.011,3.011,0,0,1-1.858,2.84,3.753,3.753,0,0,1,2.889,3.747,4.2,4.2,0,0,1-2.078,3.581Zm-6.508-11.68V418.5h1.788c.717,0,2.671,0,2.671-1.611,0-.886-.645-1.616-2.409-1.616Zm0,5.7v4.246H244.4c1.285,0,2.956-.44,2.956-1.955,0-.606-.173-2.291-2.907-2.291Zm29.435-8.152H268.35v15.02h3.144v-15.02Zm-17.752,15.014,1.694-3.8h6.555l1.694,3.8h3.263L259.9,412.826h-2.411l-7.006,15.014Zm4.91-11.094h.052L260.9,421.6h-4.46l2.215-4.852Zm19.043.71,7.538,10.384h2.954V412.826h-3.121v9.8l-7.319-9.8h-3.174v15.014h3.121V417.457Zm-69.251,10.689c4.725,0,8.918-3.36,8.918-7.632v-.321H206.394v2.436h7.082a5.548,5.548,0,0,1-5.032,2.941c-3.98,0-5.91-2.921-5.91-5.216a5.819,5.819,0,0,1,10.274-3.121h3.718c-.858-2.156-3.931-4.733-8.155-4.733-4.742,0-8.958,3.407-8.958,7.833,0,4.492,4.217,7.812,9.031,7.812Zm-47.6-15.319h-3.121v15.02h3.121v-15.02Zm-17.764,15.014h-3.246l6.988-15.014h2.434l7.058,15.014h-3.268l-1.717-3.8h-6.531l-1.717,3.8Zm4.915-11.114-2.2,4.872h4.458l-2.214-4.872Zm-13.638,8.843c-.982,0-2.552-.525-2.718-2.015h-3.121c.166,3.285,3.624,4.591,5.815,4.591,2.694,0,5.815-1.53,5.815-4.791s-3.334-4.107-4.742-4.511c-1.742-.5-3.122-.906-3.122-2.216,0-.886,1.049-1.505,2.026-1.505a2.062,2.062,0,0,1,2.286,1.69l3.126,0c-.164-3.077-3.339-4.307-5.318-4.307-2.884,0-5.269,1.916-5.269,4.312,0,3.162,3.008,3.741,4.315,4.186,2.144.726,3.549,1.126,3.549,2.656,0,1.131-1.38,1.915-2.642,1.915Zm-72.828,9.923h234.03v-1.945H61.524v1.945Zm0-1.945,166.442-5.4c5.128,0,9.255-3.5,9.255-7.812s-4.127-7.813-9.255-7.813-9.267,3.506-9.267,7.813,4.144,7.812,9.267,7.812Zm0-13.03c3.392,0,6.158,2.341,6.158,5.217,0,2.861-2.766,5.212-6.158,5.212s-6.171-2.351-6.171-5.212c0-2.876,2.765-5.217,6.171-5.217Zm-60.909,2.341,7.532,10.384h2.937V412.826h-3.1v9.8l-7.319-9.8h-3.2v15.014h3.144V417.457Zm16.764,10.384V415.276h-4.655v-2.45h12.448v2.45h-4.673v12.564Zm6.91-5.212h6.1v-2.436h-6.1Z" transform="translate(-60.74 -283.751)"/></g></svg>