<svg xmlns="http://www.w3.org/2000/svg" xmlns:xlink="http://www.w3.org/1999/xlink" width="77.714" height="59.433" viewBox="0 0 77.714 59.433"><defs><style>.a{fill:none;}.b{clip-path:url(#a);}.c{fill:#e50019;}.c,.d{fill-rule:evenodd;}.d{fill:#505153;}</style><clipPath id="a"><rect class="a" width="77.714" height="59.432"/></clipPath></defs><g class="b" transform="translate(0 0)"><path class="c" d="M69.358,158.587a2.675,2.675,0,0,0,.421-1.542,3.315,3.315,0,0,0-.282-1.44,2.381,2.381,0,0,0-.8-.934,3.442,3.442,0,0,0-1.234-.508,7.73,7.73,0,0,0-1.595-.153H60.11V166.25h5.93a6.233,6.233,0,0,0,1.6-.205,4.32,4.32,0,0,0,1.391-.633A3.181,3.181,0,0,0,70,164.3a3.74,3.74,0,0,0-.2-3.565,2.936,2.936,0,0,0-1.69-1.14,3.059,3.059,0,0,0,1.244-1.013ZM62.8,156.1H65.32a4.042,4.042,0,0,1,.7.061,1.683,1.683,0,0,1,.59.215,1.141,1.141,0,0,1,.413.427,1.442,1.442,0,0,1,.153.7,1.293,1.293,0,0,1-.462,1.115,1.928,1.928,0,0,1-1.182.343H62.8V156.1Zm4.705,7.234a1.308,1.308,0,0,1-.437.49,1.879,1.879,0,0,1-.635.257,3.622,3.622,0,0,1-.754.078H62.8V160.8h2.93a2.262,2.262,0,0,1,1.4.4,1.583,1.583,0,0,1,.533,1.346,1.687,1.687,0,0,1-.163.788Zm45.726-9.325V166.25h8.659v-2.262h-5.966V154.01Zm-8.506-10.146c2.5,1.575,4.372,4.1,6.786,6.379a19.011,19.011,0,0,0,2.423,1.945H82.91c2.823-1.882,4.72-4.47,6.882-6.476a13.843,13.843,0,0,1,3.642-2.566,11.575,11.575,0,0,1,4.993-1.035,11.229,11.229,0,0,1,6.3,1.753Zm16.966,24.207v0h16.124v15.868H60.1V168.068H75.156v0a11.23,11.23,0,0,1,6.3,1.751c2.5,1.577,4.375,4.1,6.786,6.38a16.216,16.216,0,0,0,4.234,2.964,13.854,13.854,0,0,0,5.949,1.246h.033a13.507,13.507,0,0,0,7.481-2.106c2.954-1.9,4.9-4.575,7.119-6.637a14.021,14.021,0,0,1,3.64-2.567,11.584,11.584,0,0,1,4.993-1.032Zm-39.616-8.817a3.691,3.691,0,0,0,.454-1.867,3.467,3.467,0,0,0-.249-1.313,3.166,3.166,0,0,0-.718-1.069,3.452,3.452,0,0,0-1.132-.731,3.958,3.958,0,0,0-1.483-.264h-6.6V166.25h2.693v-4.782h2.69a2.005,2.005,0,0,1,1.458.445,2.437,2.437,0,0,1,.584,1.407c.068.491.119,1.007.155,1.541a4.721,4.721,0,0,0,.274,1.391l2.692,0a1.81,1.81,0,0,1-.284-.625,5.306,5.306,0,0,1-.135-.78c-.029-.276-.051-.542-.063-.805s-.022-.491-.033-.686a8.012,8.012,0,0,0-.128-.928,3.188,3.188,0,0,0-.3-.848,2.268,2.268,0,0,0-.531-.668,2.033,2.033,0,0,0-.823-.419l0-.035a2.856,2.856,0,0,0,1.481-1.2Zm-2.7-.118a2.05,2.05,0,0,1-1.389.412l-2.949,0V156.1h2.949a2.067,2.067,0,0,1,1.389.4,1.636,1.636,0,0,1,.462,1.3,1.715,1.715,0,0,1-.462,1.338Zm54.771,7.113v-9.977h3.665V154.01H127.788v2.262h3.667v9.977Zm-1.264-29.929H65.038s-4.934,0-4.934,4.934v10.933H75.327a11.476,11.476,0,0,0,4.825-1.031,14.006,14.006,0,0,0,3.642-2.566c2.219-2.063,4.163-4.743,7.119-6.637a13.517,13.517,0,0,1,7.515-2.106,13.847,13.847,0,0,1,5.946,1.244,16.156,16.156,0,0,1,4.233,2.968c2.416,2.274,4.29,4.8,6.79,6.379a11.192,11.192,0,0,0,6.179,1.749h16.244V141.255s0-4.934-4.933-4.934Zm-9.332,29.929h2.692V154.008h-2.692V166.25Zm0-12.241-12.77,0H108.09V166.25h2.692V154.008Zm0,12.241-7.885-2.09a2.816,2.816,0,0,1-.774.231,5.39,5.39,0,0,1-.77.059,4.074,4.074,0,0,1-1.028-.127,2.529,2.529,0,0,1-.866-.4,1.936,1.936,0,0,1-.592-.693,2.268,2.268,0,0,1-.221-1.046H96.039a4.061,4.061,0,0,0,.414,1.955A3.831,3.831,0,0,0,97.61,165.5a4.917,4.917,0,0,0,1.677.78,7.705,7.705,0,0,0,1.965.249,7.586,7.586,0,0,0,2.2-.29,4.644,4.644,0,0,0,1.6-.817,3.36,3.36,0,0,0,.967-1.242,3.726,3.726,0,0,0,.329-1.559,3,3,0,0,0-.439-1.689,3.633,3.633,0,0,0-1.038-1.054,4.6,4.6,0,0,0-1.207-.574c-.408-.122-.723-.2-.952-.251q-1.152-.291-1.861-.478a7.122,7.122,0,0,1-1.115-.378,1.2,1.2,0,0,1-.539-.414,1.079,1.079,0,0,1-.139-.58,1.153,1.153,0,0,1,.173-.652,1.494,1.494,0,0,1,.437-.429,1.757,1.757,0,0,1,.592-.239,3.09,3.09,0,0,1,.652-.068,4.623,4.623,0,0,1,.917.084,2.213,2.213,0,0,1,.744.292,1.488,1.488,0,0,1,.523.566,2.147,2.147,0,0,1,.231.909l2.608,0a3.76,3.76,0,0,0-.4-1.806,3.512,3.512,0,0,0-1.089-1.226,4.6,4.6,0,0,0-1.568-.7,7.785,7.785,0,0,0-1.843-.214,6.262,6.262,0,0,0-1.646.223,4.6,4.6,0,0,0-1.475.686,3.644,3.644,0,0,0-1.054,1.158,3.2,3.2,0,0,0-.4,1.636,2.874,2.874,0,0,0,1.148,2.417,4.656,4.656,0,0,0,1.166.645,12.634,12.634,0,0,0,1.336.419q.67.187,1.322.343a8.176,8.176,0,0,1,1.164.36,2.525,2.525,0,0,1,.832.513,1.074,1.074,0,0,1,.315.807,1.178,1.178,0,0,1-.239.762,1.69,1.69,0,0,1-.6.472Zm-17.56,5.859c2.413,2.276,4.29,4.8,6.79,6.378a11.2,11.2,0,0,0,6.3,1.754,11.579,11.579,0,0,0,5-1.035,13.954,13.954,0,0,0,3.639-2.566c2.161-2.006,4.063-4.6,6.888-6.483H82.91a18.784,18.784,0,0,1,2.427,1.951Zm-1.726-3.769H86.32l.96-2.725h4.576l.924,2.725h2.8L91,154.01H88.24L83.611,166.25Zm6-9.222,1.544,4.492H87.984l1.593-4.492Z" transform="translate(-60.104 -136.321)"/><path class="d" d="M123.4,418.162a2.642,2.642,0,0,1-1.442.347h-1.743v-5.881h1.348a2.276,2.276,0,0,1,1.71.456,1.517,1.517,0,0,1,.474,1.1,1.183,1.183,0,0,1-.615,1.112,1.43,1.43,0,0,1,.956,1.468,1.709,1.709,0,0,1-.687,1.4Zm-2.153-4.575v1.264h.591c.237,0,.884,0,.884-.631,0-.347-.213-.633-.8-.633Zm0,2.233v1.663h.774c.425,0,.978-.172.978-.766a.84.84,0,0,0-.962-.9Zm9.738-3.193h-1.04v5.883h1.04v-5.883Zm-5.873,5.881.56-1.489h2.168l.56,1.489h1.079l-2.333-5.881h-.8l-2.318,5.881Zm1.624-4.345h.017l.725,1.9h-1.475l.733-1.9Zm6.3.278,2.494,4.067h.977v-5.881h-1.032v3.839l-2.421-3.839h-1.05v5.881h1.032v-4.067Zm-22.91,4.186a3,3,0,0,0,2.95-2.989v-.126H109.45v.954h2.343a1.811,1.811,0,0,1-1.665,1.152,2.05,2.05,0,0,1-.047-4.092,1.746,1.746,0,0,1,1.491.827h1.23a2.918,2.918,0,0,0-2.7-1.854,3.065,3.065,0,0,0,.024,6.128Zm-15.748-6H93.347v5.883H94.38v-5.883ZM88.5,418.508H87.429l2.312-5.881h.805l2.335,5.881H91.8l-.568-1.489H89.071l-.568,1.489Zm1.626-4.353-.727,1.908h1.475l-.733-1.908Zm-4.512,3.463a.882.882,0,0,1-.9-.789H83.686a1.9,1.9,0,0,0,1.924,1.8,1.849,1.849,0,0,0,1.924-1.876,1.872,1.872,0,0,0-1.569-1.767c-.576-.2-1.033-.355-1.033-.868a.649.649,0,0,1,.67-.59.705.705,0,0,1,.756.662l1.034,0a1.765,1.765,0,0,0-1.759-1.687,1.718,1.718,0,0,0-1.743,1.689c0,1.238,1,1.465,1.428,1.64.709.284,1.174.441,1.174,1.04a.841.841,0,0,1-.874.75Zm-24.093,3.886h77.422v-.762H61.524v.762Zm0-.762,55.063-2.116a3.06,3.06,0,1,0-3.066-3.06,3.058,3.058,0,0,0,3.066,3.06Zm0-5.1a2.042,2.042,0,1,1-2.041,2.044,2.044,2.044,0,0,1,2.041-2.044Zm-20.15.917,2.492,4.067H99.9v-5.881H98.875v3.839l-2.421-3.839H95.4v5.881h1.04v-4.067Zm5.546,4.067v-4.921h-1.54v-.959h4.118v.959h-1.546v4.921Zm2.286-2.041h2.018v-.954h-2.018Z" transform="translate(-61.265 -362.073)"/></g></svg>