<svg xmlns="http://www.w3.org/2000/svg" xmlns:xlink="http://www.w3.org/1999/xlink" width="74.633" height="72.832" viewBox="0 0 74.633 72.832"><defs><style>.a{fill:none;}.b{clip-path:url(#a);}.c{fill:#070707;}.c,.d,.e,.f,.g{fill-rule:evenodd;}.d{fill:#f0880d;}.e{fill:#e45816;}.f{fill:#c8121a;}.g{fill:#41413b;}</style><clipPath id="a"><rect class="a" width="74.633" height="72.832"/></clipPath></defs><g class="b" transform="translate(0)"><path class="c" d="M326.95,360.7l.277,1.461h.709l-1.087-5.453h-.3l-2.834,5.453h.665l.724-1.461Zm-.1-.527h-1.481l1.07-2.121.412,2.121Zm8.965-3.443h0l-2.345,4.345-1.189-4.345-.553-.006-.956,5.437h.575l.668-3.857,1.1,3.917h.3l2.225-4.07-.514,4.01h.69l.635-5.437-.631.006Zm3.746,2.39h0l-.112.806c-.109.279-.925,1.787-1.452,1.787-.252,0-.484-.2-.3-1.07.181-.829.765-1.686,1.335-1.686a.816.816,0,0,1,.529.163Zm.72-.543h0l-.348.1a3.432,3.432,0,0,0-.792-.1,2.528,2.528,0,0,0-2.158,2.157c-.147.784.022,1.51.751,1.51.79,0,1.39-.959,1.6-1.411l-.188,1.328h.668l.472-3.584Zm1.164.079h0l-.488,3.505h.649l.181-1.27c.273-.527.82-1.647,1.265-1.654a.616.616,0,0,1,.355.089l.242-.628a.692.692,0,0,0-.467-.121c-.575,0-1.083,1.031-1.284,1.439l.2-1.36Zm4.666.547h0a1.522,1.522,0,0,0-.762-.173c-.578,0-1.025.7-1.141,1.422-.1.632.106,1.323.709,1.323a1.2,1.2,0,0,0,.876-.584l.281.214a1.624,1.624,0,0,1-1.347.84c-.756,0-1.362-.627-1.224-1.789a2.072,2.072,0,0,1,1.851-1.879,1.959,1.959,0,0,1,.957.208l-.2.418Zm3.161-.083h0l-.111.806c-.111.279-.925,1.787-1.452,1.787-.253,0-.484-.2-.295-1.07.181-.829.767-1.686,1.335-1.686a.805.805,0,0,1,.523.163Zm.715-.543h0l-.337.1a3.532,3.532,0,0,0-.8-.1,2.529,2.529,0,0,0-2.16,2.157c-.145.784.014,1.51.75,1.51.792,0,1.386-.959,1.6-1.411l-.193,1.328h.664l.468-3.584Zm5.285.543h0l-.11.806c-.112.279-.921,1.787-1.455,1.787-.251,0-.469-.195-.291-1.07.166-.791.734-1.686,1.3-1.686a.836.836,0,0,1,.557.163Zm.383-2.659h0l-.3,2.143a3.859,3.859,0,0,0-.568-.028,2.548,2.548,0,0,0-2.089,2.157c-.147.784.018,1.51.748,1.51.8,0,1.392-.959,1.6-1.411l-.18,1.328h.657l.786-5.763-.649.063Zm2.828,2.115h0a2,2,0,0,0-1.908,1.832,1.441,1.441,0,0,0,1.394,1.836,2.019,2.019,0,0,0,1.914-1.875,1.464,1.464,0,0,0-1.4-1.793Zm-.007.405h0c.611,0,.777.768.677,1.395-.121.807-.525,1.46-1.121,1.46-.7,0-.8-.761-.7-1.436.137-.905.564-1.419,1.141-1.419Zm8.283-2.257h-.65l-1.962,4.129-.664-4.129h-.714l.963,5.488h.315l2.712-5.488Zm1.042,0h0a.481.481,0,0,0-.452.407.329.329,0,0,0,.327.4.447.447,0,0,0,.448-.4.341.341,0,0,0-.323-.407Zm-.468,5.437h-.652l.492-3.505h.652l-.492,3.505Zm3.68-3.041h0l-.109.806c-.112.279-.928,1.787-1.46,1.787-.252,0-.466-.195-.293-1.07.165-.791.734-1.686,1.3-1.686a.854.854,0,0,1,.562.163Zm.381-2.659h0l-.3,2.143a3.851,3.851,0,0,0-.568-.028,2.544,2.544,0,0,0-2.091,2.157c-.15.784.015,1.51.751,1.51.789,0,1.383-.959,1.6-1.411l-.187,1.328h.659l.8-5.763-.656.063Zm1.468,2.195h0l-.489,3.505h.649l.181-1.27c.272-.527.826-1.647,1.267-1.654a.651.651,0,0,1,.357.089l.243-.628a.731.731,0,0,0-.474-.121c-.568,0-1.076,1.031-1.277,1.439l.2-1.36Zm3.839-.079h0a1.461,1.461,0,0,1,1.4,1.793,2.02,2.02,0,0,1-1.911,1.875,1.441,1.441,0,0,1-1.393-1.836,2,2,0,0,1,1.907-1.832Zm0,.405h0c-.586,0-1,.514-1.144,1.419-.1.674,0,1.436.7,1.436.6,0,1-.653,1.123-1.46C377.463,359.748,377.3,358.98,376.7,358.98Z" transform="translate(-313.883 -289.411)"/><path class="d" d="M373.923,187.042c6.539-1.418,12.82-5.74,15.241-8.792a1.73,1.73,0,0,0,.228-1.6l-1.309-5.146c-.193-.782-1.038-1.275-1.907-.33-2.759,2.978-8.427,6.8-16.11,8.354l1.63,6.47a1.774,1.774,0,0,0,2.226,1.048Zm-7.576-32.27h0a1.6,1.6,0,0,1,2,1.122l1.319,5.032c.4,1.53-.835,1.932-2,2.084-6.105.856-18.226,6.7-15.185,12.551a8.2,8.2,0,0,1-2.194-3.773c-1.616-6.382,5.36-14.352,16.057-17.017ZM349.269,173.58h0a13.626,13.626,0,0,0,10.366,14.028,25.523,25.523,0,0,0,6.672.708,2.017,2.017,0,0,0,1.992-2.36l-1.133-4.5a1.742,1.742,0,0,0-1.9-1.336C358.924,180.683,351.185,179.5,349.269,173.58Z" transform="translate(-331.508 -149.998)"/><path class="e" d="M361.8,139.452c-10.3.7-24.257,7.33-27.816,17.749-1.323,3.9-.553,7.671,3.156,10.407-4.365-12.25,17.4-18.669,26.05-19.968a1.746,1.746,0,0,0,1.6-2.042l-1.3-4.987a1.523,1.523,0,0,0-1.694-1.159Zm9.435,37.328h0a42.122,42.122,0,0,1-7.546,2.786c-8.108,2.182-15.9,1.828-21.455-.467-7.124-2.96-7.84-8.2-9.512-14.77a13.839,13.839,0,0,0,1.379,2.107c4.464,5.75,15.6,8.172,27.534,4.97a40.829,40.829,0,0,0,6.947-2.523,1.917,1.917,0,0,1,2.6,1.184l1.152,4.569A1.858,1.858,0,0,1,371.231,176.78Z" transform="translate(-320.108 -139.446)"/><path class="f" d="M352,169.333c3.928-5.034,12.542-8.338,19.18-10.028l-.9-3.407a1.588,1.588,0,0,0-2-1.121c-9.363,2.334-15.862,8.726-16.28,14.556Zm.988,11.82h0c4.329,1.967,10.158,2.736,16.511,1.9l.729,2.9a2.02,2.02,0,0,1-1.992,2.358,25.376,25.376,0,0,1-6.672-.71,13.339,13.339,0,0,1-8.576-6.455Zm19.751,1.348h0c.752-.164,1.477-.337,2.221-.54a41.372,41.372,0,0,0,6.947-2.523,1.918,1.918,0,0,1,2.6,1.188l.645,2.56a30.571,30.571,0,0,1-9.3,3.86A1.785,1.785,0,0,1,373.62,186Z" transform="translate(-333.436 -150.001)"/><path class="g" d="M337.886,304.612c.17-.82,1.309-1.584,3.271-1.841v1.736a1.335,1.335,0,0,1-.193.835,2.59,2.59,0,0,1-1.87.872,1.2,1.2,0,0,1-1.194-.989,1.5,1.5,0,0,1-.014-.612Zm7.591,1.562h0a1.441,1.441,0,0,1-.851.294.738.738,0,0,1-.764-.751c-.02-1.6.086-3.9.086-4.953a3.534,3.534,0,0,0-3.818-3.9,6.487,6.487,0,0,0-4.116,1.5,2.7,2.7,0,0,0,.442,1.106.956.956,0,0,0,1.208.188,4.118,4.118,0,0,1,2.095-.512,1.5,1.5,0,0,1,1.424,1.635v.34c-2.175.393-6.056,1.277-6.056,4.191a2.983,2.983,0,0,0,3.016,3.13,4.423,4.423,0,0,0,3.067-1.446,2.012,2.012,0,0,0,1.987,1.446,2.44,2.44,0,0,0,2.28-1.158v-1.108Zm-18.234,2.061h0a14.764,14.764,0,0,0,2.162-.067c.463-.082.53-.254.53-.646,0-1.349.028-3.491.028-5.089a3.194,3.194,0,0,1,.241-1.259,1.943,1.943,0,0,1,2.592-1.347.72.72,0,0,0,.837-.275,5.519,5.519,0,0,0,.645-2.21,2.635,2.635,0,0,0-1.416-.479c-1.277,0-2.331.906-3.08,2.572-.035-1.465-.445-2.572-1.638-2.572a1.746,1.746,0,0,0-1.715,1.721,1.2,1.2,0,0,1,.8,1.072l.015,8.579Zm-10.483-8.748h0a3.87,3.87,0,0,1,1.832-.493c1.976,0,3,1.4,3,3.488,0,2.911-1.683,4.2-3.268,4.2a4.414,4.414,0,0,1-1.565-.269v-6.929ZM314,307.061h0c0,.41.167.581.578.715a9.4,9.4,0,0,0,3.475.664c3.675,0,6.524-2.415,6.524-6.3,0-3.135-1.915-5.28-4.957-5.28a7.317,7.317,0,0,0-2.859.787v-3.17c0-1.514-.12-1.767-.479-1.767a9.191,9.191,0,0,0-2.589.561,14.516,14.516,0,0,1,.307,2.69v11.1Zm-16.139-.8h0a3.772,3.772,0,0,1-3.05-3.78c-.1-2.111,1.059-3.592,2.9-3.592a4.619,4.619,0,0,1,1.958.458c.357.17.735.275,1.006,0a1.982,1.982,0,0,0,.491-1.309,4.49,4.49,0,0,0-3.366-1.176,6.2,6.2,0,0,0-3.869,1.294,5.605,5.605,0,0,0-2.046,4.717,5.536,5.536,0,0,0,5.487,5.552c.186.014.373.014.579.014a7.126,7.126,0,0,0,1.818-.2,1.67,1.67,0,0,0,1.176-.664,3.266,3.266,0,0,0,.021-1.753,5.31,5.31,0,0,1-1.739.5,4.108,4.108,0,0,1-1.363-.053Zm9.364-7.591h0c1.222,0,1.873,1.069,1.889,2.365,0,.29-.137.529-.342.529-.559.03-2.447.067-3.625,0,.035-1.807,1.089-2.895,2.059-2.895Zm-.806,7.081h0a3.218,3.218,0,0,1-1.3-2.6c.374.018,2.96.018,4.85-.052,1.226-.049,1.841-.2,1.9-.594a10.077,10.077,0,0,0,.071-1.327,4.214,4.214,0,0,0-4.5-4.312c-3.315,0-5.192,2.914-5.123,5.944a5.755,5.755,0,0,0,1.733,4.29,5.156,5.156,0,0,0,2.181,1.139,7.654,7.654,0,0,0,2.337.19c1.492-.1,2.861-.613,2.329-2.607a5.284,5.284,0,0,1-1.738.5,5.108,5.108,0,0,1-.68.016,4.127,4.127,0,0,1-2.064-.579Zm45.969.511h0a3.78,3.78,0,0,1-3.046-3.78c-.085-2.111,1.052-3.592,2.911-3.592a4.549,4.549,0,0,1,1.943.458c.357.17.732.275,1,0a1.993,1.993,0,0,0,.513-1.309,4.558,4.558,0,0,0-3.386-1.176,6.21,6.21,0,0,0-3.868,1.294,5.838,5.838,0,0,0,3.44,10.269c.189.014.392.014.582.014a7.142,7.142,0,0,0,1.818-.2,1.669,1.669,0,0,0,1.174-.664,3.075,3.075,0,0,0,.02-1.753,5.235,5.235,0,0,1-1.744.5,4.1,4.1,0,0,1-1.359-.053Zm9.4-7.591h0c1.223,0,1.868,1.069,1.888,2.365,0,.29-.123.529-.339.529-.568.03-2.454.067-3.61,0,.029-1.807,1.069-2.895,2.041-2.895Zm-.8,7.081h0a3.212,3.212,0,0,1-1.312-2.6c.374.018,2.961.018,4.854-.052,1.222-.049,1.851-.2,1.9-.594a9.472,9.472,0,0,0,.078-1.327c-.14-2.181-1.371-4.312-4.488-4.312-3.316,0-5.21,2.914-5.133,5.944a5.774,5.774,0,0,0,1.731,4.29,5.273,5.273,0,0,0,2.181,1.139,7.627,7.627,0,0,0,2.329.19c1.5-.1,2.881-.613,2.336-2.607a5.222,5.222,0,0,1-1.736.5,5.119,5.119,0,0,1-.68.016A4.107,4.107,0,0,1,360.988,305.751Z" transform="translate(-291.877 -245.39)"/></g></svg>