<svg xmlns="http://www.w3.org/2000/svg" xmlns:xlink="http://www.w3.org/1999/xlink" width="98.755" height="31.506" viewBox="0 0 98.755 31.506"><defs><style>.a{fill:none;}.b{clip-path:url(#a);}.c{fill:#ffd400;}.c,.d,.f{fill-rule:evenodd;}.d{fill:#1a1818;}.e,.f{fill:#505153;}</style><clipPath id="a"><rect class="a" width="98.755" height="31.506"/></clipPath></defs><g class="b"><path class="c" d="M185.715,367.927a9.537,9.537,0,1,0-9.567-9.518A9.526,9.526,0,0,0,185.715,367.927Z" transform="translate(-151.685 -347.883)"/><path class="d" d="M63.348,354.722c-.512,4.985-.709,9.948-.75,16.723H56.854a160.336,160.336,0,0,0,.9-16.723Z" transform="translate(-56.854 -352.549)"/><path class="d" d="M93.509,365.941a16.911,16.911,0,0,0,5.543,1.235c1.208,0,2.951-.33,2.951-1.756,0-2.35-7.341-4.184-7.341-8.064,0-2.768,2.223-4.609,7.341-4.609a35.674,35.674,0,0,1,5.737.539l.229,3.438a11.918,11.918,0,0,0-4.212-.872c-1.6,0-3.232.162-3.232,1.612,0,2.111,7.33,4.114,7.33,8.254,0,3.491-4.45,4.557-7.72,4.557a33.093,33.093,0,0,1-6.206-.691Z" transform="translate(-85.992 -350.979)"/><path class="d" d="M281.721,367.654l-.085.124,5.317-13.061h5.786c-3,5.536-5.689,11.1-8.39,16.723h-5.859c-2.074-5.62-4.464-11.121-6.733-16.723h5.552Z" transform="translate(-227.686 -352.545)"/><path class="d" d="M371.3,361.3a21.847,21.847,0,0,1,8.7-1.7.326.326,0,0,0,.254-.09c0-2.594-1.053-3.97-4.015-3.97a4.635,4.635,0,0,0-4.788,3.97L371.3,361.3Zm-.012.48v.54c0,3.1,2.442,4.858,5.93,4.858a24.106,24.106,0,0,0,6.435-1.076l-.695,3.546a33.748,33.748,0,0,1-6.275.629c-9.978,0-10.786-5.865-10.786-8.171,0-3.063,1.356-9.356,10.459-9.356,5.23,0,9.054,2.274,9.054,7.075a8.867,8.867,0,0,1-.239,1.953Z" transform="translate(-302.522 -350.981)"/><path class="d" d="M469.928,356.389H470a5.931,5.931,0,0,1,5.2-3.643,11.971,11.971,0,0,1,1.958.211l-.122,3.883a8.364,8.364,0,0,0-2.109-.323A4.714,4.714,0,0,0,470,360.458a41.529,41.529,0,0,0-.466,7.324v2.092h-5.393c.35-4.758.737-9.234.737-16.723h5.161Z" transform="translate(-380.622 -350.979)"/><path class="d" d="M202.535,430.442a6.543,6.543,0,0,0,.679.139l1.2-.266a4.283,4.283,0,0,1-.467-.256Z" transform="translate(-172.66 -412.437)"/><path class="d" d="M194.2,427.1c.125.047.252.1.386.151l2.04-.467a4.271,4.271,0,0,1-.365-.264Z" transform="translate(-166.036 -409.623)"/><path class="d" d="M190.206,422.807l-2.574.7c.1.052.2.1.293.156l2.571-.567C190.393,423.013,190.3,422.9,190.206,422.807Z" transform="translate(-160.814 -406.672)"/><path class="d" d="M182.295,419.691l.239.184,2.991-.676a3.852,3.852,0,0,1-.249-.312Z" transform="translate(-156.571 -403.556)"/><path class="d" d="M177.795,415.668a2.738,2.738,0,0,0,.207.181l3.331-.761c-.067-.115-.136-.217-.2-.324Z" transform="translate(-152.994 -400.277)"/><path class="d" d="M171.255,407.108a1.907,1.907,0,0,1,.142.233l3.884-.853c-.05-.142-.1-.288-.144-.437Z" transform="translate(-147.795 -393.352)"/><path class="d" d="M174.23,411.593c.05.055.1.111.156.172l3.635-.805c-.056-.121-.114-.228-.169-.343Z" transform="translate(-150.16 -396.981)"/><path class="d" d="M168.883,402.7c.042.082.082.176.124.256l4.12-.921c-.037-.172-.065-.306-.1-.477Z" transform="translate(-145.909 -389.783)"/><path class="d" d="M171.465,396.8l-4.425,1.218c.032.1.068.211.108.309l4.358-.971c0-.04,0-.072-.01-.109C171.48,397.106,171.473,396.961,171.465,396.8Z" transform="translate(-144.444 -385.999)"/><path class="d" d="M165.721,393.218c.024.109.059.228.091.342l4.6-1.039c0-.2.009-.407.024-.619Z" transform="translate(-143.396 -382.104)"/><path class="d" d="M165.034,388.252c0,.052.007.092.01.149.017.074.019.154.032.233l4.842-1.119c.026-.22.065-.447.114-.668Z" transform="translate(-142.85 -378.085)"/><path class="d" d="M164.9,383.03a4.484,4.484,0,0,0-.01.462l5.09-1.147c.07-.259.152-.517.244-.778Z" transform="translate(-142.735 -373.889)"/><path class="d" d="M165.217,377.518c-.035.184-.06.35-.081.52l5.366-1.182c.131-.321.286-.622.447-.932Z" transform="translate(-142.931 -369.404)"/><path class="d" d="M175.823,344.192a11.951,11.951,0,0,0-8.256,4.422l1.771-.357-1.915.554c-.2.3-.39.589-.566.91l3.516-.768L166.7,350.01c-.117.26-.229.5-.332.755l5.05-1.059-5.19,1.463c-.062.2-.129.411-.184.621l5.689-1.26a9.646,9.646,0,0,1,7.558-4.817,10.105,10.105,0,0,1,5.031.72A12,12,0,0,0,175.823,344.192Z" transform="translate(-143.651 -344.125)"/><path class="d" d="M234.793,356.66c-.231-.049-.448-.094-.67-.12l-1.2.252c.156.085.316.177.472.259Z" transform="translate(-196.816 -353.994)"/><path class="d" d="M241.035,359.133c-.129-.05-.263-.09-.391-.141l-2.047.459c.119.086.23.171.34.26Z" transform="translate(-201.327 -355.943)"/><path class="d" d="M243.255,362.892l2.566-.714c-.1-.055-.185-.1-.281-.151l-2.58.581C243.054,362.7,243.153,362.8,243.255,362.892Z" transform="translate(-204.795 -358.355)"/><path class="d" d="M249.811,365.569c-.077-.057-.159-.107-.23-.164l-3,.666c.1.1.186.216.269.316Z" transform="translate(-207.675 -361.041)"/><path class="d" d="M253.15,369.148c-.075-.07-.142-.129-.212-.194l-3.3.755c.069.108.134.229.2.341Z" transform="translate(-210.102 -363.862)"/><path class="d" d="M257.7,376.886c-.057-.083-.107-.165-.162-.242l-3.9.88c.062.142.109.293.159.43Z" transform="translate(-213.283 -369.976)"/><path class="d" d="M255.7,372.9c-.057-.066-.109-.132-.16-.193l-3.605.818c.048.129.1.253.15.373Z" transform="translate(-211.926 -366.848)"/><path class="d" d="M259.285,381.015a1.757,1.757,0,0,0-.129-.249l-4.139.915c.033.154.065.325.1.485Z" transform="translate(-214.381 -373.252)"/><path class="d" d="M255.831,386.381l4.435-1.253a1.682,1.682,0,0,0-.1-.283l-4.378.984.015.094C255.811,386.1,255.823,386.245,255.831,386.381Z" transform="translate(-214.99 -376.495)"/><path class="d" d="M260.625,389.513a2.321,2.321,0,0,0-.077-.342l-4.594,1.045c0,.206-.011.4-.027.61Z" transform="translate(-215.103 -379.934)"/><path class="d" d="M260.22,394.03c-.008-.058-.013-.108-.017-.157-.005-.08-.022-.159-.032-.227l-4.832,1.1c-.027.233-.065.455-.109.685Z" transform="translate(-214.55 -383.49)"/><path class="d" d="M258.994,398.727c.005-.144.01-.3.01-.445l-5.083,1.111c-.07.259-.155.531-.253.793Z" transform="translate(-213.308 -387.176)"/><path class="d" d="M256.958,403.244c.038-.166.06-.358.085-.537l-5.383,1.227c-.115.3-.248.6-.4.909Z" transform="translate(-211.39 -390.693)"/><path class="d" d="M197.984,415.185a11.846,11.846,0,0,0,8.264-4.424l-1.776.356,1.913-.559a7.434,7.434,0,0,0,.576-.9l-3.535.77,3.7-1.088c.121-.238.223-.491.338-.745l-5.071,1.08,5.2-1.46c.065-.211.119-.4.165-.619l-5.669,1.244a9.8,9.8,0,0,1-7.578,4.847,10.291,10.291,0,0,1-5.025-.712A12.08,12.08,0,0,0,197.984,415.185Z" transform="translate(-162.288 -394.582)"/><rect class="e" width="98.744" height="0.832" transform="translate(0.011 30.674)"/><path class="f" d="M353.394,451.594H351.8v-.947h4.1v.947h-1.5v4.942h-1.006Z" transform="translate(-291.319 -428.803)"/><rect class="e" width="2.066" height="0.976" transform="translate(64.28 24.722)"/><path class="f" d="M386.727,453.069h3.638v.117a2.957,2.957,0,1,1-2.922-3.107,2.832,2.832,0,0,1,2.646,1.851h-1.21a1.665,1.665,0,0,0-1.463-.854,1.991,1.991,0,0,0-1.945,2.053,1.968,1.968,0,0,0,2,2.035,1.755,1.755,0,0,0,1.618-1.121h-2.363Z" transform="translate(-317.275 -428.352)"/><path class="f" d="M449.168,451.594h.693c.636,0,.842.277.842.661,0,.62-.671.62-.932.62h-.6v-1.28Zm-1.006,4.942H449.9a2.382,2.382,0,0,0,1.463-.38,1.654,1.654,0,0,0,.678-1.376,1.388,1.388,0,0,0-.942-1.468,1.194,1.194,0,0,0,.613-1.133,1.53,1.53,0,0,0-.46-1.085,2.39,2.39,0,0,0-1.759-.449h-1.326v5.889Zm1.006-2.715H450a.857.857,0,0,1,.971.921c0,.589-.544.755-1,.755h-.8Z" transform="translate(-367.917 -428.803)"/><rect class="e" width="1.071" height="5.891" transform="translate(89.972 21.844)"/><path class="f" d="M418.491,455.164a2.014,2.014,0,0,1-2-2.043,2.038,2.038,0,0,1,2-2.042,2.091,2.091,0,0,1,2.08,2.042,2.066,2.066,0,0,1-2.08,2.043Zm0-5.084a3.063,3.063,0,1,0,3.076,3.041A3.027,3.027,0,0,0,418.491,450.08Z" transform="translate(-341.885 -428.352)"/><path class="f" d="M469.531,452.15h-.017l-.77,1.915h1.5l-.712-1.915Zm-2.748,4.383,2.329-5.891h.8l2.288,5.891h-1.061l-.547-1.5h-2.2l-.561,1.5Z" transform="translate(-382.719 -428.799)"/><path class="f" d="M505.683,450.644h1.036l2.442,3.855v-3.855h1.012v5.89h-.955l-2.516-4.065v4.065h-1.019Z" transform="translate(-413.643 -428.801)"/><path class="f" d="M271.136,454.4a.931.931,0,0,0,.964.771.812.812,0,0,0,.849-.73c0-.587-.455-.779-1.148-1.056-.5-.171-1.476-.4-1.476-1.612a1.706,1.706,0,0,1,1.79-1.689,1.728,1.728,0,0,1,1.719,1.689h-1.01a.7.7,0,0,0-.741-.693c-.318,0-.737.244-.737.587,0,.542.519.695,1.088.891a1.839,1.839,0,0,1-.343,3.653,1.929,1.929,0,0,1-1.97-1.812Z" transform="translate(-226.386 -428.354)"/><rect class="e" width="1.024" height="5.89" transform="translate(53.431 21.844)"/><path class="f" d="M291.121,452.15h-.015l-.731,1.915h1.464l-.718-1.915Zm-2.761,4.382,2.36-5.89h.782l2.3,5.89h-1.067l-.562-1.5h-2.181l-.571,1.5Z" transform="translate(-240.885 -428.799)"/><path class="f" d="M327.341,450.644h1.021l2.454,3.849v-3.849h1.01v5.89h-.957l-2.527-4.069v4.069h-1Z" transform="translate(-271.873 -428.801)"/></g></svg>