<svg xmlns="http://www.w3.org/2000/svg" xmlns:xlink="http://www.w3.org/1999/xlink" width="116.221" height="51.574" viewBox="0 0 116.221 51.574"><defs><style>.a{fill:none;}.b{clip-path:url(#a);}.c,.d{fill:#505153;}.d,.e,.f,.g,.h{fill-rule:evenodd;}.e{fill:#8b8e91;}.f{fill:#006cbb;}.g{fill:#fff;}.h{fill:url(#b);}</style><clipPath id="a"><rect class="a" width="116.222" height="51.574"/></clipPath><radialGradient id="b" cx="15.716" cy="48.631" r="30.967" gradientTransform="translate(-6.616 -57.967) scale(0.817 0.817)" gradientUnits="userSpaceOnUse"><stop offset="0" stop-color="#eeebe9"/><stop offset="0.25" stop-color="#eeebe9"/><stop offset="0.63" stop-color="#8b8e91"/><stop offset="1" stop-color="#8b8e91"/></radialGradient></defs><g class="b" transform="translate(0)"><rect class="c" width="73.722" height="0.952" transform="translate(42.499 50.622)"/><path class="d" d="M360.707,493.19h-1.82V492.1h4.687v1.086h-1.716v5.659h-1.151Z" transform="translate(-286.47 -450.656)"/><rect class="c" width="2.367" height="1.118" transform="translate(76.759 44.742)"/><path class="d" d="M396.319,494.937h4.166v.134a3.384,3.384,0,1,1-3.346-3.551,3.243,3.243,0,0,1,3.03,2.116h-1.388a1.9,1.9,0,0,0-1.672-.977,2.279,2.279,0,0,0-2.226,2.349,2.252,2.252,0,0,0,2.289,2.331,2.01,2.01,0,0,0,1.853-1.283h-2.705Z" transform="translate(-313.638 -450.2)"/><path class="d" d="M462.806,495.74h.948a.983.983,0,0,1,1.113,1.055c0,.675-.624.864-1.141.864h-.92V495.74Zm-1.151,3.111h1.984a2.717,2.717,0,0,0,1.674-.436,1.889,1.889,0,0,0,.778-1.575,1.591,1.591,0,0,0-1.078-1.682,1.367,1.367,0,0,0,.7-1.294,1.744,1.744,0,0,0-.529-1.242,2.727,2.727,0,0,0-2.015-.515h-1.515v6.745Zm1.151-5.659h.792c.729,0,.963.317.963.756,0,.707-.768.707-1.064.707h-.691Z" transform="translate(-366.62 -450.658)"/><rect class="c" width="1.227" height="6.744" transform="translate(106.169 41.448)"/><path class="d" d="M430.248,491.515a3.5,3.5,0,1,0,3.521,3.477,3.463,3.463,0,0,0-3.521-3.477Zm0,5.819a2.307,2.307,0,0,1-2.295-2.342,2.335,2.335,0,0,1,2.295-2.336,2.4,2.4,0,0,1,2.382,2.336A2.366,2.366,0,0,1,430.248,497.334Z" transform="translate(-339.379 -450.197)"/><path class="d" d="M481.515,498.851l2.666-6.745h.921l2.617,6.745h-1.213l-.627-1.716H483.36l-.641,1.716Zm3.145-5.016h-.02l-.88,2.187h1.715Z" transform="translate(-382.109 -450.658)"/><path class="d" d="M523.007,492.106h1.183l2.8,4.412v-4.412h1.16v6.742h-1.094L524.17,494.2v4.652h-1.163Z" transform="translate(-414.469 -450.658)"/><path class="d" d="M272.934,496.454a1.063,1.063,0,0,0,1.1.882.928.928,0,0,0,.971-.834c0-.673-.522-.894-1.315-1.21-.574-.2-1.69-.456-1.69-1.842a1.954,1.954,0,0,1,2.049-1.933,1.977,1.977,0,0,1,1.967,1.933h-1.155a.8.8,0,0,0-.849-.794c-.362,0-.842.278-.842.672,0,.617.594.793,1.246,1.019a2.1,2.1,0,0,1-.393,4.18,2.205,2.205,0,0,1-2.255-2.072Z" transform="translate(-218.528 -450.198)"/><rect class="c" width="1.174" height="6.742" transform="translate(64.342 41.448)"/><path class="d" d="M291.221,498.85l2.7-6.742h.894l2.632,6.742H296.23l-.642-1.717h-2.5l-.653,1.717Zm3.162-5.014h-.017l-.839,2.188H295.2Z" transform="translate(-233.697 -450.659)"/><path class="d" d="M332.792,492.106h1.169l2.81,4.406v-4.406h1.157v6.742h-1.1l-2.893-4.657v4.657h-1.147Z" transform="translate(-266.119 -450.658)"/><path class="e" d="M198.542,303.78h7l-6.332,51.558h-7Z" transform="translate(-156.477 -303.78)"/><path class="e" d="M159.422,303.78h7l-6.332,51.558h-7Z" transform="translate(-125.967 -303.78)"/><path class="e" d="M120.311,303.78h7l-6.327,51.558h-7Z" transform="translate(-95.464 -303.78)"/><path class="f" d="M252.54,385.59h1.487c2.137,0,3.88.8,3.586,3.243-.306,2.425-2.263,3.118-4.371,3.118H251.75l.79-6.361Zm-6.349,17.539h4.216l.941-7.906h1.788c4.511,0,8.3-1.768,8.905-6.634.614-4.958-3.409-6.28-7.969-6.28h-5.34Z" transform="translate(-198.578 -365.026)"/><path class="f" d="M317.022,397.609h4.02l2.771-22.378h-4.067Z" transform="translate(-253.819 -359.506)"/><path class="f" d="M348.157,409.99a9,9,0,0,1,4.981-1.67c2.4,0,3.379.828,3.077,3.288h-2.21a12.835,12.835,0,0,0-5.315.909,5.214,5.214,0,0,0-3.177,4.4c-.362,2.9,2.1,4.559,4.827,4.559a6.485,6.485,0,0,0,5.14-2.645h.062a18.137,18.137,0,0,0-.106,2.283h3.512c.054-1.207.129-2.252.241-3.417.113-1.145.225-2.321.416-3.885l.247-1.954c.546-4.528-1.175-6.491-5.867-6.491a14.732,14.732,0,0,0-5.526,1.177l-.3,3.45Zm1.24,6.677c.274-2.382,2.977-2.672,4.8-2.672h1.723a5.653,5.653,0,0,1-1.2,3.186,3.944,3.944,0,0,1-3.023,1.372C350.25,418.554,349.232,418,349.4,416.667Z" transform="translate(-276.012 -383.006)"/><path class="f" d="M428.65,405.88a12.67,12.67,0,0,0-3.889-.517c-4.809,0-7.906,3.541-8.456,7.995-.58,4.685,1.577,8.113,6.634,8.113a13.939,13.939,0,0,0,4.113-.513l.235-3.3a9.42,9.42,0,0,1-3.206.708c-2.819,0-3.911-2.183-3.561-5.011.357-2.887,2.173-4.857,4.684-4.857a5.894,5.894,0,0,1,2.688.558Z" transform="translate(-331.18 -383.006)"/><path class="f" d="M471.595,413.505c-.547,4.46,1.949,7.965,7.1,7.965a8.828,8.828,0,0,0,9.089-7.965c.627-5.036-2.53-8.144-7.1-8.144a8.941,8.941,0,0,0-9.087,8.144Zm4.237-.451c.282-2.32,1.824-4.554,4.465-4.554,2.6,0,3.6,2.173,3.311,4.554-.32,2.562-1.481,5.314-4.535,5.314C475.994,418.369,475.518,415.58,475.832,413.054Z" transform="translate(-374.315 -383.004)"/><path class="g" d="M29.855,364.132c0-8.744,8.709-15.822,19.42-15.822s19.42,7.079,19.42,15.822c0,8.773-8.709,15.852-19.42,15.852S29.855,372.905,29.855,364.132Z" transform="translate(-29.855 -338.51)"/><path class="f" d="M37.576,370.134c0-7.805,7.95-14.129,17.722-14.129s17.72,6.324,17.72,14.129c0,7.835-7.95,14.158-17.72,14.158S37.576,377.968,37.576,370.134Z" transform="translate(-35.877 -344.511)"/><path class="h" d="M64.814,364.939l1.093.029-1.093.06v1.333h.092l-.092.03v.182c.365-.394.274-1.089.85-1.422h0L66,365v-.212a5.834,5.834,0,0,0-1.185-.121h0v.273Zm-.423-.242a1.845,1.845,0,0,1,.423-.031v.273l-.423-.03V364.7Zm-.182.212h.182V364.7h-.182v.212ZM64,364.727a.515.515,0,0,0,.213-.03v.212l-.85-.06h0c.213-.032.426-.092.637-.121ZM66,365v-.212h0c.061,0,.121.029.181.029h0c.062.032.032.092-.06.122L66,365Zm-1.608,1.362v-1.331h.425v1.331Zm-.182-1.3v1.27l.182.03v-1.333l-.182.032Zm-1.972.06,1.972-.06v1.27l-2.488-.092h0a.7.7,0,0,0-.728-.271l-.182.03v-.363h0a12.816,12.816,0,0,1,1.426-.514Zm-1.426.06v.182l.515-.182Zm-.578.031c-.15.061-.363.121-.576.212h-.029v.515l.484-.274c.182-.089.334-.149.517-.241h0l.182-.06v-.182l-.578.031Zm-1.608.485a3.4,3.4,0,0,1,1-.273v.515H59.6a.742.742,0,0,1-.243.18l-.759-.029v-.362h0a.03.03,0,0,1,.031-.03Zm1.76.121c-.182.121-.121.3.182.241h0l.244-.06v-.363c-.153.061-.273.121-.426.182Zm-2.185.241.4.031v-.362c-.364.091-.424.212-.4.332Zm6.191.333h.423v.182h0a.738.738,0,0,1-.333.181l-.091.03v-.394Zm-.182,0v.423c.031,0,.09-.03.121-.03h.061v-.394Zm-2.428.09,2.428-.09v.423h0a3.178,3.178,0,0,0-1.79.817h0s-.213.332-.546.937h0c-.487.152-.789-.363-.76-.847l1.183-.061-1.153-.029h0a.962.962,0,0,1,.274-.515h0a.684.684,0,0,0,.363-.635Zm-2.154.061v1l.333.031a.752.752,0,0,0-.091-1.028h-.242Zm-1.033.03,1.033-.03v1h-.274c.121-.272-.3-.423-.363-.423h0c-.365.031-.365.212-.4.394v-.938Zm-.4.031v.876l.4.031v-.938l-.4.031Zm16.235.847,1.214-.031v-.635a7.125,7.125,0,0,0-1.214-.181h0v.847Zm-.91-.847h.91v.847l-2.4.06v-.756h0a1.718,1.718,0,0,1,.3-.061h0c.334,0,1.183-.089,1.183-.089Zm-16.75.059L58.2,366.6v.876l-1.426-.06v-.758Zm11.076.908a.094.094,0,0,0,.031.061h.638v-.847a1.763,1.763,0,0,0-.668-.152h0v.937Zm-.242-.908a.605.605,0,0,1,.242-.029v.937h0c-.06-.091-.212-.091-.334.091H67.03v-.634h0c.092-.182.242-.273.578-.365Zm-10.924,0h-.031s-.274.092-.607.242h0v.484l.728.032v-.758Zm14.353.365v.513l1-.029v-.756a9.851,9.851,0,0,0-1,.273Zm4.612.393v-.635h0a6.442,6.442,0,0,1,1.153.362v.241l-1.153.032Zm-7.13.212v-.847h0a5.712,5.712,0,0,1,.911.514h0c.181.121,0,.333-.182.241h0c-.213-.06-.516-.212-.455,0h0c0,.031,0,.061.029.061l-.3.03Zm-13.2-.273a3.755,3.755,0,0,1,.728-.454v.484l-.728-.029Zm14.808-.031c.242-.09.576-.181.91-.3v.513l-.91.031v-.242Zm-3.734.606a.7.7,0,0,0-.394.212h0v.968a1.349,1.349,0,0,0,.486-.242h0a.641.641,0,0,0,.151.485h0c-.03.362.274.3.4-.031h0v-.273l-.486-.029h.486v-1.332l-.182-.03h.182v-.634a3.346,3.346,0,0,1-.638.907Zm10.408-.546.153-.029v-.181c-.061,0-.092-.031-.153-.031h0v.241Zm.153-.029v-.181h0l.363.181Zm-7.283.152v.091l.455-.031v-.242a3.954,3.954,0,0,0-.455.182Zm-1.821.3v.877c.363-.212.637-.181.668-.061h0v-.907l-.638-.031a.182.182,0,0,0-.031.121Zm-.82-.121h.455c.061.272-.213.333-.333.514h0c-.182.273.515.635-.062.787v.031h-.06v-1.332Zm1.488.031h.363a.731.731,0,0,0,.485.212h0a.38.38,0,0,0,.243-.181l.516.029v1.15l-1.608.06v-.272h0a.059.059,0,0,0,0-.092v-.907Zm2.518,1.18h1v-1.089l-1-.031v1.12Zm-.91-1.12v1.15l.91-.031v-1.12Zm-10.5,0v.484a.322.322,0,0,0,.12-.484h-.12Zm-.487.031.487-.031v.484h0a.8.8,0,0,1-.426.12h0a1.413,1.413,0,0,1-.607-.089v-.182h0a1.075,1.075,0,0,1,.425-.212h0a.381.381,0,0,0,.121-.09Zm12.9,1.089v-1.089l2.4.09v.908l-2.4.09Zm-4.46-.787a.826.826,0,0,0,.273-.3v.877h0c-.122-.061-.426-.393-.273-.575Zm-9.378-.272v.06c.031-.029.062-.029.092-.06H58.2Zm-1.426.06,1.426-.06v.06h0a4.685,4.685,0,0,0-1.183.818l-.212.151h-.031V367.9Zm17.661.908,1.214-.031v-.847l-1.214-.031v.908Zm-18.389-.848v.878l.728.031V367.9l-.728.06Zm19.6.818v-.847l1.153.029v.788l-1.153.03Zm1.306-.03.819-.031v-.727l-.819-.031v.788Zm-.153,0h.153v-.788H76.8v.788Zm-22.09-.727,1.335-.061v.878l-2.276-.12h0a5.764,5.764,0,0,1,.941-.7Zm23.061.7v-.727l.7.031h0c.333.212.637.454.909.665l-1.608.031ZM58.595,368.3v-.182c-.121.061-.121.152,0,.182Zm7.312.755a.743.743,0,0,1,.092-.907v.968h0c-.03,0-.061-.03-.092-.061Zm-7.312-.543v.454h.4v-.122c.029-.06.182-.241.06-.3h0a.7.7,0,0,0-.266-.05h0a.946.946,0,0,0-.189.021Zm-.4.272v.152l.4.031v-.454a1.157,1.157,0,0,0-.4.272Zm10.319-.03v0Zm-9.255.241c.076-.076.2-.266.262-.266h0c.033,0,.043.061.01.236h0a.862.862,0,0,0,.092.635v.755h0c-.881.455-1.185.909-.911,1.333l-.122.03v-1.3l1-.061-1-.03v-1.271l.4-.029h0c.029.06.09.06.242,0l.273-.031Zm8.587,0h.668v-.241c-.486,0-.638.12-.668.241Zm-9.77-.06h.12v-.152a.5.5,0,0,0-.12.152Zm6.373.181-.061.181v.121h.061a.029.029,0,0,1,.029.031h0c0,.092,0,.241.09.212h0s.122-.06.152.029h0v.152c-.029.06-.09.031-.121.031h0c-.091,0-.031.152-.031.212h0a.4.4,0,0,1-.09.121h0c-.091.091.061.091.061.091h.121s.03.03-.031.06h0a.291.291,0,0,0-.242.152h0v.181a.351.351,0,0,1,.273-.151h.09c.031,0,.031,0,.06-.03h0v-1.089l-.029-.029v-.061l.029-.061v-.241c-.029.029-.029.029-.06.029h0c-.09,0-.09-.089-.031-.151h0c.037-.048.02-.082-.021-.082h0c-.063,0-.179.077-.25.294Zm.362.151v-.241h0c.092,0,.092.029.032.152l-.032.089Zm2.216-.212h.06a.6.6,0,0,1-.06.273v-.273Zm-8.831.031v1.21l.4.03v-1.271l-.4.031Zm10.319,1.241,1.608-.03v-1.149l-1.608-.061v1.241Zm-.668-1.241h.668v1.241l-.668.03v-1.028h0a.092.092,0,0,0,.06-.03h0c0-.031-.06-.091-.06-.181v-.03Zm-.03,0,.03.03v-.03Zm-9.832,0H58.2v1.21l-.728-.031h0c.061-.181.092-.363.153-.393h0c.455-.182.515-.484.363-.757v-.03Zm13.049,1.18,1-.029v-1.059l-1-.031v1.118Zm-.91-1.118h.91v1.118l-.91.031v-1.149Zm1.911,1.089v-1.059l2.4.06v.938l-2.4.06ZM56.046,369.2v1l.728.031v-.423a.534.534,0,0,1-.213-.635h0l-.515.029Zm11.562,0a.1.1,0,0,1,.061-.025h0c.074,0,.109.122.181.146v1.028l-.82.032v-.455h0a.61.61,0,0,0,.578-.726Zm-14.476.152,2.914-.152v1l-3.186-.121h0a.229.229,0,0,0-.243,0h-.031a5.712,5.712,0,0,1,.546-.726Zm21.3.817,1.214-.032v-.877l-1.214-.029v.938Zm-8.315-.635c0-.2.083-.3.152-.3h0c.068,0,.121.1.061.3h0c0,.06.03.03.06.03h0c.182-.121.152.151.092.242h0c-.061.06-.031.152,0,.152h0c.029.031.06,0,.1-.032h0a.127.127,0,0,1,.143-.031h0a.842.842,0,0,0,.3.031v.455h-1l1,.029v1.3l-1.031.03v-1.634h0a.588.588,0,0,0,.121-.514v-.06Zm9.528.6v-.877l1.153.061v.787l-1.153.03Zm2.125-.03,2.852-.09c-.122-.152-.3-.394-.515-.635h0l-2.337-.061v.787Zm-.819,0v-.787h.82v.787Zm-.153,0h.153v-.787H76.8v.787Zm-12.41-.7a.055.055,0,0,1,0-.091v.091Zm.423,1.089v-1.089h0a.68.68,0,0,1,.274.576h0c.213-.031.243.06.121.27h0l-.09.091h0c.213,0,0,.122-.031.122h0c-.092,0-.182-.031-.242,0l-.032.029Zm-.606-.937a.063.063,0,0,1,.033-.009h0c.049,0,.1.05.149.1v.181h0a.3.3,0,0,0-.092.031h0a.319.319,0,0,1-.09.363v-.666Zm-.06.031c-.032.029.031.089-.032.089h0a.673.673,0,0,1-.121.031h0c-.029.032.031.092,0,.121h0l-.06.06c-.031.062.06.031.06.093h0c0,.181-.152.21-.152.27h0c0,.031.122.091.182.091h0a.278.278,0,0,0,.182-.12h0v-.666a.093.093,0,0,0-.06.031Zm-4.521.755a.923.923,0,0,0,.242-.12h0c.273-.181-.03-.334-.242-.635h0v.755Zm4.763-.514v-.181h0c.031.029.031.092.061.121h0l-.061.06Zm-7.617.394v-.423h0a.783.783,0,0,0,.486.12h0c.092-.031.029.092-.031.333l-.455-.029Zm8.952,0a.774.774,0,0,0,.273-.121v1.634l-.7.029H66v.334h0c0,.029-.03.029-.03.06h0c-.032.03-.092.121-.182.06h0c-.182-.09-.3,0-.274.181h0c.03.09,0,.122-.061.152h0c-.546.394-.3.636-.3.636h0a.633.633,0,0,1-.244.241h0c-.029.03-.029.152-.092.182v-1.483h0a.4.4,0,0,0,.213-.453h0a.363.363,0,0,1-.213-.212v-.454h.122c0-.182.121-.273.365-.3h0c-.032-.152.121-.332.425-.483Zm-6.008.181c-.03.031-.061.061-.09.061h0v.6h.06c.09.031.06.151.182.06h0c.045-.029.075.008.1.047h0c.022.036.039.075.053.043h0c.153-.21.182-.272.063-.242h0c-.032-.03-.032-.272-.182-.3h0c-.122,0-.122-.029-.122-.089h0c0-.092.031-.061.092-.182h0c.018-.035.025-.071-.007-.071h0a.342.342,0,0,0-.145.071Zm7.312,1.3h.82v-1.271l-.82-.031v1.3ZM58.2,370.445v1.33a2.568,2.568,0,0,1,.243-.089h0l.152.03v-1.3l-.4.031Zm9.651,1.271v-1.271l.668.031v1.21l-.668.03Zm-10.408-1.241.758-.031v1.33h0a.55.55,0,0,0-.3.334h0a1.258,1.258,0,0,1-.668.664h0a1.123,1.123,0,0,0-.455.3v-.665h0a1.266,1.266,0,0,0,.3-.181h0c.092-.06.244-.242.182-.271h0a1.812,1.812,0,0,0-.486.242v-.242h0c.031.029.06.029.122.029h0c.06-.029.06-.089.031-.181l1.243-.03-1.336-.089h-.06V370.5l.426-.029v.089h0c0,.121.181.152.242-.089Zm11.076,1.21h.242a1.076,1.076,0,0,1,.606-.242h0c.062,0,.274,0,.335.06h0a.321.321,0,0,1-.031.15h.455V370.5l-1.608-.029v1.21Zm-9.2-.635c-.031.029-.031.089.061.06h0c.121-.031.181-.06.244-.031h0v-.6a1.129,1.129,0,0,0-.3.575Zm10.8.6V370.5l.91.03v.908h0c-.122-.032-.243.031-.365.181l-.545.03Zm-5.8-1.028s.029-.061.061-.121v.181h0c-.032,0-.061,0-.061-.06Zm-8.284-.091v.787c.121-.122.333-.212.455.029h0c.06.06,0,.242.273.334h0V370.5l-.728.03Zm15.991,1.059,2.4-.03V370.6l-2.4-.061v1.059Zm-1-1.059v.908a.455.455,0,0,1,.182.06h0l.12.121h0l.7-.031v-1.059Zm-18.3.151,3.308-.151v.787h0l-.121.121-.09.12h0c-.031.061-.031.061-.031.09l-3.309-.15h0c.061-.273.153-.545.243-.818Zm21.7.877V370.6l1.214.029v.908l-1.214.029Zm1.214-.029L76.8,371.5v-.847l-1.153-.031v.908ZM76.8,371.5v-.847l.153.029v.818Zm.971-.029,2.458-.062a1.724,1.724,0,0,0-.607-.665h0l-1.851-.061v.788Zm-.819-.788v.818l.819-.029v-.788Zm-12.382.544c.182.061.182.121.242.244h0v-.454c-.212.031-.3.091-.242.21Zm-8.466.273a.053.053,0,0,1,.031-.011h0c.061,0,.058.161.031.161h-.121v-.09h0c.03-.029.06-.06.06-.06Zm-.181.15a.6.6,0,0,1,.121-.09v.09ZM66,372.109c.394-.393.334.241.546.453h0c.091.152.213.09.4.454h0v.09h.09v-.484c-.273-.182-.152-.333-.515-.636h0c.3-.362.394.122.394.122h0s0,.029.121.12h0v-.423L66,371.775v.334Zm1.851.877a.864.864,0,0,0,.3-.273h0c.092-.031.06.091.121.091h0c.061,0,.152-.06.243-.181h0c.029-.061-.092-.152-.062-.363h0a2.149,2.149,0,0,1,.062-.212h0v-.213l-.668-.03v1.181Zm-.82-1.181h.82v1.3h-.3a.893.893,0,0,1-.092-.574h0a4.37,4.37,0,0,1-.425-.3v-.423Zm2.034.152c-.031,0-.061-.06-.061-.122l1.123.032v1.179l-1.608.029v-.331h0c.029-.031.06-.031.091-.061h0c.364-.212.607-.182,1.153.061h0c.212.12.4-.244.242-.423h0a.9.9,0,0,0-.94-.363Zm-.546-.122h.12a.5.5,0,0,0-.12.213v-.213Zm-12.2,0a2.135,2.135,0,0,0-.243.575h-.03v.665l.668.061-.668.031V374.5h0v.029a.029.029,0,0,1,.03-.029h0a1.27,1.27,0,0,1,.456-.515h0a.415.415,0,0,0,.242-.212h0v-.362c-.029-.03-.029-.092-.06-.122h0a.26.26,0,0,1,.06-.212h0v-.665a1.777,1.777,0,0,0-.4.242h0c-.089.121-.181.031-.089-.06h0a1.4,1.4,0,0,1,.484-.393h0v-.242h-.06c-.092,0-.122.06-.153.12h0v.122c0,.06-.06.121-.12.091h0c-.092-.152.06-.333.06-.423h0c-.029,0-.029-.032-.029-.032h-.153Zm13.807.032v1.179l.849-.03c.03-.029.03-.091.061-.152h0v-.06c-.061-.181-.426-.575-.426-.937h-.484Zm-14.08,0h.06a.219.219,0,0,1-.06.12v-.12Zm-3.671.15,3.671-.15v.12h0a1.4,1.4,0,0,0-.182.606h0c.03.06.122.03.182-.182v.665l-3.793-.212h0c.031-.271.06-.543.122-.847Zm18.875-.12c.15.12.212.089.212,0l.576.029v1.06l-.728.029h0c-.031-.121.029-.212.182-.121h0c.243-.06,0-.333-.061-.394h0a3.69,3.69,0,0,1-.363-.362l-.031-.029v-.152h0c.031-.031.031-.06.06-.06Zm.788,1.089,2.4-.061v-.968l-2.4-.031v1.06Zm2.4-.061v-.968l1.214.029v.938Zm-3.4-.816v0Zm4.612.816,1.153-.031v-.877l-1.153-.03v.938Zm1.306-.031.819-.031v-.816l-.819-.031v.877Zm-.153,0v-.877h.153v.877Zm.971-.031v-.816l2.519.061h0a4.131,4.131,0,0,1-.182.7l-2.337.06Zm-13.564-.755v1.421h.031c.06-.06.091.061.152.121h0v-1.513a.5.5,0,0,0-.122-.029h-.06Zm-.152.3c-.061-.181-.121-.241.152-.3v1.421h0c-.06.031-.213.092-.182-.06h0c0-.09.06-.152,0-.212h0c-.152-.182.153-.575.03-.848Zm.334-.272v1.543c.033.066.056.025.12-.018h0a.342.342,0,0,1,.274-.043h.029v-1.483a.66.66,0,0,1-.423,0Zm2.639.484h.031c.061.06.243.333.182.393h0c-.031.03-.121-.121-.121-.121h0c-.061,0-.032.121,0,.212H67.03v-.484Zm1.245.453a.58.58,0,0,1,.243-.331v.331Zm2.762-.212v-.06h0c.031.03.031.03.031.06Zm-3.186.242v-.12h0a.311.311,0,0,1,.06.12Zm-15.657.273,3.853-.212V374.5l-3.853-.243v-.877Zm15.657.181a.271.271,0,0,0,.242-.181h0a.769.769,0,0,1-.091-.152h0l-.152-.03v.362Zm-.242-.362h.242v.362h0a.19.19,0,0,1-.182-.121h0c.3-.121-.03-.152-.03-.152h0a.229.229,0,0,0-.03-.089Zm-.578,0v.272c.06-.09.092-.242.122-.272H67.03Zm-.09,0h.09v.272h0a.03.03,0,0,0-.03.031h0c-.029,0-.121-.061-.06-.243v-.06Zm1.578.483a.962.962,0,0,0,.575.091h0c.426-.091.455.273.3.6h.728v-1.119l-1.608-.03v.454Zm-.273-.454h.273v.454h0a.6.6,0,0,1-.273-.454Zm1.881,1.149v-1.119l.788.029h0a.633.633,0,0,0,.122.334v.726l-.91.029Zm1.911-.029,2.4-.061v-.938l-2.4-.061v1.06Zm-.546-1.06c0,.122-.03.454-.182.425h0a.37.37,0,0,1-.273-.091h0v.726h1v-1.06Zm2.943,1v-.938l1.214.031v.877l-1.214.03Zm2.519-.06h.819v-.817l-.819-.03v.847Zm-.153-.847h.153v.847l-.153.03v-.877Zm-1.153.877H76.8v-.877H75.648v.877Zm2.125-.03v-.817l1.184.03.12.364h0c.031.121.092.273.122.393l-1.427.031Zm-21-.454v-.362h0a.712.712,0,0,1,0,.362Zm8.528-.181c-.3.09-.4.362-.487.362h0v.515l1.185-.03v-.908c-.073-.007-.148-.012-.221-.012h0a1.241,1.241,0,0,0-.476.073Zm.7.847h.546a.815.815,0,0,1-.06-.877h0A2.3,2.3,0,0,0,66,373.53h0v.908Zm-1.608-.6a.092.092,0,0,1,.071-.029h0a.768.768,0,0,1,.324.149h.029v.515h-.423v-.635Zm-.182.453v.213l.182-.031v-.635c-.092.06-.061.272-.182.453Zm-.06.09c.031-.029.031-.06.06-.09v.213h0v1.33l-.759.029h.759v1.332l-1.183.032,1.183.029v1.3l-1.215.031,1.215.029v1.363h0v.574h0c-.029,0-.092-.031-.123-.031h0a3.6,3.6,0,0,1-1.273-2.178h0a4.938,4.938,0,0,1,0-.968h0A4.013,4.013,0,0,1,63.3,375.8h0c.3-.484.546-.333.607-1.18h0a.256.256,0,0,1,.243-.242Zm.666,1.453L66,375.8v-1.27l-1.185-.029v1.33Zm-.423,0V374.5h.425v1.33Zm-.182,0V374.5h.182v1.33Zm-11.956-1.118,3.793-.212v.06l-.092.333v.666h0a.318.318,0,0,1-.09.332h0c-.212-.031-.152-.3-.182-.362v-.152l.031-.453h0a1.231,1.231,0,0,0-.455-.092h0c-.15,0-.06.243-.242.3h0c-.071.028-.115-.021-.162-.071h0c-.058-.057-.119-.116-.232-.052h0a1.219,1.219,0,0,0-.425.515h0c0,.091.03.151.03.242l-1.79-.121h0a4.735,4.735,0,0,1-.182-.937ZM66,375.8v-1.27l.636.031h0a1.725,1.725,0,0,0,.4.241v.969L66,375.8Zm1.851-1.24v1.21l.668-.031v-.876a2.345,2.345,0,0,1-.608-.3h-.06Zm-.212,0c-.092.152.06.423-.214.423h0a.939.939,0,0,1-.394-.182h0v.969h.82v-1.21Zm1.243.3a.682.682,0,0,0,.394-.274l.85.031v1.09l-1.608.029v-.876h0a1.508,1.508,0,0,0,.363,0Zm1.245.847h.91c-.092-.152-.182-.3-.153-.394h0c0-.15.092-.181.153-.15h0v-.515l-.91-.031v1.09Zm.91-.545v-.515l1,.03v1h-.668a1.032,1.032,0,0,1-.151-.363h0a.31.31,0,0,0-.182-.15Zm1,.513,2.4-.06v-.907l-2.4-.031v1Zm2.4-.06v-.907l1.214.029v.878Zm1.214,0,1.153-.031v-.816l-1.153-.031v.878Zm1.306-.031.819-.03V374.8l-.819-.029v.816Zm-.153,0v-.816h.153v.816Zm.971-.03V374.8l1.547.031h0a2.726,2.726,0,0,1,.03.7l-1.577.031ZM64.391,377.19h.423v-1.3l-.423-.031v1.332Zm-.182,0h.182v-1.332h-.182v1.332Zm1.79-.03,1.031-.03v-1.209L66,375.889v1.271Zm-1.185-1.271H66v1.271l-1.185.03v-1.3Zm2.216,1.241v-1.209l.82.03v1.18Zm1.488-.031h1.061l-.3-1.119-.758-.031V377.1Zm-.668-1.149v1.18l.668-.031V375.95Zm-15.294.091a9.355,9.355,0,0,0,.425.968h0l1.093.061a1.554,1.554,0,0,1,0-1.06h0l.06-.06h0l-1.577.091Zm17.57,1.029h.91v-1.06l-.91-.03v1.089Zm-.547-1.089h.547v1.089h-.213l-.334-1.089Zm2.458.152a3.74,3.74,0,0,0,.971.18h0a3.415,3.415,0,0,1,.455.7h0l.971-.03v-.908l-2.4-.061v.122Zm-.273-.122h.273v.122h0a1.115,1.115,0,0,1-.273-.122Zm-.728,0h.12c.062.242.335.394.85.454h.031v.575l-1,.031v-1.06Zm3.4.969v-.908l1.214.029v.878Zm1.214,0h.091c.3-.394.425-.273.487-.031H76.8v-.816l-1.153-.032v.878Zm2.125-.061h.789a1.332,1.332,0,0,0,.637-.755h0l-1.427-.031v.786Zm-.819-.786h.819v.786l-.819.03v-.816Zm-.153.816v-.817h.153v.817Zm-4.764.091v-.575h0a.435.435,0,0,1,.212.575Zm-17.417.06h.333l.031-.091s.213-.423,0-.453h0a.144.144,0,0,0-.036,0h0c-.215,0-.3.49-.327.548Zm10.194,1.453L66,378.523v-1.241l-1.185-.031v1.3Zm-.423,0v-1.3h.425v1.3Zm-.182,0h.182v-1.3h-.182v1.3Zm2.822-.06h.82v-1.181l-.82-.03v1.21ZM66,377.282H67.03v1.21L66,378.523v-1.241Zm2.519,1.179L70,378.431a.326.326,0,0,1-.091-.212h0l-.242-.877-1.153-.031v1.149Zm-.668-1.149h.668v1.149l-.668.032v-1.181Zm-14.6.092c.3.272.515.3.636.272h.3l.12.031c.061.121-.484.394-.393.484h0l.333.152.091.091.061.061.394.031a.986.986,0,0,1,0-.424h0l.243-.182c.213-.182,0-.363-.333-.151h0c.06-.153.152-.363.182-.455h0l-1.638.092Zm16.871.332.182.546a.505.505,0,0,0,.121.151h.607v-1.059l-.91-.03v.393ZM70,377.342h.122v.393L70,377.342Zm1.033,1.089v-1.059l1,.031v.18h0a3.456,3.456,0,0,1-.819.818l-.182.03Zm1-1.028v.18a.108.108,0,0,1,.029-.06h0c.032-.06.032-.089.062-.12h-.092Zm2.4.938h.517a1.323,1.323,0,0,0-.031-.152h0a2.913,2.913,0,0,0,.668-.726h0l-1.154-.029v.907Zm-.789-.907h.789v.907l-.547.031h0a4.479,4.479,0,0,0-.242-.937Zm2.581.211c0,.151.029.392.06.664H76.8v-.816l-.546-.031a1.143,1.143,0,0,1-.029.182Zm1.547-.152v.787h.455v-.031a1.919,1.919,0,0,1-.273-.756h-.182Zm-.819,0h.819v.787l-.819.029v-.816Zm-.153.816v-.816h.153v.816Zm-20.755.243v1.3l.728.029v-1.149a1.775,1.775,0,0,0-.65-.186h0a.541.541,0,0,0-.077,0Zm-.273.181a.479.479,0,0,1,.273-.181v1.3l-.455-.031h0c0-.121-.03-.211-.03-.333h0c-.546-.12-.88-.331-.971-.665l-.091-.151.334-.031h0a.581.581,0,0,0,.668.393h0c.09-.029.272-.06.272-.3Zm9.042,1.21L66,379.913v-1.27l-1.185-.031v1.332Zm-.423,0v-1.332h.425v1.332Zm-.182-1.332v1.363l.182-.031v-1.332Zm2.822,1.27h.82v-1.209l-.82-.031v1.24ZM66,378.643H67.03v1.24l-1.031.03v-1.27Zm2.519,1.211,1.608-.031V378.7l-1.608-.031v1.18Zm-.668-1.18h.668v1.18l-.668.029v-1.209Zm2.276.031h.03a1.825,1.825,0,0,0,.607.574h0a.66.66,0,0,1,.273-.242v.787h-.91V378.7Zm-13.352,1.179v-1.149h0a.875.875,0,0,0,.273.061h0c.153-.061.3-.091.334,0h0c.03.181.334.423.819.6v.544l-1.426-.061Zm17.661-.3a.777.777,0,0,0,.394-.3h0a3.411,3.411,0,0,0,.092-.454h0l-.486-.029v.787Zm-.454-.787h.454v.787h0a.616.616,0,0,1-.334.09h0c-.031-.333-.091-.606-.12-.877Zm2.548.907.273-.029v-.818l-.455-.03c.061.3.122.606.182.877Zm1.245-.514a.47.47,0,0,0,.425-.3h0l-.425-.03v.333Zm-.394-.333h.394v.333h0c-.152.031-.274,0-.3-.06h0a.707.707,0,0,1-.09-.273Zm-.425,0v.217a.86.86,0,0,1,.029-.187h0v-.03Zm-.153,0h.153v.217h0a1.014,1.014,0,0,0,0,.121v.48H76.8v-.818Zm-5.765.181v.787l.182-.029a1.13,1.13,0,0,0,.06-.7h0a.165.165,0,0,0-.145-.079h0a.324.324,0,0,0-.1.018Zm5.917.035v0Zm0,.6h.091a2.012,2.012,0,0,1-.091-.48h0v.48Zm-18.754.272.4.031v-.455a1.563,1.563,0,0,1-.4-.121h0v.544Zm.4.031v-.455h0a.11.11,0,0,0,.091.031h0a1.863,1.863,0,0,0,.942,1.24v.455l-1.033-.032v-1.239h0Zm5.8.574v-.574l.423.03v.423h0a1.3,1.3,0,0,1-.423.121Zm-.182-.574v.574a.2.2,0,0,0,.182,0h0v-.574ZM58.2,380l.4-.03v1.239h-.4V380Zm7.8.454a1.179,1.179,0,0,1,.3.241h0a1.378,1.378,0,0,0,.242,1.572h0a2.238,2.238,0,0,1,.213,1.3h0c-.182.363-.365.636-.243.879h0a3.675,3.675,0,0,1,.273.938h.242v-1.27l-.455-.031h.455v-1.422h0v-1.3l-.819-.029.819-.031v-1.271L66,380v.454ZM64.814,380v.423c.182-.092.365-.181.365-.181h0a.922.922,0,0,1,.82.212h0V380Zm-8.041.06v1.089l1.426.06V380l-1.426.06Zm10.256,1.241v-1.271l.82.031v1.241Zm1.488-.03,1.608-.03V380.1l-1.608-.03v1.21Zm-.668-1.21v1.241l.668-.03v-1.21Zm-11.8.03.728-.03v1.089l-.728-.03V380.1Zm14.08,1.15V380.1l.91.029v.031h0a7.833,7.833,0,0,1-.76,1.09ZM55.408,380.1a3.372,3.372,0,0,0-.273.968h0l.911.06V380.1Zm15.628.029v.031l.031-.031Zm5.917.092v.514a.233.233,0,0,0,.12.06h0c.182-.031.153-.241.092-.574h-.212Zm-.153,0h.153v.514h0a1.255,1.255,0,0,1-.153-.212v-.3Zm-.121,0c.031.12.092.212.121.3h0v-.3Zm-.516,0a.215.215,0,0,0,.032.12h0c0,.031.12.364.243.727H76.8v-.273c-.091-.212-.212-.423-.273-.574h-.364Zm2.064.03-.031.12c-.09.182-.273.152-.425.243h0v.424h.7v-.092a1.166,1.166,0,0,1,.06-.7h-.3Zm-.668.7a.408.408,0,0,1,.213-.333v.424H77.56v-.092Zm-.758.121v-.273h0a1.107,1.107,0,0,1,.122.273Zm-17.174.182,1.122.06-1.122.031v1.27l1.183.06v-1.483c-.092-.029-.213-.06-.3-.089h0a2.746,2.746,0,0,1-.879-.3h0v.455Zm1.183,1.421v-1.483h0a.725.725,0,0,1,.273,1.241h0a1,1,0,0,0-.182.242h0c-.061.152-.031.333.06.756h0a.964.964,0,0,1-.151.847v-1.6h0Zm-2.216-1.3,1.033-.029v1.27l-1.033-.031v-1.211Zm9.255,1.27.668-.029V381.4l-.668-.031v1.27Zm-.82-1.27h.82v1.27l-.82.031v-1.3ZM58.2,381.4v1.18h.4v-1.211l-.4.031Zm10.319,1.21V381.4l1.608.029h0a1.843,1.843,0,0,0-.455,1.059h0c0,.032.031.062.031.092l-1.183.031Zm-11.744-1.15,1.426-.06v1.18l-1.426-.06v-1.06Zm13.352-.031h0Zm-14.08.031v1.028l.728.032v-1.06Zm-.911.031.911-.031v1.028l-.425-.029h0a1.849,1.849,0,0,1-.486-.968Zm22.485.212a.309.309,0,0,0,.152.181h0v-.272l-.182-.031a.227.227,0,0,1,.031.121Zm-.667-.121v.334a.438.438,0,0,0,.12-.334h-.12Zm-.153,0h.153v.334h0a.143.143,0,0,1-.153,0v-.334Zm-.212,0,.06.212a.2.2,0,0,0,.152.122h0v-.334Zm1.183.031H78.2a.765.765,0,0,1-.121.181h0a.306.306,0,0,1-.3.091v-.272Zm-.819.423v.241a.628.628,0,0,0,.273.092h.546v-.181l-.244-.091a3.256,3.256,0,0,0-.515-.061h-.06Zm-.061.212c-.092-.091-.031-.183.061-.212v.241h0a.1.1,0,0,0-.061-.029Zm.88.121v-.181l.363.181ZM67.03,384.088v-1.422l.82.029v1.363l-.82.029Zm-7.4-1.362,1.183-.06v1.393L59.628,384v-1.27Zm8.891,1.3,1.3-.032a2.363,2.363,0,0,0-.092-1.27h0l-1.212-.031v1.333ZM67.85,382.7v1.363l.668-.031V382.7Zm-9.255.062v1.209l1.033.03v-1.27l-1.033.032Zm-.4.029.4-.029v1.209l-.4-.031v-1.149Zm-1.426.031v.545c.122.06.243.121.4.211h0l.03.334,1,.029v-1.149l-1.426.031Zm-.728.029.728-.029v.545h0a4.367,4.367,0,0,1-.728-.484v-.031Zm-.029,0a.029.029,0,0,0,.029.031h0v-.031Zm23.243.121-.334.7a.511.511,0,0,0-.181-.423h0c.06-.092.12-.181.181-.273h-.334l-.3.213c-.242.12-.4.212-.516.272h0v.3l1.577-.061v-.121a1.37,1.37,0,0,0,.092-.6h-.182Zm-1.73.787a.783.783,0,0,1,.244-.3v.3Zm-17.9.364v1.27l.423.03-.423.03v.605c.09-.03.15-.06.242-.09h0c.213-.152.273-.635.242-.939h0c-.061-.423.394-.454.607-.635h0c.031-.031.061-.091.092-.121h0v-.21l-1.183.06Zm8.223,1.24.668-.029v-1.181l-.668-.029v1.24Zm-.82-1.24h.82v1.24l-.82.031v-1.27Zm-8.436.029,1.033-.029v1.27l-1.033-.06v-1.181Zm9.924,1.181v-1.181l1.243.031h0a.977.977,0,0,1-.577.515l-.061.543h0a.112.112,0,0,0-.031.092ZM58.2,384.179v1.15h.4v-1.181l-.4.031Zm12.2,0a1.364,1.364,0,0,0-.091.152h0a.79.79,0,0,0-.182.241h0v.727h.333a7.394,7.394,0,0,1,.335-.938h0s.03-.091.06-.181H70.4Zm-13.139.03.94-.03v1.15l-.819-.061h0a4.694,4.694,0,0,1-.092-.666l-.029-.393Zm19.694.878h.819v-.727l-.819-.029v.756Zm-.153-.635a.579.579,0,0,0,.153-.121v.756H76.8v-.635Zm.971.635v-.727l1.669.031h0a.6.6,0,0,0-.03.242h0a1.981,1.981,0,0,1-.183.393l-1.456.061Zm-1.335.031.363-.031v-.635a1.968,1.968,0,0,0-.363.666Zm-6.554.181a2.229,2.229,0,0,1,.242-.727v.727ZM67.03,386.69v-1.3l.82.03v1.33l-.76.032h0c-.029-.032-.06-.062-.06-.092Zm0-1.3v1.3h0a4.712,4.712,0,0,1-.242-1.3Zm.82,1.361h.363a2.854,2.854,0,0,0,.3-.3h0v-1l-.668-.03v1.33Zm.668-.3v-1l.515.03h0a2.722,2.722,0,0,1-.515.968Zm-9.924-.936,1.033-.062v.605h0c-.487.333-.637.847-.153,1.542h0c0,.334-.273.364-.758.152h0a.407.407,0,0,1-.122-.089v-.877l.517-.032-.517-.03v-1.208Zm11.532.392c.06,0,.09-.03.15-.12h0a1.353,1.353,0,0,0,.092-.272h0l-.242-.032v.423Zm-.242-.423h.242v.423h0c-.06.032-.122-.06-.153-.09h0a1.78,1.78,0,0,1-.089-.333Zm-11.684.032v1.178l.4.03v-1.208Zm-.788.029.788-.029v1.178l-.393-.03h0a5.36,5.36,0,0,1-.4-1.118Zm18.965.332a.723.723,0,0,1-.181.242h0c-.061.181.151.152.273.061h0c.06-.031.182-.122.333-.212h0v-.273l-.394-.03c0,.092-.031.152-.031.212Zm.578-.181v.212c.12-.06.242-.15.394-.212h-.394Zm-.153,0h.153v.212h0c-.061.032-.092.061-.153.061v-.273Zm.971.212h.061s-.031.212-.061.363h0c0,.06.061.092.152.121h0a1.248,1.248,0,0,0,.486-.273h0c.121-.12.242-.272.334-.362h0l-.971-.031v.181Zm-.182-.181h.182v.181h0c-.091,0-.152-.09-.182-.181Zm-10.347,1.27a1.028,1.028,0,0,0,.607-.031h0v-.151l-.76-.029s.062.18.153.21Zm-9.044-.181v.454a1.68,1.68,0,0,0,.4.394h0v-.877l-.4.029Zm9.651,0h.242a1.04,1.04,0,0,1-.242.151v-.151Zm-9.953.031.3-.031v.454h0A2.231,2.231,0,0,1,57.9,386.842Z" transform="translate(-47.277 -351.266)"/></g></svg>