<svg xmlns="http://www.w3.org/2000/svg" xmlns:xlink="http://www.w3.org/1999/xlink" width="207.516" height="31.346" viewBox="0 0 207.516 31.346"><defs><style>.a{fill:none;}.b{clip-path:url(#a);}.c,.d{fill:#1a1818;}.c,.e,.g{fill-rule:evenodd;}.e,.f{fill:#505153;}.g{fill:#ffe900;}</style><clipPath id="a"><rect class="a" width="207.516" height="31.346"/></clipPath></defs><g class="b" transform="translate(0)"><path class="c" d="M451.832,303.659v9.984h-2.963v-4.824c-3.5,2.087-8.3.2-8.3-4.935,0-3.3,2-5.789,5.61-5.789,3.657,0,5.655,2.31,5.655,5.564Zm-8.3.225h0c0,3.208,3.321,3.971,5.34,2v-2.334a2.465,2.465,0,0,0-2.692-2.759C444.382,300.787,443.529,302.111,443.529,303.884Z" transform="translate(-331.427 -282.297)"/><path class="c" d="M500.373,305.2c0,3.656-2.2,5.2-5.3,5.2-3.074,0-5.295-1.549-5.295-5.2v-6.126h2.984v6.193c0,1.481.651,2.4,2.311,2.4,1.682,0,2.334-.919,2.334-2.4v-6.193h2.962Z" transform="translate(-367.143 -283.008)"/><path class="c" d="M543.756,309.5v-1.077a4.682,4.682,0,0,1-3.5,1.346c-2.557,0-4.644-1.8-4.644-5.251,0-6.394,6.686-7.4,11.128-5.385V309.5Zm0-8.3h0c-3.478-1.145-5.183,1.031-5.183,3.186,0,1.616.785,2.8,2.356,2.8a3.6,3.6,0,0,0,2.827-1.863Z" transform="translate(-400.402 -282.372)"/><path class="c" d="M592.409,301.055a9.022,9.022,0,0,0-4.375.987v7.381h-2.939v-9.311a13.971,13.971,0,0,1,7.315-2.019Z" transform="translate(-436.312 -282.296)"/><path class="c" d="M623.751,290.943v2.513h-3.388V297.9c0,1.929,2.042,1.861,3.68,1.524v2.536c-3.5.9-6.642-.046-6.642-3.724V287.869h3.006v3.074Z" transform="translate(-459.757 -274.876)"/><path class="c" d="M652.146,307.533h5.52v2.6h-9.423v-2.4l5.249-6.057H648.4v-2.6h9.131v2.558Z" transform="translate(-482.14 -283.007)"/><path class="c" d="M698.8,303.9a5.733,5.733,0,1,1-5.744-5.811A5.493,5.493,0,0,1,698.8,303.9Zm-8.5,0h0c0,1.751.919,3.074,2.759,3.074s2.782-1.323,2.782-3.074-.941-3.118-2.782-3.118S690.3,302.154,690.3,303.9Z" transform="translate(-510.509 -282.295)"/><rect class="d" width="2.962" height="15.369" transform="translate(190.13 11.76)"/><path class="c" d="M756.46,282.915a1.695,1.695,0,1,1,1.728-1.684,1.646,1.646,0,0,1-1.728,1.684Zm-1.479,1.974h2.961V295.95H754.98Z" transform="translate(-559.421 -268.821)"/><path class="c" d="M781.361,290.943v2.513h-3.389V297.9c0,1.929,2.043,1.861,3.681,1.524v2.536c-3.5.9-6.642-.046-6.642-3.724V287.869h3.006v3.074Z" transform="translate(-574.137 -274.876)"/><path class="e" d="M295.119,322.286h-1.327v-.792h3.417v.792h-1.25v4.127h-.841Z" transform="translate(-224.911 -299.277)"/><rect class="f" width="1.725" height="0.814" transform="translate(72.048 24.62)"/><path class="e" d="M316.072,323.64h3.039v.1a2.468,2.468,0,1,1-2.441-2.592,2.367,2.367,0,0,1,2.21,1.546h-1.011a1.393,1.393,0,0,0-1.221-.715,1.662,1.662,0,0,0-1.623,1.715,1.644,1.644,0,0,0,1.668,1.7,1.468,1.468,0,0,0,1.353-.938h-1.974Z" transform="translate(-239.706 -299.025)"/><path class="e" d="M354.773,322.287h.58c.531,0,.7.233.7.552,0,.516-.56.516-.777.516h-.5v-1.069Zm-.838,4.128h1.447a1.984,1.984,0,0,0,1.22-.317,1.382,1.382,0,0,0,.568-1.15,1.159,1.159,0,0,0-.787-1.225,1,1,0,0,0,.512-.945,1.271,1.271,0,0,0-.386-.905,1.989,1.989,0,0,0-1.469-.376h-1.1v4.919Zm.838-2.268h.693a.715.715,0,0,1,.809.768c0,.492-.456.629-.832.629h-.671Z" transform="translate(-268.557 -299.279)"/><rect class="f" width="0.893" height="4.921" transform="translate(93.498 22.216)"/><path class="e" d="M336.057,325.39a1.681,1.681,0,0,1-1.673-1.706,1.7,1.7,0,0,1,1.673-1.7,1.748,1.748,0,0,1,1.738,1.7,1.725,1.725,0,0,1-1.738,1.706Zm0-4.244h0a2.556,2.556,0,1,0,2.57,2.539A2.528,2.528,0,0,0,336.057,321.146Z" transform="translate(-253.719 -299.025)"/><path class="e" d="M367.848,322.753h-.015l-.642,1.6h1.252l-.595-1.6Zm-2.294,3.657h0l1.944-4.92h.671l1.909,4.92h-.887l-.455-1.252H366.9l-.467,1.252Z" transform="translate(-276.989 -299.274)"/><path class="e" d="M389.836,321.489h.863l2.039,3.218v-3.218h.846v4.919h-.8l-2.1-3.393v3.393h-.849Z" transform="translate(-294.611 -299.274)"/><path class="e" d="M243.66,324.746a.775.775,0,0,0,.8.643.677.677,0,0,0,.708-.608c0-.49-.381-.65-.958-.881-.42-.145-1.234-.335-1.234-1.344a1.426,1.426,0,0,1,1.5-1.413,1.444,1.444,0,0,1,1.434,1.413h-.843a.583.583,0,0,0-.618-.58c-.264,0-.614.2-.614.491,0,.45.433.578.907.742a1.534,1.534,0,0,1-.286,3.048,1.606,1.606,0,0,1-1.644-1.512Z" transform="translate(-187.914 -299.023)"/><rect class="f" width="0.856" height="4.918" transform="translate(62.993 22.216)"/><path class="e" d="M256.5,322.756h-.011l-.611,1.6H257.1l-.6-1.6Zm-2.3,3.657h0l1.971-4.917h.652l1.919,4.917h-.89l-.467-1.253H255.56l-.479,1.253Z" transform="translate(-196.175 -299.279)"/><path class="e" d="M278.524,321.489h.851l2.049,3.215v-3.215h.844v4.919h-.8l-2.11-3.4v3.4h-.836Z" transform="translate(-213.83 -299.274)"/><rect class="f" width="99.923" height="0.695" transform="translate(0.913 28.897)"/><path class="c" d="M45.992,240.5v9.672a6.862,6.862,0,0,1,7.945-.438l6.041-8.064,5.406,3.617V240.5Z" transform="translate(-45.079 -240.498)"/><path class="g" d="M78.242,258.638a6.846,6.846,0,0,1-1.942,4.784H88.09l-7.015-18.66-6.011,8.083A6.863,6.863,0,0,1,78.242,258.638Z" transform="translate(-66.177 -243.593)"/><path class="c" d="M52.719,313.043a6.865,6.865,0,0,1-9.032.606c-.649.223-1.024.486-1.024.765,0,.823,3.228,1.491,7.21,1.491s7.208-.668,7.208-1.491C57.082,313.8,55.285,313.272,52.719,313.043Z" transform="translate(-42.664 -293.145)"/><path class="c" d="M126.451,275.166l-2.71-8.333-2.681,8.333h-3.4l-5.305-14.214h4.354l2.74,8.448,2.738-8.448H125.3l2.681,8.448,2.8-8.448h4.353l-5.276,14.214Z" transform="translate(-93.238 -255.342)"/><path class="c" d="M207.008,268.483h-10.58a3.611,3.611,0,0,0,3.689,2.768c1.384,0,2.394-.375,2.855-1.153h3.949c-.519,2.94-3.287,4.5-6.659,4.5-4.613,0-7.871-3-7.871-7.581a7.1,7.1,0,0,1,7.294-7.325c4.843,0,7.726,3.46,7.323,8.794Zm-3.863-2.911h0a3.143,3.143,0,0,0-3.316-2.942,3.406,3.406,0,0,0-3.518,2.942Z" transform="translate(-151.323 -254.425)"/><path class="c" d="M254.686,246.886c4.5-2.6,11.272-.635,11.272,6.344a7.144,7.144,0,0,1-7.554,7.438c-4.641,0-7.525-3.086-7.525-7.324V240.5h3.807v6.388Zm0,6.6h0a3.431,3.431,0,0,0,3.719,3.691,3.651,3.651,0,0,0,3.719-3.95c0-4.153-4.7-5.018-7.438-2.566Z" transform="translate(-193.768 -240.498)"/><path class="c" d="M324.906,268.483H314.324a3.611,3.611,0,0,0,3.689,2.768c1.385,0,2.393-.375,2.855-1.153h3.949c-.518,2.94-3.287,4.5-6.659,4.5-4.613,0-7.871-3-7.871-7.581a7.1,7.1,0,0,1,7.294-7.325c4.844,0,7.727,3.46,7.324,8.794Zm-3.864-2.911h0a3.143,3.143,0,0,0-3.316-2.942,3.406,3.406,0,0,0-3.517,2.942Z" transform="translate(-236.882 -254.425)"/><path class="c" d="M378.636,263.5a11.6,11.6,0,0,0-5.622,1.269v9.485h-3.777V262.287a17.967,17.967,0,0,1,9.4-2.6Z" transform="translate(-279.661 -254.427)"/><path class="c" d="M447.318,262.7c0,2.813-2.64,3.657-4.55,2.408v2.627H441.68v-5.187a2.663,2.663,0,0,1,2.859-2.836,2.721,2.721,0,0,1,2.779,2.988Zm-4.55-.185h0v1.47c1.263,1.252,3.473.87,3.473-1.284,0-1.181-.637-2-1.7-2A1.65,1.65,0,0,0,442.768,262.517Z" transform="translate(-332.235 -254.444)"/><path class="c" d="M469.868,260.794a4.427,4.427,0,0,0-2.374.624v4.144h-1.075v-4.849a6.346,6.346,0,0,1,3.449-1Z" transform="translate(-350.188 -254.445)"/><path class="c" d="M486.3,262.713a2.936,2.936,0,1,1-2.94-3,2.821,2.821,0,0,1,2.94,3Zm-4.793,0h0a1.863,1.863,0,1,0,3.716,0,1.864,1.864,0,1,0-3.716,0Z" transform="translate(-360.357 -254.444)"/><path class="c" d="M510.093,257.328a2.613,2.613,0,0,1-2.78,2.86,2.763,2.763,0,0,1-2.858-2.988c0-2.813,2.64-3.656,4.561-2.408V252.12h1.077v5.208Zm-1.077-1.4h0c-1.272-1.25-3.484-.88-3.484,1.273a1.786,1.786,0,0,0,1.782,2,1.618,1.618,0,0,0,1.7-1.84Z" transform="translate(-377.791 -248.933)"/><path class="c" d="M535.78,263.453a2.64,2.64,0,0,1-5.279,0v-3.229h1.088v3.253a1.552,1.552,0,1,0,3.1,0v-3.253h1.089Z" transform="translate(-396.693 -254.813)"/><path class="c" d="M557.737,256.026v.925h-1.887v2.94c0,.973.914,1.182,1.956.893v.936c-1.69.451-3.033-.1-3.033-1.713V254.44h1.089v1.586Z" transform="translate(-414.308 -250.616)"/><path class="c" d="M573.729,262.713a2.936,2.936,0,1,1-2.94-3,2.82,2.82,0,0,1,2.94,3Zm-4.793,0h0a1.863,1.863,0,1,0,3.716,0,1.864,1.864,0,1,0-3.716,0Z" transform="translate(-423.804 -254.444)"/><path class="c" d="M597.029,261.313h-1.135c-.116-.417-.533-.706-1.227-.706-.764,0-1.31.278-1.31.821,0,1.136,3.8.441,3.8,2.513,0,1.169-1.111,1.759-2.523,1.759-1.505,0-2.351-.613-2.5-1.633h1.076c.128.475.626.741,1.412.741.858,0,1.425-.311,1.425-.832,0-1.112-3.786-.429-3.786-2.512,0-1.147,1.054-1.749,2.419-1.749C596.16,259.715,596.9,260.317,597.029,261.313Z" transform="translate(-441.419 -254.444)"/></g></svg>