<svg xmlns="http://www.w3.org/2000/svg" xmlns:xlink="http://www.w3.org/1999/xlink" width="102.229" height="44.577" viewBox="0 0 102.229 44.577"><defs><style>.a{fill:none;}.b{clip-path:url(#a);}.c{fill:#535353;}.d{fill:#ccc;}</style><clipPath id="a"><rect class="a" width="102.229" height="44.577"/></clipPath></defs><g class="b" transform="translate(0 0)"><g transform="translate(0 28.328)"><path d="M96.275,408.042l6.515,15.827H98.97l-1.747-4.718H91.082l-1.9,4.718H86.139L93.7,408.042Zm.225,9.236h0l-2.222-5.991-2.421,5.991Z" transform="translate(-86.139 -407.918)"/><path d="M151.239,407.675c1.623,0,4.269-.124,5.891-.124,1.8,0,3.446.124,4.643,1.023A3.088,3.088,0,0,1,163,411.019c0,2.172-1.972,3.045-2.647,3.344a4.4,4.4,0,0,1,2.9,1.75,4.261,4.261,0,0,1,.773,2.521,4.515,4.515,0,0,1-1.947,3.694,8.511,8.511,0,0,1-4.667,1.174h-6.166V407.675Zm3.419,6.389h1.174c1.673,0,3.545,0,3.545-2.42,0-1.2-.475-2.248-2.571-2.248-.5,0-1.174.025-2.148.025v4.643Zm0,7.539h0c2.372.025,3.321.025,4.07-.248a2.464,2.464,0,0,0,1.672-2.547c0-2.847-2.346-2.921-4.543-2.921h-1.2Z" transform="translate(-134.827 -407.551)"/></g><path d="M209.58,423.5h-3.469V407.675c.723,0,5.342-.124,5.867-.124,2.721,0,4.169.172,5.441,1.248a3.919,3.919,0,0,1,1.423,3.144c0,1.872-1.1,3.5-3.719,4.244,1.448,3.1,2.971,5.044,3.944,5.591a4.075,4.075,0,0,1,1.125.966c-.025.1.484.716.409.766a5.468,5.468,0,0,1-1.883.291c-3.371,0-4.868-2.471-7.04-6.989a12.147,12.147,0,0,1-2.1.025V423.5Zm0-8.463h0a15.791,15.791,0,0,0,3.3-.076,2.589,2.589,0,0,0,2.322-2.845c0-1.648-.849-2.646-3.569-2.646H209.58Z" transform="translate(-175.865 -379.223)"/><path d="M261.682,408.042l6.515,15.827h-3.819l-1.747-4.718H256.49l-1.9,4.718h-3.044l7.563-15.827Zm.225,9.236h0l-2.222-5.991-2.422,5.991Z" transform="translate(-209.847 -379.59)"/><path d="M319.849,408.042l5.714,9.17,5.6-9.17h3.17l.575,15.827h-3.346l-.375-11.184-4.554,9.048-2.441-.025-5.2-9.159-.787,11.321h-2.547l1.074-15.827Z" transform="translate(-257.792 -379.59)"/><path d="M397.011,408.042l6.516,15.827h-3.82l-1.747-4.718h-6.141l-1.9,4.718h-3.045l7.564-15.827Zm.225,9.236h0l-2.222-5.991-2.422,5.991Z" transform="translate(-311.058 -379.59)"/><path d="M452.927,408.042v2.1h-4.868v13.73h-3.5v-13.73h-4.685v-2.1Z" transform="translate(-350.698 -379.59)"/><path class="c" d="M338.478,295.3,316.63,316.1a15.817,15.817,0,0,1-.212-2.548c0-10.142,9.732-18.366,21.735-18.366h.651c12,0,21.736,8.224,21.736,18.366a15.68,15.68,0,0,1-.214,2.548Z" transform="translate(-258.363 -295.188)"/><path class="d" d="M379.509,347.222a7.8,7.8,0,0,0-7.794,7.8H387.3A7.8,7.8,0,0,0,379.509,347.222Z" transform="translate(-299.719 -334.104)"/></g></svg>