<svg xmlns="http://www.w3.org/2000/svg" xmlns:xlink="http://www.w3.org/1999/xlink" width="116.221" height="34.558" viewBox="0 0 116.221 34.558"><defs><style>.a{fill:none;}.b{clip-path:url(#a);}.c{fill:#030504;fill-rule:evenodd;}</style><clipPath id="a"><rect class="a" width="116.221" height="34.557"/></clipPath></defs><g class="b" transform="translate(0 0)"><path class="c" d="M434.231,383.3l1.26-3.281h.467L437.3,383.3h-.5l-.383-.994h-1.372l-.36.994Zm.947-1.347h1.113l-.343-.908c-.1-.276-.182-.5-.232-.681a4.167,4.167,0,0,1-.177.627l-.36.962Zm2.259.638.4-.063a.556.556,0,0,0,.187.367.65.65,0,0,0,.429.128.633.633,0,0,0,.412-.113.34.34,0,0,0,.134-.265.245.245,0,0,0-.119-.215,1.741,1.741,0,0,0-.412-.136,3.736,3.736,0,0,1-.614-.194.586.586,0,0,1-.348-.545.605.605,0,0,1,.073-.294.642.642,0,0,1,.2-.225.841.841,0,0,1,.256-.118,1.22,1.22,0,0,1,.348-.048,1.379,1.379,0,0,1,.491.081.667.667,0,0,1,.312.218.856.856,0,0,1,.138.368l-.394.054a.433.433,0,0,0-.156-.286.567.567,0,0,0-.364-.1.657.657,0,0,0-.4.092.267.267,0,0,0-.119.215.224.224,0,0,0,.05.141.359.359,0,0,0,.154.108c.041.014.159.049.356.1a4.87,4.87,0,0,1,.6.187.6.6,0,0,1,.266.211.59.59,0,0,1,.1.345.682.682,0,0,1-.117.38.766.766,0,0,1-.339.275,1.236,1.236,0,0,1-.5.1,1.118,1.118,0,0,1-.706-.192.893.893,0,0,1-.31-.571Zm2.292,0,.4-.063a.557.557,0,0,0,.187.367.649.649,0,0,0,.428.128.632.632,0,0,0,.412-.113.34.34,0,0,0,.134-.265.245.245,0,0,0-.119-.215,1.739,1.739,0,0,0-.412-.136,3.736,3.736,0,0,1-.614-.194.587.587,0,0,1-.348-.545.606.606,0,0,1,.073-.294.644.644,0,0,1,.2-.225.838.838,0,0,1,.256-.118,1.22,1.22,0,0,1,.348-.048,1.379,1.379,0,0,1,.491.081.667.667,0,0,1,.312.218.857.857,0,0,1,.138.368l-.393.054a.434.434,0,0,0-.156-.286.566.566,0,0,0-.364-.1.658.658,0,0,0-.4.092.267.267,0,0,0-.119.215.222.222,0,0,0,.05.141.357.357,0,0,0,.154.108c.04.014.159.049.356.1a4.863,4.863,0,0,1,.6.187.6.6,0,0,1,.266.211.589.589,0,0,1,.1.345.681.681,0,0,1-.118.38.763.763,0,0,1-.339.275,1.235,1.235,0,0,1-.5.1,1.119,1.119,0,0,1-.707-.192.893.893,0,0,1-.309-.571Zm2.3-.479a1.223,1.223,0,0,1,.367-.978,1.106,1.106,0,0,1,.747-.264,1.064,1.064,0,0,1,.8.322,1.219,1.219,0,0,1,.311.887,1.575,1.575,0,0,1-.137.722.975.975,0,0,1-.4.409,1.167,1.167,0,0,1-.574.145,1.066,1.066,0,0,1-.806-.32,1.275,1.275,0,0,1-.308-.922Zm.414,0a1.01,1.01,0,0,0,.2.684.663.663,0,0,0,1,0,1.04,1.04,0,0,0,.2-.7.982.982,0,0,0-.2-.668.664.664,0,0,0-1,0,1,1,0,0,0-.2.682Zm3.836.318.4.052a1.022,1.022,0,0,1-.332.641.968.968,0,0,1-.657.231,1.019,1.019,0,0,1-.784-.318,1.293,1.293,0,0,1-.3-.914,1.657,1.657,0,0,1,.128-.674.89.89,0,0,1,.389-.433,1.149,1.149,0,0,1,.567-.144.986.986,0,0,1,.633.2.9.9,0,0,1,.316.556l-.392.06a.652.652,0,0,0-.2-.361.514.514,0,0,0-.344-.121.625.625,0,0,0-.5.218,1.034,1.034,0,0,0-.19.69,1.069,1.069,0,0,0,.184.7.6.6,0,0,0,.479.217.564.564,0,0,0,.4-.146.718.718,0,0,0,.2-.448Zm.742-1.946v-.463h.4v.463Zm0,2.817v-2.376h.4V383.3Zm2.567-.293a1.524,1.524,0,0,1-.431.269,1.254,1.254,0,0,1-.444.078.865.865,0,0,1-.6-.191.633.633,0,0,1-.21-.489.663.663,0,0,1,.287-.551.98.98,0,0,1,.29-.132,2.821,2.821,0,0,1,.357-.06,3.649,3.649,0,0,0,.719-.139c0-.055,0-.09,0-.1a.443.443,0,0,0-.114-.347.669.669,0,0,0-.458-.137.714.714,0,0,0-.42.1.611.611,0,0,0-.2.353l-.394-.054a.979.979,0,0,1,.177-.408.769.769,0,0,1,.356-.24,1.588,1.588,0,0,1,.539-.084,1.431,1.431,0,0,1,.494.072.66.66,0,0,1,.28.18.644.644,0,0,1,.125.274,2.325,2.325,0,0,1,.02.371v.537a5.593,5.593,0,0,0,.026.71.9.9,0,0,0,.1.286h-.421a.848.848,0,0,1-.08-.293Zm-.034-.9a2.933,2.933,0,0,1-.658.153,1.514,1.514,0,0,0-.351.08.352.352,0,0,0-.093.591.527.527,0,0,0,.357.107.829.829,0,0,0,.414-.1.628.628,0,0,0,.267-.279.971.971,0,0,0,.065-.4v-.148Zm2.583.322.4.052a1.023,1.023,0,0,1-.332.641.968.968,0,0,1-.657.231,1.019,1.019,0,0,1-.784-.318,1.293,1.293,0,0,1-.3-.914,1.661,1.661,0,0,1,.128-.674.89.89,0,0,1,.389-.433,1.149,1.149,0,0,1,.567-.144.986.986,0,0,1,.633.2.9.9,0,0,1,.316.556l-.392.06a.654.654,0,0,0-.2-.361.515.515,0,0,0-.344-.121.625.625,0,0,0-.5.218,1.034,1.034,0,0,0-.19.69,1.07,1.07,0,0,0,.184.7.6.6,0,0,0,.479.217.564.564,0,0,0,.4-.146.719.719,0,0,0,.2-.448Zm-.933,1.17.116-.4h.3l-.074.239a.477.477,0,0,1,.286.118.291.291,0,0,1,.1.211.373.373,0,0,1-.161.3.771.771,0,0,1-.486.128,1.686,1.686,0,0,1-.322-.027l.025-.262c.1.006.166.009.21.009a.547.547,0,0,0,.3-.058.132.132,0,0,0,.065-.11.105.105,0,0,0-.026-.071.2.2,0,0,0-.095-.054.906.906,0,0,0-.231-.024Zm3.225-.593a1.523,1.523,0,0,1-.431.269,1.254,1.254,0,0,1-.445.078.864.864,0,0,1-.6-.191.633.633,0,0,1-.21-.489.647.647,0,0,1,.079-.319.655.655,0,0,1,.208-.231.982.982,0,0,1,.29-.132,2.819,2.819,0,0,1,.357-.06,3.642,3.642,0,0,0,.719-.139c0-.055,0-.09,0-.1a.443.443,0,0,0-.115-.347.669.669,0,0,0-.458-.137.715.715,0,0,0-.42.1.613.613,0,0,0-.2.353l-.393-.054a.978.978,0,0,1,.177-.408.769.769,0,0,1,.356-.24,1.588,1.588,0,0,1,.539-.084,1.433,1.433,0,0,1,.494.072.661.661,0,0,1,.28.18.644.644,0,0,1,.125.274,2.34,2.34,0,0,1,.02.371v.537a5.6,5.6,0,0,0,.026.71.893.893,0,0,0,.1.286h-.421a.848.848,0,0,1-.08-.293Zm-.034-.9a2.933,2.933,0,0,1-.658.153,1.515,1.515,0,0,0-.351.08.352.352,0,0,0-.093.591.527.527,0,0,0,.357.107.829.829,0,0,0,.414-.1.63.63,0,0,0,.267-.279.969.969,0,0,0,.065-.4v-.148Zm-1.307-1.535a.513.513,0,0,1,.128-.372.422.422,0,0,1,.326-.138.908.908,0,0,1,.378.121.5.5,0,0,0,.211.067.145.145,0,0,0,.109-.039.285.285,0,0,0,.054-.156h.29a.556.556,0,0,1-.128.383.412.412,0,0,1-.31.127.845.845,0,0,1-.371-.125.557.557,0,0,0-.219-.081.155.155,0,0,0-.123.054.221.221,0,0,0-.047.159Zm2.188,1.539a1.223,1.223,0,0,1,.367-.978,1.106,1.106,0,0,1,.747-.264,1.064,1.064,0,0,1,.8.322,1.219,1.219,0,0,1,.311.887,1.573,1.573,0,0,1-.138.722.974.974,0,0,1-.4.409,1.167,1.167,0,0,1-.574.145,1.067,1.067,0,0,1-.807-.32,1.276,1.276,0,0,1-.308-.922Zm.414,0a1.011,1.011,0,0,0,.2.684.663.663,0,0,0,1,0,1.04,1.04,0,0,0,.2-.7.982.982,0,0,0-.2-.668.664.664,0,0,0-1,0,1.006,1.006,0,0,0-.2.682Zm3.592,1.188V380.02h1.231a1.534,1.534,0,0,1,.6.1.771.771,0,0,1,.356.307.809.809,0,0,1,.129.433.741.741,0,0,1-.115.4.815.815,0,0,1-.345.3.858.858,0,0,1,.458.3.8.8,0,0,1,.16.5.959.959,0,0,1-.1.428.831.831,0,0,1-.241.306,1,1,0,0,1-.359.162,2.176,2.176,0,0,1-.529.055Zm.435-1.9h.71a1.592,1.592,0,0,0,.414-.038.458.458,0,0,0,.249-.163.474.474,0,0,0,.084-.286.53.53,0,0,0-.078-.287.4.4,0,0,0-.224-.17,1.873,1.873,0,0,0-.5-.046h-.656v.991Zm0,1.515h.817a1.967,1.967,0,0,0,.3-.015.713.713,0,0,0,.251-.09.473.473,0,0,0,.166-.182.578.578,0,0,0,.065-.277.548.548,0,0,0-.094-.319.5.5,0,0,0-.261-.19,1.636,1.636,0,0,0-.48-.054h-.759v1.127Zm2.585.387v-2.376h.362v.36a.978.978,0,0,1,.257-.333.446.446,0,0,1,.258-.081.787.787,0,0,1,.414.13l-.139.374a.568.568,0,0,0-.295-.088.386.386,0,0,0-.237.079.431.431,0,0,0-.15.221,1.556,1.556,0,0,0-.067.47V383.3Zm3.081-.293a1.521,1.521,0,0,1-.431.269,1.254,1.254,0,0,1-.444.078.864.864,0,0,1-.6-.191.633.633,0,0,1-.21-.489.646.646,0,0,1,.08-.319.654.654,0,0,1,.208-.231.983.983,0,0,1,.29-.132,2.819,2.819,0,0,1,.357-.06,3.647,3.647,0,0,0,.719-.139c0-.055,0-.09,0-.1a.443.443,0,0,0-.115-.347.67.67,0,0,0-.458-.137.715.715,0,0,0-.42.1.612.612,0,0,0-.2.353l-.393-.054a.978.978,0,0,1,.176-.408.77.77,0,0,1,.356-.24,1.588,1.588,0,0,1,.539-.084,1.433,1.433,0,0,1,.494.072.66.66,0,0,1,.28.18.641.641,0,0,1,.125.274,2.313,2.313,0,0,1,.02.371v.537a5.588,5.588,0,0,0,.026.71.892.892,0,0,0,.1.286h-.421a.856.856,0,0,1-.08-.293Zm-.034-.9a2.933,2.933,0,0,1-.658.153,1.514,1.514,0,0,0-.351.08.352.352,0,0,0-.093.591.527.527,0,0,0,.357.107.828.828,0,0,0,.414-.1.628.628,0,0,0,.267-.279.968.968,0,0,0,.065-.4v-.148Zm.871.484.4-.063a.557.557,0,0,0,.187.367.65.65,0,0,0,.429.128.632.632,0,0,0,.412-.113.34.34,0,0,0,.134-.265.245.245,0,0,0-.119-.215,1.741,1.741,0,0,0-.412-.136,3.736,3.736,0,0,1-.614-.194.587.587,0,0,1-.348-.545.607.607,0,0,1,.073-.294.643.643,0,0,1,.2-.225.842.842,0,0,1,.256-.118,1.22,1.22,0,0,1,.348-.048,1.378,1.378,0,0,1,.491.081.668.668,0,0,1,.313.218.854.854,0,0,1,.138.368l-.393.054a.434.434,0,0,0-.156-.286.567.567,0,0,0-.364-.1.658.658,0,0,0-.4.092.267.267,0,0,0-.119.215.224.224,0,0,0,.05.141.358.358,0,0,0,.154.108q.061.022.356.1a4.876,4.876,0,0,1,.6.187.6.6,0,0,1,.266.211.589.589,0,0,1,.1.345.682.682,0,0,1-.118.38.765.765,0,0,1-.339.275,1.236,1.236,0,0,1-.5.1,1.119,1.119,0,0,1-.707-.192.892.892,0,0,1-.309-.571Zm2.454-2.108v-.463h.4v.463Zm0,2.817v-2.376h.4V383.3Zm1.008,0V380.02h.4V383.3Zm2.654-.765.416.051a1.02,1.02,0,0,1-.364.567,1.1,1.1,0,0,1-.681.2,1.087,1.087,0,0,1-.827-.321,1.253,1.253,0,0,1-.305-.9,1.314,1.314,0,0,1,.309-.931,1.046,1.046,0,0,1,.8-.332,1.014,1.014,0,0,1,.778.325,1.288,1.288,0,0,1,.3.913c0,.025,0,.06,0,.108h-1.772a.908.908,0,0,0,.222.6.658.658,0,0,0,.5.208.615.615,0,0,0,.378-.117.766.766,0,0,0,.248-.371Zm-1.322-.652h1.327a.8.8,0,0,0-.152-.449.618.618,0,0,0-.5-.233.641.641,0,0,0-.467.186.737.737,0,0,0-.209.5Zm2.246-1.4v-.463h.4v.463Zm0,2.817v-2.376h.4V383.3Zm1.012,0v-2.376h.362v.36a.979.979,0,0,1,.257-.333.447.447,0,0,1,.258-.081.788.788,0,0,1,.414.13l-.139.374a.568.568,0,0,0-.295-.088.385.385,0,0,0-.237.079.43.43,0,0,0-.15.221,1.556,1.556,0,0,0-.067.47V383.3Zm3.081-.293a1.523,1.523,0,0,1-.431.269,1.255,1.255,0,0,1-.445.078.864.864,0,0,1-.6-.191.633.633,0,0,1-.21-.489.645.645,0,0,1,.08-.319.652.652,0,0,1,.208-.231.983.983,0,0,1,.29-.132,2.819,2.819,0,0,1,.357-.06,3.646,3.646,0,0,0,.719-.139c0-.055,0-.09,0-.1a.443.443,0,0,0-.115-.347.67.67,0,0,0-.458-.137.715.715,0,0,0-.42.1.611.611,0,0,0-.2.353l-.393-.054a.977.977,0,0,1,.176-.408.769.769,0,0,1,.356-.24,1.588,1.588,0,0,1,.539-.084,1.433,1.433,0,0,1,.494.072.661.661,0,0,1,.28.18.639.639,0,0,1,.125.274,2.308,2.308,0,0,1,.02.371v.537a5.542,5.542,0,0,0,.026.71.9.9,0,0,0,.1.286h-.421a.852.852,0,0,1-.08-.293Zm-.034-.9a2.935,2.935,0,0,1-.658.153,1.516,1.516,0,0,0-.352.08.352.352,0,0,0-.093.591.527.527,0,0,0,.357.107.828.828,0,0,0,.414-.1.628.628,0,0,0,.267-.279.969.969,0,0,0,.065-.4v-.148Zm3.847,1.193V383a.738.738,0,0,1-.665.354.931.931,0,0,1-.522-.156,1.029,1.029,0,0,1-.37-.438,1.512,1.512,0,0,1-.131-.646,1.7,1.7,0,0,1,.118-.645.935.935,0,0,1,.356-.444.953.953,0,0,1,.531-.155.789.789,0,0,1,.382.091.8.8,0,0,1,.274.236V380.02h.4V383.3Zm-1.273-1.186a1.033,1.033,0,0,0,.192.683.581.581,0,0,0,.455.226.571.571,0,0,0,.448-.216,1,1,0,0,0,.185-.659,1.116,1.116,0,0,0-.188-.716.576.576,0,0,0-.464-.228.558.558,0,0,0-.448.219,1.082,1.082,0,0,0-.18.691Zm3.907.421.416.051a1.018,1.018,0,0,1-.364.567,1.1,1.1,0,0,1-.681.2,1.087,1.087,0,0,1-.827-.321,1.253,1.253,0,0,1-.305-.9,1.315,1.315,0,0,1,.309-.931,1.046,1.046,0,0,1,.8-.332,1.014,1.014,0,0,1,.778.325,1.287,1.287,0,0,1,.3.913c0,.025,0,.06,0,.108h-1.772a.909.909,0,0,0,.222.6.658.658,0,0,0,.5.208.615.615,0,0,0,.378-.117.765.765,0,0,0,.248-.371Zm-1.322-.652h1.327a.8.8,0,0,0-.152-.449.618.618,0,0,0-.5-.233.64.64,0,0,0-.466.186.735.735,0,0,0-.209.5Zm3.57,1.417V380.02h1.13a2.748,2.748,0,0,1,.584.047,1.109,1.109,0,0,1,.481.234,1.339,1.339,0,0,1,.388.561,2.186,2.186,0,0,1,.129.78,2.269,2.269,0,0,1-.088.662,1.589,1.589,0,0,1-.224.478,1.171,1.171,0,0,1-.3.3,1.214,1.214,0,0,1-.391.165,2.24,2.24,0,0,1-.527.056Zm.434-.387h.7a1.7,1.7,0,0,0,.51-.06.732.732,0,0,0,.294-.17,1.028,1.028,0,0,0,.241-.415,2.038,2.038,0,0,0,.086-.633,1.528,1.528,0,0,0-.169-.791.849.849,0,0,0-.411-.37,1.688,1.688,0,0,0-.561-.067h-.69v2.506Zm2.826-2.43v-.463h.4v.463Zm0,2.817v-2.376h.4V383.3Zm.855-.71.4-.063a.557.557,0,0,0,.187.367.65.65,0,0,0,.429.128.633.633,0,0,0,.412-.113.34.34,0,0,0,.134-.265.245.245,0,0,0-.119-.215,1.742,1.742,0,0,0-.412-.136,3.736,3.736,0,0,1-.614-.194.586.586,0,0,1-.348-.545.606.606,0,0,1,.073-.294.644.644,0,0,1,.2-.225.838.838,0,0,1,.256-.118,1.22,1.22,0,0,1,.348-.048,1.378,1.378,0,0,1,.491.081.668.668,0,0,1,.313.218.855.855,0,0,1,.138.368l-.393.054a.434.434,0,0,0-.156-.286.566.566,0,0,0-.364-.1.658.658,0,0,0-.4.092.267.267,0,0,0-.119.215.223.223,0,0,0,.05.141.358.358,0,0,0,.154.108q.061.022.356.1a4.863,4.863,0,0,1,.6.187.6.6,0,0,1,.266.211.589.589,0,0,1,.1.345.682.682,0,0,1-.117.38.765.765,0,0,1-.339.275,1.236,1.236,0,0,1-.5.1,1.118,1.118,0,0,1-.707-.192.893.893,0,0,1-.309-.571Zm3.332.349.058.356a1.5,1.5,0,0,1-.3.036.687.687,0,0,1-.341-.07.387.387,0,0,1-.17-.183,1.432,1.432,0,0,1-.05-.475v-1.367h-.3v-.313h.3v-.589l.4-.241v.83h.4v.313h-.4v1.389a.723.723,0,0,0,.02.222.172.172,0,0,0,.07.079.27.27,0,0,0,.137.029,1.282,1.282,0,0,0,.177-.016Zm.39.361v-2.376h.362v.36a.979.979,0,0,1,.257-.333.447.447,0,0,1,.258-.081.788.788,0,0,1,.414.13l-.139.374a.567.567,0,0,0-.295-.088.386.386,0,0,0-.238.079.432.432,0,0,0-.15.221,1.556,1.556,0,0,0-.067.47V383.3Zm1.532-2.817v-.463h.4v.463Zm0,2.817v-2.376h.4V383.3Zm1.388,0h-.374V380.02h.4v1.17a.8.8,0,0,1,.651-.32,1,1,0,0,1,.416.089.855.855,0,0,1,.322.248,1.2,1.2,0,0,1,.2.387,1.583,1.583,0,0,1,.072.483,1.357,1.357,0,0,1-.3.945.944.944,0,0,1-.725.333.756.756,0,0,1-.66-.351v.3Zm0-1.206a1.237,1.237,0,0,0,.116.617.576.576,0,0,0,.972.082,1.041,1.041,0,0,0,.192-.684,1.059,1.059,0,0,0-.185-.687.562.562,0,0,0-.446-.222.579.579,0,0,0-.457.229,1.007,1.007,0,0,0-.193.664Z" transform="translate(-398.388 -358.443)"/><path class="c" d="M501.407,383.3v-.349a.87.87,0,0,1-.755.4.963.963,0,0,1-.393-.08.645.645,0,0,1-.27-.2.752.752,0,0,1-.125-.3,2.08,2.08,0,0,1-.024-.377v-1.472h.4v1.318a2.382,2.382,0,0,0,.025.425.427.427,0,0,0,.161.25.5.5,0,0,0,.3.09.663.663,0,0,0,.34-.092.513.513,0,0,0,.225-.253,1.265,1.265,0,0,0,.066-.464v-1.273h.4V383.3Zm.993-2.817v-.463h.4v.463Zm0,2.817v-2.376h.4V383.3Zm2.558,0V383a.738.738,0,0,1-.664.354.93.93,0,0,1-.522-.156,1.028,1.028,0,0,1-.37-.438,1.51,1.51,0,0,1-.131-.646,1.7,1.7,0,0,1,.119-.645.933.933,0,0,1,.356-.444.952.952,0,0,1,.531-.155.788.788,0,0,1,.382.091.8.8,0,0,1,.274.236V380.02h.4V383.3Zm-1.273-1.186a1.033,1.033,0,0,0,.192.683.581.581,0,0,0,.454.226.571.571,0,0,0,.448-.216,1,1,0,0,0,.185-.659,1.116,1.116,0,0,0-.188-.716.576.576,0,0,0-.464-.228.559.559,0,0,0-.448.219,1.083,1.083,0,0,0-.18.691Zm2.13,0a1.223,1.223,0,0,1,.367-.978,1.105,1.105,0,0,1,.747-.264,1.064,1.064,0,0,1,.8.322,1.219,1.219,0,0,1,.311.887,1.573,1.573,0,0,1-.138.722.974.974,0,0,1-.4.409,1.167,1.167,0,0,1-.575.145,1.067,1.067,0,0,1-.807-.32,1.275,1.275,0,0,1-.308-.922Zm.414,0a1.01,1.01,0,0,0,.2.684.663.663,0,0,0,1,0,1.039,1.039,0,0,0,.2-.7.981.981,0,0,0-.2-.668.664.664,0,0,0-1,0,1.006,1.006,0,0,0-.2.682Zm2.281,1.188v-2.376h.362v.36a.979.979,0,0,1,.257-.333.446.446,0,0,1,.258-.081.787.787,0,0,1,.414.13l-.139.374a.568.568,0,0,0-.295-.088.387.387,0,0,0-.238.079.433.433,0,0,0-.15.221,1.556,1.556,0,0,0-.067.47V383.3Zm3.157-.765.416.051a1.019,1.019,0,0,1-.364.567,1.1,1.1,0,0,1-.68.2,1.086,1.086,0,0,1-.826-.321,1.252,1.252,0,0,1-.306-.9,1.315,1.315,0,0,1,.309-.931,1.046,1.046,0,0,1,.8-.332,1.015,1.015,0,0,1,.778.325,1.288,1.288,0,0,1,.3.913c0,.025,0,.06,0,.108h-1.772a.909.909,0,0,0,.221.6.658.658,0,0,0,.5.208.614.614,0,0,0,.378-.117.764.764,0,0,0,.248-.371Zm-1.322-.652h1.327a.8.8,0,0,0-.152-.449.617.617,0,0,0-.5-.233.641.641,0,0,0-.467.186.738.738,0,0,0-.209.5Zm2.084.707.4-.063a.557.557,0,0,0,.187.367.649.649,0,0,0,.428.128.632.632,0,0,0,.412-.113.34.34,0,0,0,.134-.265.245.245,0,0,0-.119-.215,1.74,1.74,0,0,0-.412-.136,3.734,3.734,0,0,1-.614-.194.587.587,0,0,1-.348-.545.607.607,0,0,1,.073-.294.645.645,0,0,1,.2-.225.842.842,0,0,1,.256-.118,1.219,1.219,0,0,1,.348-.048,1.379,1.379,0,0,1,.491.081.668.668,0,0,1,.312.218.854.854,0,0,1,.138.368l-.394.054a.433.433,0,0,0-.156-.286.566.566,0,0,0-.364-.1.658.658,0,0,0-.4.092.267.267,0,0,0-.119.215.224.224,0,0,0,.05.141.358.358,0,0,0,.154.108c.041.014.159.049.356.1a4.871,4.871,0,0,1,.6.187.6.6,0,0,1,.266.211.589.589,0,0,1,.1.345.681.681,0,0,1-.118.38.764.764,0,0,1-.339.275,1.237,1.237,0,0,1-.5.1,1.118,1.118,0,0,1-.706-.192.892.892,0,0,1-.309-.571Zm-75.4,5.576.416.051a1.018,1.018,0,0,1-.364.567,1.1,1.1,0,0,1-.681.2,1.086,1.086,0,0,1-.826-.321,1.252,1.252,0,0,1-.306-.9,1.314,1.314,0,0,1,.309-.931,1.046,1.046,0,0,1,.8-.331,1.015,1.015,0,0,1,.778.325,1.288,1.288,0,0,1,.3.913c0,.025,0,.06,0,.108h-1.772a.91.91,0,0,0,.222.6.658.658,0,0,0,.5.209.616.616,0,0,0,.378-.117.766.766,0,0,0,.248-.371Zm-1.322-.652h1.327a.8.8,0,0,0-.152-.449.618.618,0,0,0-.5-.233.641.641,0,0,0-.467.186.738.738,0,0,0-.209.5Zm3.57,1.417v-3.281h1.237a3.029,3.029,0,0,1,.5.031.989.989,0,0,1,.406.154.807.807,0,0,1,.263.316,1.07,1.07,0,0,1-.167,1.156,1.282,1.282,0,0,1-.962.289h-.842v1.334Zm.434-1.721h.849a.9.9,0,0,0,.6-.156.558.558,0,0,0,.176-.441.594.594,0,0,0-.1-.353.485.485,0,0,0-.274-.193,1.868,1.868,0,0,0-.4-.029h-.839v1.172Zm2.567,1.721v-2.376h.362v.36a.977.977,0,0,1,.257-.333.447.447,0,0,1,.258-.081.788.788,0,0,1,.414.13l-.139.374a.567.567,0,0,0-.295-.088.386.386,0,0,0-.237.079.432.432,0,0,0-.15.221,1.556,1.556,0,0,0-.067.47v1.244Zm1.38-1.188a1.222,1.222,0,0,1,.367-.978,1.1,1.1,0,0,1,.747-.264,1.064,1.064,0,0,1,.8.322,1.218,1.218,0,0,1,.311.887,1.571,1.571,0,0,1-.138.722.972.972,0,0,1-.4.409,1.167,1.167,0,0,1-.574.145,1.067,1.067,0,0,1-.807-.32,1.276,1.276,0,0,1-.308-.922Zm.414,0a1.01,1.01,0,0,0,.2.684.663.663,0,0,0,1,0,1.039,1.039,0,0,0,.2-.7.982.982,0,0,0-.2-.668.664.664,0,0,0-1,0,1,1,0,0,0-.2.682Zm3.836.318.4.052a1.022,1.022,0,0,1-.332.641.968.968,0,0,1-.657.232,1.019,1.019,0,0,1-.784-.319,1.292,1.292,0,0,1-.3-.914,1.657,1.657,0,0,1,.128-.674.89.89,0,0,1,.389-.433,1.149,1.149,0,0,1,.567-.144.985.985,0,0,1,.633.2.9.9,0,0,1,.316.556l-.392.06a.653.653,0,0,0-.2-.361.514.514,0,0,0-.344-.121.625.625,0,0,0-.5.219,1.034,1.034,0,0,0-.19.69,1.069,1.069,0,0,0,.184.7.6.6,0,0,0,.479.217.564.564,0,0,0,.4-.146.72.72,0,0,0,.2-.448Zm2.367.105.416.051a1.018,1.018,0,0,1-.364.567,1.1,1.1,0,0,1-.68.2,1.086,1.086,0,0,1-.827-.321,1.253,1.253,0,0,1-.305-.9,1.315,1.315,0,0,1,.308-.931,1.047,1.047,0,0,1,.8-.331,1.015,1.015,0,0,1,.778.325,1.289,1.289,0,0,1,.3.913c0,.025,0,.06,0,.108h-1.772a.908.908,0,0,0,.222.6.658.658,0,0,0,.5.209.616.616,0,0,0,.378-.117.765.765,0,0,0,.248-.371Zm-1.322-.652h1.327a.8.8,0,0,0-.152-.449.618.618,0,0,0-.5-.233.641.641,0,0,0-.467.186.737.737,0,0,0-.209.5Zm2.084.707.4-.063a.557.557,0,0,0,.187.367.651.651,0,0,0,.429.128.632.632,0,0,0,.411-.113.34.34,0,0,0,.134-.265.245.245,0,0,0-.119-.215,1.742,1.742,0,0,0-.412-.136,3.739,3.739,0,0,1-.614-.194.587.587,0,0,1-.348-.545.608.608,0,0,1,.073-.294.647.647,0,0,1,.2-.225.843.843,0,0,1,.256-.118,1.221,1.221,0,0,1,.348-.048,1.382,1.382,0,0,1,.491.081.666.666,0,0,1,.312.218.856.856,0,0,1,.138.368l-.393.054a.435.435,0,0,0-.156-.287.568.568,0,0,0-.364-.1.658.658,0,0,0-.4.092.267.267,0,0,0-.119.215.222.222,0,0,0,.05.141.356.356,0,0,0,.154.108c.04.014.159.049.356.1a4.854,4.854,0,0,1,.6.187.6.6,0,0,1,.266.211.59.59,0,0,1,.1.345.682.682,0,0,1-.117.38.766.766,0,0,1-.339.275,1.237,1.237,0,0,1-.5.1,1.117,1.117,0,0,1-.706-.193.892.892,0,0,1-.309-.571Zm2.292,0,.4-.063a.557.557,0,0,0,.187.367.651.651,0,0,0,.428.128.632.632,0,0,0,.412-.113.339.339,0,0,0,.135-.265.245.245,0,0,0-.119-.215,1.74,1.74,0,0,0-.412-.136,3.737,3.737,0,0,1-.614-.194.587.587,0,0,1-.348-.545.606.606,0,0,1,.073-.294.646.646,0,0,1,.2-.225.841.841,0,0,1,.256-.118,1.222,1.222,0,0,1,.348-.048,1.382,1.382,0,0,1,.491.081.664.664,0,0,1,.312.218.855.855,0,0,1,.138.368l-.393.054a.434.434,0,0,0-.156-.287.568.568,0,0,0-.364-.1.658.658,0,0,0-.4.092.267.267,0,0,0-.119.215.223.223,0,0,0,.05.141.358.358,0,0,0,.154.108c.041.014.159.049.356.1a4.844,4.844,0,0,1,.6.187.6.6,0,0,1,.266.211.59.59,0,0,1,.1.345.682.682,0,0,1-.117.38.766.766,0,0,1-.339.275,1.236,1.236,0,0,1-.5.1,1.118,1.118,0,0,1-.707-.193.893.893,0,0,1-.309-.571Zm4,.416a1.528,1.528,0,0,1-.431.269,1.255,1.255,0,0,1-.445.078.864.864,0,0,1-.6-.191.634.634,0,0,1-.21-.489.644.644,0,0,1,.08-.319.653.653,0,0,1,.208-.231.983.983,0,0,1,.29-.132,2.822,2.822,0,0,1,.358-.06,3.666,3.666,0,0,0,.719-.139c0-.055,0-.09,0-.1a.442.442,0,0,0-.115-.347.67.67,0,0,0-.458-.137.714.714,0,0,0-.42.1.612.612,0,0,0-.2.353l-.393-.054a.98.98,0,0,1,.177-.408.771.771,0,0,1,.356-.24,1.59,1.59,0,0,1,.539-.084,1.431,1.431,0,0,1,.494.072.661.661,0,0,1,.28.18.642.642,0,0,1,.125.274,2.309,2.309,0,0,1,.02.371v.537a5.61,5.61,0,0,0,.026.71.894.894,0,0,0,.1.286h-.421a.848.848,0,0,1-.08-.293Zm-.034-.9a2.937,2.937,0,0,1-.658.153,1.512,1.512,0,0,0-.351.08.352.352,0,0,0-.093.591.527.527,0,0,0,.357.107.828.828,0,0,0,.414-.1.629.629,0,0,0,.267-.279.97.97,0,0,0,.065-.4v-.148Zm2.573,1.193v-.3a.738.738,0,0,1-.665.354.931.931,0,0,1-.522-.157,1.028,1.028,0,0,1-.37-.438,1.512,1.512,0,0,1-.131-.645,1.7,1.7,0,0,1,.118-.646.935.935,0,0,1,.356-.444.952.952,0,0,1,.531-.155.8.8,0,0,1,.655.327v-1.177h.4v3.281Zm-1.273-1.186a1.032,1.032,0,0,0,.192.683.581.581,0,0,0,.455.226.571.571,0,0,0,.448-.216,1,1,0,0,0,.185-.659,1.116,1.116,0,0,0-.188-.716.577.577,0,0,0-.464-.228.558.558,0,0,0-.448.219,1.082,1.082,0,0,0-.18.691Zm2.13,0a1.222,1.222,0,0,1,.367-.978,1.1,1.1,0,0,1,.747-.264,1.064,1.064,0,0,1,.8.322,1.218,1.218,0,0,1,.311.887,1.571,1.571,0,0,1-.138.722.974.974,0,0,1-.4.409,1.168,1.168,0,0,1-.575.145,1.067,1.067,0,0,1-.807-.32,1.276,1.276,0,0,1-.308-.922Zm.414,0a1.012,1.012,0,0,0,.2.684.663.663,0,0,0,1,0,1.038,1.038,0,0,0,.2-.7.981.981,0,0,0-.2-.668.664.664,0,0,0-1,0,1.007,1.007,0,0,0-.2.682Zm2.281,1.188v-2.376h.362v.36a.979.979,0,0,1,.257-.333.447.447,0,0,1,.258-.081.789.789,0,0,1,.414.13l-.139.374a.566.566,0,0,0-.295-.088.386.386,0,0,0-.237.079.43.43,0,0,0-.15.221,1.554,1.554,0,0,0-.067.47v1.244Zm3.157-.765.416.051a1.019,1.019,0,0,1-.364.567,1.1,1.1,0,0,1-.68.2,1.086,1.086,0,0,1-.827-.321,1.253,1.253,0,0,1-.306-.9,1.315,1.315,0,0,1,.309-.931,1.046,1.046,0,0,1,.8-.331,1.015,1.015,0,0,1,.778.325,1.288,1.288,0,0,1,.3.913c0,.025,0,.06,0,.108h-1.772a.91.91,0,0,0,.222.6.659.659,0,0,0,.5.209.615.615,0,0,0,.378-.117.765.765,0,0,0,.248-.371Zm-1.322-.652h1.327a.8.8,0,0,0-.152-.449.618.618,0,0,0-.5-.233.641.641,0,0,0-.467.186.738.738,0,0,0-.209.5Zm2.084.707.4-.063a.558.558,0,0,0,.187.367.651.651,0,0,0,.428.128.633.633,0,0,0,.412-.113.339.339,0,0,0,.134-.265.245.245,0,0,0-.119-.215,1.745,1.745,0,0,0-.412-.136,3.741,3.741,0,0,1-.614-.194.587.587,0,0,1-.348-.545.608.608,0,0,1,.073-.294.644.644,0,0,1,.2-.225.841.841,0,0,1,.256-.118,1.223,1.223,0,0,1,.349-.048,1.381,1.381,0,0,1,.491.081.665.665,0,0,1,.313.218.858.858,0,0,1,.138.368l-.393.054a.435.435,0,0,0-.156-.287.568.568,0,0,0-.364-.1.658.658,0,0,0-.4.092.267.267,0,0,0-.119.215.223.223,0,0,0,.05.141.356.356,0,0,0,.154.108c.041.014.159.049.356.1a4.864,4.864,0,0,1,.6.187.6.6,0,0,1,.266.211.589.589,0,0,1,.1.345.682.682,0,0,1-.118.38.765.765,0,0,1-.339.275,1.235,1.235,0,0,1-.5.1,1.117,1.117,0,0,1-.706-.193.892.892,0,0,1-.309-.571Zm5.267.71v-.3a.738.738,0,0,1-.665.354.931.931,0,0,1-.522-.157,1.028,1.028,0,0,1-.37-.438,1.512,1.512,0,0,1-.131-.645,1.7,1.7,0,0,1,.118-.646.934.934,0,0,1,.356-.444.952.952,0,0,1,.531-.155.8.8,0,0,1,.655.327v-1.177h.4v3.281Zm-1.273-1.186a1.032,1.032,0,0,0,.193.683.581.581,0,0,0,.454.226.571.571,0,0,0,.448-.216,1,1,0,0,0,.185-.659,1.116,1.116,0,0,0-.188-.716.577.577,0,0,0-.464-.228.559.559,0,0,0-.448.219,1.083,1.083,0,0,0-.18.691Zm3.907.421.416.051a1.017,1.017,0,0,1-.364.567,1.1,1.1,0,0,1-.681.2,1.086,1.086,0,0,1-.826-.321,1.252,1.252,0,0,1-.306-.9,1.314,1.314,0,0,1,.309-.931,1.046,1.046,0,0,1,.8-.331,1.015,1.015,0,0,1,.778.325,1.288,1.288,0,0,1,.3.913c0,.025,0,.06,0,.108H473.9a.91.91,0,0,0,.222.6.658.658,0,0,0,.5.209.615.615,0,0,0,.378-.117.766.766,0,0,0,.248-.371Zm-1.322-.652h1.327a.8.8,0,0,0-.152-.449.618.618,0,0,0-.5-.233.641.641,0,0,0-.467.186.738.738,0,0,0-.209.5Zm4.507,1.417-1.271-3.281h.47l.853,2.383c.069.191.126.371.172.537q.077-.268.177-.537l.886-2.383h.443l-1.285,3.281Zm1.987-2.817v-.463h.4v.463Zm0,2.817v-2.376h.4v2.376Zm2.558,0v-.3a.738.738,0,0,1-.664.354.93.93,0,0,1-.522-.157,1.026,1.026,0,0,1-.37-.438,1.513,1.513,0,0,1-.131-.645,1.7,1.7,0,0,1,.119-.646.933.933,0,0,1,.356-.444.952.952,0,0,1,.531-.155.8.8,0,0,1,.656.327v-1.177h.4v3.281Zm-1.273-1.186a1.032,1.032,0,0,0,.192.683.581.581,0,0,0,.455.226.571.571,0,0,0,.448-.216,1,1,0,0,0,.185-.659,1.116,1.116,0,0,0-.188-.716.577.577,0,0,0-.464-.228.559.559,0,0,0-.448.219,1.083,1.083,0,0,0-.18.691Zm2.276,1.186v-2.376h.362v.36a.975.975,0,0,1,.257-.333.447.447,0,0,1,.258-.081.789.789,0,0,1,.414.13l-.139.374a.567.567,0,0,0-.295-.088.386.386,0,0,0-.238.079.431.431,0,0,0-.15.221,1.55,1.55,0,0,0-.067.47v1.244Zm1.38-1.188a1.222,1.222,0,0,1,.367-.978,1.105,1.105,0,0,1,.747-.264,1.064,1.064,0,0,1,.8.322,1.218,1.218,0,0,1,.311.887,1.572,1.572,0,0,1-.137.722.972.972,0,0,1-.4.409,1.167,1.167,0,0,1-.574.145,1.067,1.067,0,0,1-.807-.32,1.276,1.276,0,0,1-.308-.922Zm.414,0a1.011,1.011,0,0,0,.2.684.663.663,0,0,0,1,0,1.039,1.039,0,0,0,.2-.7.982.982,0,0,0-.2-.668.664.664,0,0,0-1,0,1.006,1.006,0,0,0-.2.682Zm2.124.479.4-.063a.558.558,0,0,0,.187.367.651.651,0,0,0,.429.128.633.633,0,0,0,.412-.113.339.339,0,0,0,.134-.265.245.245,0,0,0-.119-.215,1.739,1.739,0,0,0-.412-.136,3.745,3.745,0,0,1-.614-.194.587.587,0,0,1-.348-.545.605.605,0,0,1,.073-.294.646.646,0,0,1,.2-.225.844.844,0,0,1,.256-.118,1.222,1.222,0,0,1,.348-.048,1.382,1.382,0,0,1,.491.081.666.666,0,0,1,.313.218.857.857,0,0,1,.138.368l-.393.054a.434.434,0,0,0-.156-.287.568.568,0,0,0-.364-.1.658.658,0,0,0-.4.092.267.267,0,0,0-.119.215.223.223,0,0,0,.05.141.359.359,0,0,0,.154.108c.041.014.159.049.356.1a4.858,4.858,0,0,1,.6.187.6.6,0,0,1,.266.211.589.589,0,0,1,.1.345.682.682,0,0,1-.117.38.766.766,0,0,1-.339.275,1.236,1.236,0,0,1-.5.1,1.117,1.117,0,0,1-.706-.193.891.891,0,0,1-.309-.571Zm3.777.71v-3.281h1.237a3.031,3.031,0,0,1,.5.031.991.991,0,0,1,.406.154.809.809,0,0,1,.263.316,1.071,1.071,0,0,1-.167,1.156,1.282,1.282,0,0,1-.963.289h-.842v1.334Zm.434-1.721h.849a.9.9,0,0,0,.6-.156.559.559,0,0,0,.176-.441.593.593,0,0,0-.1-.353.485.485,0,0,0-.274-.193,1.867,1.867,0,0,0-.4-.029h-.839v1.172Zm2.563,1.721v-3.281h.4v3.281Z" transform="translate(-399.254 -358.443)"/><path class="c" d="M795.626,420.719a1.527,1.527,0,0,1-.431.269,1.255,1.255,0,0,1-.445.078.864.864,0,0,1-.6-.191.634.634,0,0,1-.21-.489.649.649,0,0,1,.079-.319.656.656,0,0,1,.208-.231.98.98,0,0,1,.29-.132,2.823,2.823,0,0,1,.357-.06,3.667,3.667,0,0,0,.719-.139c0-.055,0-.09,0-.1a.442.442,0,0,0-.114-.347.67.67,0,0,0-.458-.137.714.714,0,0,0-.42.1.612.612,0,0,0-.2.353l-.393-.054a.98.98,0,0,1,.176-.408.77.77,0,0,1,.356-.24,1.588,1.588,0,0,1,.539-.084,1.432,1.432,0,0,1,.494.072.662.662,0,0,1,.28.18.644.644,0,0,1,.125.274,2.334,2.334,0,0,1,.02.371v.537a5.61,5.61,0,0,0,.026.71.894.894,0,0,0,.1.286h-.421a.857.857,0,0,1-.08-.293Zm-.033-.9a2.937,2.937,0,0,1-.658.153,1.513,1.513,0,0,0-.351.08.352.352,0,0,0-.093.591.527.527,0,0,0,.357.107.829.829,0,0,0,.414-.1.63.63,0,0,0,.267-.279.967.967,0,0,0,.065-.4v-.148Zm1.032,1.193v-2.376h.362v.338a.854.854,0,0,1,.756-.392.994.994,0,0,1,.4.077.617.617,0,0,1,.27.2.775.775,0,0,1,.126.3,2.363,2.363,0,0,1,.022.392v1.461h-.4v-1.446a1.09,1.09,0,0,0-.047-.368.386.386,0,0,0-.167-.194.527.527,0,0,0-.281-.073.657.657,0,0,0-.445.163.808.808,0,0,0-.186.62v1.3Zm2.4-1.188a1.222,1.222,0,0,1,.367-.978,1.105,1.105,0,0,1,.747-.264,1.064,1.064,0,0,1,.8.322,1.218,1.218,0,0,1,.311.887,1.57,1.57,0,0,1-.138.722.973.973,0,0,1-.4.409,1.169,1.169,0,0,1-.575.145,1.067,1.067,0,0,1-.807-.32,1.276,1.276,0,0,1-.308-.922Zm.414,0a1.011,1.011,0,0,0,.2.684.663.663,0,0,0,1,0,1.04,1.04,0,0,0,.2-.7.982.982,0,0,0-.2-.668.664.664,0,0,0-1,0,1.006,1.006,0,0,0-.2.682Zm2.124.479.4-.063a.557.557,0,0,0,.187.367.651.651,0,0,0,.429.128.632.632,0,0,0,.412-.113.339.339,0,0,0,.135-.265.245.245,0,0,0-.119-.215,1.739,1.739,0,0,0-.411-.136,3.735,3.735,0,0,1-.614-.194.587.587,0,0,1-.348-.545.608.608,0,0,1,.073-.294.645.645,0,0,1,.2-.225.84.84,0,0,1,.256-.118,1.221,1.221,0,0,1,.348-.048,1.381,1.381,0,0,1,.491.081.666.666,0,0,1,.313.218.854.854,0,0,1,.138.368l-.393.054a.435.435,0,0,0-.156-.287.568.568,0,0,0-.364-.1.657.657,0,0,0-.4.092.267.267,0,0,0-.119.215.223.223,0,0,0,.05.141.357.357,0,0,0,.154.108c.041.014.159.049.356.1a4.849,4.849,0,0,1,.6.187.6.6,0,0,1,.266.211.589.589,0,0,1,.1.345.682.682,0,0,1-.118.38.764.764,0,0,1-.339.275,1.235,1.235,0,0,1-.5.1,1.118,1.118,0,0,1-.707-.193.892.892,0,0,1-.309-.571Z" transform="translate(-697.63 -390.523)"/><path class="c" d="M342.239,266.951a2.643,2.643,0,0,1-1.276.983,4.866,4.866,0,0,1-1.9.381,4.3,4.3,0,0,1-2.923-.932,3.321,3.321,0,0,1-1.064-2.637,3.7,3.7,0,0,1,1.5-3.128,6.985,6.985,0,0,1,4.262-1.126,4.556,4.556,0,0,1,1.115.161q0-2.03-2.567-2.032a5.673,5.673,0,0,0-2.534.506l-.579-2.087a7.545,7.545,0,0,1,3.3-.664,5.361,5.361,0,0,1,3.858,1.2q1.221,1.2,1.225,4.541v2.461q0,2.3.924,2.89a1.443,1.443,0,0,1-.741.715,3.066,3.066,0,0,1-.935.136,1.476,1.476,0,0,1-1.042-.433,2.19,2.19,0,0,1-.623-.931Zm-.26-4.269a5.816,5.816,0,0,0-1.031-.139q-3.18,0-3.18,2.087,0,1.546,1.794,1.548a2.137,2.137,0,0,0,2.417-2.421v-1.075Zm7.478,4.783-.6.851h-1.515V252.3l2.685-.642v5.369a4.433,4.433,0,0,1,2.344-.653,5.411,5.411,0,0,1,4.071,1.6,5.615,5.615,0,0,1,1.548,4.089,6.449,6.449,0,0,1-1.559,4.57,5.471,5.471,0,0,1-4.221,1.684,4.511,4.511,0,0,1-2.751-.851Zm.568-8.135v6.008a1.991,1.991,0,0,0,1.6.7,3.51,3.51,0,0,0,2.754-.921,4.414,4.414,0,0,0,.814-2.956q0-3.5-3.356-3.5a2.353,2.353,0,0,0-1.816.675ZM367,259.1a2.817,2.817,0,0,0-1.581-.473,2.141,2.141,0,0,0-1.658.847,3.089,3.089,0,0,0-.726,2.076V268.1h-2.685V256.59h2.685v1.052a3.816,3.816,0,0,1,3-1.265,4.316,4.316,0,0,1,2.109.418L367,259.1Zm8.468,7.856a2.642,2.642,0,0,1-1.276.983,4.868,4.868,0,0,1-1.9.381,4.3,4.3,0,0,1-2.923-.932,3.321,3.321,0,0,1-1.064-2.637,3.7,3.7,0,0,1,1.5-3.128,6.984,6.984,0,0,1,4.262-1.126,4.556,4.556,0,0,1,1.115.161q0-2.03-2.567-2.032a5.672,5.672,0,0,0-2.534.506l-.58-2.087a7.545,7.545,0,0,1,3.3-.664,5.36,5.36,0,0,1,3.858,1.2q1.221,1.2,1.225,4.541v2.461q0,2.3.924,2.89a1.442,1.442,0,0,1-.741.715,3.066,3.066,0,0,1-.935.136,1.475,1.475,0,0,1-1.042-.433,2.188,2.188,0,0,1-.624-.931Zm-.26-4.269a5.813,5.813,0,0,0-1.031-.139q-3.18,0-3.18,2.087,0,1.546,1.793,1.548a2.137,2.137,0,0,0,2.417-2.421v-1.075Zm10.346,5.634h-.964l-5.2-11.725h2.942l2.751,7.027,2.956-7.027h2.846l-5.329,11.725Zm9.631-16.185a1.559,1.559,0,1,1-1.1.459,1.5,1.5,0,0,1,1.1-.459ZM393.8,268.1v-9.3h-1.474v-2.2h4.192V268.1Zm13.247,0v-.7a2.731,2.731,0,0,1-1.13.638,4.965,4.965,0,0,1-1.643.275,4.86,4.86,0,0,1-3.789-1.526,6.137,6.137,0,0,1-1.379-4.258,6.286,6.286,0,0,1,1.584-4.442,5.176,5.176,0,0,1,3.972-1.713,5.281,5.281,0,0,1,2.384.536V252.3l2.685-.642V268.1Zm0-8.758a2.83,2.83,0,0,0-1.793-.686,3.137,3.137,0,0,0-2.483.983,4.127,4.127,0,0,0-.869,2.82q0,3.587,3.459,3.587a2.6,2.6,0,0,0,.95-.231,1.722,1.722,0,0,0,.737-.466v-6.008Zm12.023-.246a2.817,2.817,0,0,0-1.581-.473,2.141,2.141,0,0,0-1.658.847,3.089,3.089,0,0,0-.726,2.076V268.1h-2.685V256.59h2.685v1.052a3.816,3.816,0,0,1,3-1.265,4.316,4.316,0,0,1,2.109.418l-1.141,2.3Zm2,3.224a6.093,6.093,0,0,1,1.522-4.287,5.184,5.184,0,0,1,4.012-1.654,5.237,5.237,0,0,1,4.075,1.588,7.235,7.235,0,0,1-.029,8.725,5.87,5.87,0,0,1-8.124-.015,6.332,6.332,0,0,1-1.456-4.357Zm2.795,0q0,3.8,2.74,3.8a2.355,2.355,0,0,0,2-.99,4.653,4.653,0,0,0,.734-2.813q0-3.752-2.729-3.752a2.372,2.372,0,0,0-2,.99,4.544,4.544,0,0,0-.741,2.762Z" transform="translate(-315.904 -251.661)"/><path class="c" d="M221,360.371h16.284v16.284H221V360.371Z" transform="translate(-221.002 -342.098)"/><path class="c" d="M327.681,360.371h16.284v16.284H327.681V360.371Z" transform="translate(-309.748 -342.098)"/><path class="c" d="M221,253.865h16.284v16.284H221V253.865Z" transform="translate(-221 -253.495)"/></g></svg>