<svg xmlns="http://www.w3.org/2000/svg" xmlns:xlink="http://www.w3.org/1999/xlink" width="114.799" height="41.655" viewBox="0 0 114.799 41.655"><defs><style>.a{fill:none;}.b{clip-path:url(#a);}.c{fill:#555;}.d{fill:#bfbfbf;}.e{fill:#707070;}</style><clipPath id="a"><rect class="a" width="114.799" height="41.655"/></clipPath></defs><g class="b" transform="translate(0 0)"><g transform="translate(0 3.478)"><path class="c" d="M63.562,111.1a52.269,52.269,0,0,0-10.569,9.909c1.913,2.986,3.949,5.923,5.742,8.419A52.964,52.964,0,0,1,63.562,111.1Z" transform="translate(-52.993 -111.101)"/><path class="c" d="M99.182,241.513c2.38,3.261,4.1,5.458,4.1,5.458a31.792,31.792,0,0,1,4.36-5.824A26.4,26.4,0,0,0,99.182,241.513Z" transform="translate(-92.319 -221.637)"/></g><path class="d" d="M109.057,103.968c-9.466-5.088-7.121-11.242-4.342-14.411-1.474-1.164-2.388-1.865-2.388-1.865a37.71,37.71,0,0,0-5.86,3.478A52.963,52.963,0,0,0,91.64,109.5q.579.807,1.121,1.548a26.4,26.4,0,0,1,8.463-.366A43.359,43.359,0,0,1,109.057,103.968Z" transform="translate(-85.898 -87.693)"/><path class="e" d="M165.6,100.242c-2.779,3.169-5.124,9.323,4.342,14.411a44.651,44.651,0,0,1,7.885-4.2C173.354,106.444,168.44,102.483,165.6,100.242Z" transform="translate(-146.783 -98.377)"/><g transform="translate(24.962 17.327)"><path d="M325.012,206.6v7.888l-6.483-7.888h-2.554v11.887h2.554v-7.888l6.483,7.888h2.554V206.6Z" transform="translate(-301.863 -206.257)"/><path d="M418.418,209.15V206.6H408.026v11.887h2.554V214.6h6.356v-2.305h-6.356V209.15Z" transform="translate(-380.238 -206.257)"/><path d="M676.066,209.15V206.6H665.79v11.867h.076v.02h10.2v-2.554h-7.722V213.7h6.2V211.4h-6.2V209.15Z" transform="translate(-599.703 -206.257)"/><path d="M581.856,213.051a3.8,3.8,0,0,1-2.587,1,3.561,3.561,0,1,1,0-7.115,3.794,3.794,0,0,1,2.632,1.045h3.215a6.43,6.43,0,0,0-5.847-3.618,6.137,6.137,0,1,0,0,12.262,6.432,6.432,0,0,0,5.827-3.576Z" transform="translate(-520.579 -204.357)"/><path d="M757.384,210.6a3.985,3.985,0,0,0-3.971-4h-5.384v0h-2.554v11.887h2.554V214.6h3.819l2.167,3.887h2.969l-2.291-4.1A4,4,0,0,0,757.384,210.6Zm-3.979,1.68H748.04v-3.144h5.289c.025,0,.05,0,.076,0a1.575,1.575,0,0,1,0,3.145Z" transform="translate(-667.547 -206.257)"/><path d="M233.032,209.944a6.029,6.029,0,0,0-12.031-.01v6.607h2.554v-3.885h6.923v3.885h2.554Zm-9.545.393a3.59,3.59,0,0,1,1.016-2.356,3.363,3.363,0,0,1,2.518-1.049,3.32,3.32,0,0,1,2.468,1.049,3.791,3.791,0,0,1,1.055,2.356Z" transform="translate(-220.999 -204.314)"/><path d="M495.7,209.944a6.029,6.029,0,0,0-12.031-.01v6.607h2.554v-3.885h6.923v3.885H495.7Zm-9.545.393a3.59,3.59,0,0,1,1.016-2.356,3.363,3.363,0,0,1,2.518-1.049,3.32,3.32,0,0,1,2.468,1.049,3.792,3.792,0,0,1,1.055,2.356Z" transform="translate(-444.638 -204.314)"/></g><g transform="translate(24.959 33.241)"><path d="M222.99,318.715q0,.056-.06.056h-.207a.048.048,0,0,1-.038-.016.1.1,0,0,1-.021-.037l-.228-.806h-.908l-.225.806a.085.085,0,0,1-.025.037.056.056,0,0,1-.039.016h-.207c-.04,0-.06-.019-.06-.056a.059.059,0,0,1,0-.025l.649-2.283a.353.353,0,0,1,.061-.131.337.337,0,0,1,.089-.081.342.342,0,0,1,.1-.042.462.462,0,0,1,.1-.012.512.512,0,0,1,.1.011.32.32,0,0,1,.1.04.345.345,0,0,1,.089.081.354.354,0,0,1,.061.132l.649,2.286A.06.06,0,0,1,222.99,318.715Zm-.94-2.233q-.018-.063-.067-.063t-.07.063l-.319,1.154h.775Z" transform="translate(-220.974 -315.44)"/><path d="M237.608,318.094a.861.861,0,0,1-.039.252.555.555,0,0,1-.135.226.693.693,0,0,1-.265.161,1.271,1.271,0,0,1-.428.061,2.906,2.906,0,0,1-.326-.016q-.14-.016-.256-.033a.09.09,0,0,1-.056-.021.069.069,0,0,1-.01-.042v-.14a.051.051,0,0,1,.017-.042.066.066,0,0,1,.042-.014h.011c.04,0,.085.008.135.01l.154.005.154,0,.135,0a.963.963,0,0,0,.261-.03.4.4,0,0,0,.163-.084.3.3,0,0,0,.084-.132.558.558,0,0,0,.025-.168.308.308,0,0,0-.091-.228.874.874,0,0,0-.13-.11q-.081-.058-.2-.132l-.34-.207a1.4,1.4,0,0,1-.363-.3.552.552,0,0,1-.121-.359.531.531,0,0,1,.219-.47,1.09,1.09,0,0,1,.622-.151q.077,0,.163,0l.168.009q.082.005.156.014l.123.016c.04.007.06.027.06.06v.151q0,.056-.06.056h-.007l-.282-.014c-.111,0-.218-.007-.321-.007a.827.827,0,0,0-.394.07.278.278,0,0,0-.121.263.293.293,0,0,0,.091.214,1.532,1.532,0,0,0,.29.21l.322.193a2.385,2.385,0,0,1,.255.175,1.07,1.07,0,0,1,.171.168.538.538,0,0,1,.094.175A.67.67,0,0,1,237.608,318.094Z" transform="translate(-233.793 -315.44)"/><path d="M250.587,318.094a.866.866,0,0,1-.038.252.559.559,0,0,1-.135.226.7.7,0,0,1-.265.161,1.272,1.272,0,0,1-.428.061,2.908,2.908,0,0,1-.326-.016c-.093-.01-.179-.021-.256-.033a.09.09,0,0,1-.056-.021.069.069,0,0,1-.01-.042v-.14a.051.051,0,0,1,.017-.042.066.066,0,0,1,.042-.014h.01q.06.007.135.01l.154.005.154,0,.135,0a.963.963,0,0,0,.261-.03.4.4,0,0,0,.163-.084.3.3,0,0,0,.084-.132.558.558,0,0,0,.025-.168.334.334,0,0,0-.021-.121.337.337,0,0,0-.07-.107.867.867,0,0,0-.13-.11q-.081-.058-.2-.132l-.34-.207a1.4,1.4,0,0,1-.363-.3.552.552,0,0,1-.121-.359.531.531,0,0,1,.219-.47,1.09,1.09,0,0,1,.622-.151q.077,0,.163,0l.168.009q.082.005.156.014l.123.016c.04.007.06.027.06.06v.151q0,.056-.06.056h-.007l-.282-.014q-.167-.007-.321-.007a.827.827,0,0,0-.394.07.278.278,0,0,0-.121.263.294.294,0,0,0,.091.214,1.54,1.54,0,0,0,.29.21l.322.193a2.4,2.4,0,0,1,.255.175,1.068,1.068,0,0,1,.171.168.542.542,0,0,1,.094.175A.67.67,0,0,1,250.587,318.094Z" transform="translate(-244.844 -315.44)"/><path d="M264.126,317.694a1.575,1.575,0,0,1-.07.5.912.912,0,0,1-.2.342.774.774,0,0,1-.3.2,1.185,1.185,0,0,1-.762,0,.773.773,0,0,1-.3-.2.928.928,0,0,1-.2-.342,1.543,1.543,0,0,1-.072-.5v-.452a1.542,1.542,0,0,1,.072-.5.925.925,0,0,1,.2-.342.772.772,0,0,1,.3-.2,1.182,1.182,0,0,1,.762,0,.773.773,0,0,1,.3.2.909.909,0,0,1,.2.342,1.574,1.574,0,0,1,.07.5Zm-.326-.452a1.388,1.388,0,0,0-.044-.375.692.692,0,0,0-.124-.252.46.46,0,0,0-.2-.142.788.788,0,0,0-.518,0,.474.474,0,0,0-.2.142.671.671,0,0,0-.126.252,1.394,1.394,0,0,0-.044.375v.452a1.394,1.394,0,0,0,.044.375.693.693,0,0,0,.124.252.46.46,0,0,0,.2.142.737.737,0,0,0,.26.044.724.724,0,0,0,.259-.044.46.46,0,0,0,.2-.142.7.7,0,0,0,.124-.252,1.388,1.388,0,0,0,.044-.375Z" transform="translate(-256.097 -315.44)"/><path d="M279.381,318.727a.132.132,0,0,1-.049.023l-.112.019q-.056.009-.123.014c-.045,0-.095.007-.151.009s-.121,0-.2,0a1.144,1.144,0,0,1-.326-.049.746.746,0,0,1-.3-.174.914.914,0,0,1-.217-.333,1.422,1.422,0,0,1-.084-.528v-.487a1.435,1.435,0,0,1,.084-.531.9.9,0,0,1,.217-.331.753.753,0,0,1,.3-.172,1.138,1.138,0,0,1,.326-.049,2.576,2.576,0,0,1,.321.019q.153.019.268.037c.037,0,.056.02.056.046v.179a.051.051,0,0,1-.007.028c0,.007-.017.01-.035.01h-.011l-.117-.009-.147-.011-.163-.009q-.084,0-.161,0a.7.7,0,0,0-.24.04.469.469,0,0,0-.193.133.66.66,0,0,0-.13.245,1.292,1.292,0,0,0-.047.377v.487a1.274,1.274,0,0,0,.047.373.655.655,0,0,0,.13.246.485.485,0,0,0,.193.135.671.671,0,0,0,.24.042c.049,0,.1,0,.156,0l.161-.007.145-.009.116-.009h.014a.05.05,0,0,1,.056.056v.144A.055.055,0,0,1,279.381,318.727Z" transform="translate(-269.377 -315.44)"/><path d="M291.647,318.891a.056.056,0,0,1-.045.021h-.193a.056.056,0,0,1-.046-.021.074.074,0,0,1-.018-.049v-2.468a.068.068,0,0,1,.018-.047.059.059,0,0,1,.046-.019h.193a.059.059,0,0,1,.045.019.069.069,0,0,1,.018.047v2.468A.075.075,0,0,1,291.647,318.891Z" transform="translate(-280.89 -315.581)"/><path d="M298.27,318.715q0,.056-.06.056H298a.049.049,0,0,1-.039-.016.1.1,0,0,1-.021-.037l-.228-.806h-.908l-.224.806a.086.086,0,0,1-.024.037.056.056,0,0,1-.039.016h-.207q-.06,0-.06-.056a.059.059,0,0,1,0-.025l.649-2.283a.353.353,0,0,1,.061-.131.335.335,0,0,1,.089-.081.339.339,0,0,1,.1-.042.463.463,0,0,1,.1-.012.513.513,0,0,1,.1.011.319.319,0,0,1,.1.04.344.344,0,0,1,.089.081.354.354,0,0,1,.061.132l.649,2.286A.059.059,0,0,1,298.27,318.715Zm-.94-2.233q-.018-.063-.067-.063t-.07.063l-.319,1.154h.775Z" transform="translate(-285.069 -315.44)"/><path d="M312.984,318.68a.055.055,0,0,1-.021.047.131.131,0,0,1-.049.023l-.112.019c-.037.006-.078.01-.123.014s-.095.007-.151.009-.121,0-.2,0a1.144,1.144,0,0,1-.326-.049.746.746,0,0,1-.3-.174.914.914,0,0,1-.217-.333,1.422,1.422,0,0,1-.084-.528v-.487a1.435,1.435,0,0,1,.084-.531.9.9,0,0,1,.217-.331.754.754,0,0,1,.3-.172,1.138,1.138,0,0,1,.326-.049,2.577,2.577,0,0,1,.321.019q.153.019.268.037c.037,0,.056.02.056.046v.179a.051.051,0,0,1-.007.028c0,.007-.016.01-.035.01h-.011l-.117-.009-.147-.011-.163-.009c-.056,0-.11,0-.161,0a.7.7,0,0,0-.24.04.468.468,0,0,0-.193.133.659.659,0,0,0-.13.245,1.292,1.292,0,0,0-.047.377v.487a1.274,1.274,0,0,0,.047.373.655.655,0,0,0,.13.246.484.484,0,0,0,.193.135.671.671,0,0,0,.24.042c.049,0,.1,0,.156,0l.161-.007.145-.009.116-.009h.014a.05.05,0,0,1,.056.056Zm-.452.228a.041.041,0,0,1-.014.028l-.4.442a.466.466,0,0,1-.039.04.062.062,0,0,1-.042.012h-.189c-.021,0-.032-.008-.032-.025a.069.069,0,0,1,.014-.035l.34-.435a.24.24,0,0,1,.042-.04.077.077,0,0,1,.046-.012h.231C312.519,318.883,312.532,318.891,312.532,318.908Z" transform="translate(-297.97 -315.44)"/><path d="M325.552,314.817q0,.056-.06.056h-.207a.048.048,0,0,1-.038-.016.1.1,0,0,1-.021-.037l-.228-.806h-.908l-.224.806a.085.085,0,0,1-.025.037.056.056,0,0,1-.039.016H323.6q-.06,0-.059-.056a.06.06,0,0,1,0-.025l.649-2.283a.353.353,0,0,1,.062-.131.337.337,0,0,1,.089-.081.342.342,0,0,1,.1-.042.463.463,0,0,1,.1-.012.51.51,0,0,1,.1.011.32.32,0,0,1,.1.04.342.342,0,0,1,.089.081.354.354,0,0,1,.061.131l.649,2.286A.059.059,0,0,1,325.552,314.817Zm-.375-3.079a.431.431,0,0,1-.075.275.31.31,0,0,1-.254.093.4.4,0,0,1-.117-.018.327.327,0,0,1-.107-.056l-.214-.172a.963.963,0,0,0-.088-.063.112.112,0,0,0-.056-.014.09.09,0,0,0-.086.04.251.251,0,0,0-.023.121v.074a.06.06,0,0,1-.06.06h-.109a.051.051,0,0,1-.04-.018.06.06,0,0,1-.016-.042v-.074a.412.412,0,0,1,.088-.286.315.315,0,0,1,.245-.1.267.267,0,0,1,.11.023.484.484,0,0,1,.1.062l.249.2a.274.274,0,0,0,.063.035.163.163,0,0,0,.06.014.1.1,0,0,0,.079-.032.2.2,0,0,0,.026-.123v-.081a.06.06,0,0,1,.06-.06h.109a.052.052,0,0,1,.04.018.061.061,0,0,1,.016.042Zm-.565.845c-.012-.042-.034-.063-.067-.063s-.058.021-.07.063l-.319,1.154h.775Z" transform="translate(-308.297 -311.542)"/><path d="M340.516,317.694a1.576,1.576,0,0,1-.07.5.913.913,0,0,1-.2.342.774.774,0,0,1-.3.2,1.184,1.184,0,0,1-.762,0,.773.773,0,0,1-.3-.2.93.93,0,0,1-.2-.342,1.539,1.539,0,0,1-.072-.5v-.452a1.537,1.537,0,0,1,.072-.5.927.927,0,0,1,.2-.342.772.772,0,0,1,.3-.2,1.182,1.182,0,0,1,.762,0,.773.773,0,0,1,.3.2.91.91,0,0,1,.2.342,1.574,1.574,0,0,1,.07.5Zm-.326-.452a1.389,1.389,0,0,0-.044-.375.69.69,0,0,0-.124-.252.462.462,0,0,0-.2-.142.788.788,0,0,0-.518,0,.474.474,0,0,0-.2.142.674.674,0,0,0-.126.252,1.4,1.4,0,0,0-.044.375v.452a1.4,1.4,0,0,0,.044.375.7.7,0,0,0,.124.252.461.461,0,0,0,.2.142.736.736,0,0,0,.26.044.725.725,0,0,0,.259-.044.462.462,0,0,0,.2-.142.693.693,0,0,0,.124-.252,1.388,1.388,0,0,0,.044-.375Z" transform="translate(-321.137 -315.44)"/><path d="M364.77,318.883a.1.1,0,0,1-.071.03h-.215a.113.113,0,0,1-.112-.056l-1.083-2.058c0-.007-.008-.01-.011-.01s0,0,0,.01v2.048a.068.068,0,0,1-.017.047.059.059,0,0,1-.046.019h-.182a.125.125,0,0,1-.045-.007c-.012,0-.018-.016-.018-.035v-2.465a.092.092,0,0,1,.03-.07.1.1,0,0,1,.072-.028h.193a.2.2,0,0,1,.1.016.145.145,0,0,1,.046.054l1.076,2.048.007.011s0,0,0-.011v-2.051a.068.068,0,0,1,.017-.047.058.058,0,0,1,.045-.019h.184a.058.058,0,0,1,.045.019.068.068,0,0,1,.018.047v2.437A.1.1,0,0,1,364.77,318.883Z" transform="translate(-341.869 -315.581)"/><path d="M379.872,318.715c0,.037-.02.056-.06.056h-.207a.048.048,0,0,1-.038-.016.1.1,0,0,1-.021-.037l-.228-.806h-.908l-.224.806a.087.087,0,0,1-.025.037.056.056,0,0,1-.039.016h-.207c-.04,0-.06-.019-.06-.056a.059.059,0,0,1,0-.025l.649-2.283a.353.353,0,0,1,.062-.131.338.338,0,0,1,.089-.081.342.342,0,0,1,.1-.042.461.461,0,0,1,.1-.012.512.512,0,0,1,.1.011.317.317,0,0,1,.1.04.342.342,0,0,1,.089.081.354.354,0,0,1,.061.132l.649,2.286A.059.059,0,0,1,379.872,318.715Zm-.94-2.233c-.012-.042-.034-.063-.067-.063s-.058.021-.07.063l-.319,1.154h.775Z" transform="translate(-354.546 -315.44)"/><path d="M394.564,318.727a.131.131,0,0,1-.049.023l-.112.019q-.056.009-.123.014c-.044,0-.095.007-.151.009s-.122,0-.2,0a1.144,1.144,0,0,1-.326-.049.744.744,0,0,1-.3-.174.914.914,0,0,1-.217-.333,1.422,1.422,0,0,1-.084-.528v-.487a1.435,1.435,0,0,1,.084-.531.9.9,0,0,1,.217-.331.752.752,0,0,1,.3-.172,1.138,1.138,0,0,1,.326-.049,2.577,2.577,0,0,1,.321.019q.153.019.268.037c.037,0,.056.02.056.046v.179a.051.051,0,0,1-.007.028c0,.007-.016.01-.035.01h-.01l-.118-.009-.147-.011-.163-.009q-.084,0-.161,0a.7.7,0,0,0-.24.04.469.469,0,0,0-.193.133.66.66,0,0,0-.13.245,1.292,1.292,0,0,0-.047.377v.487a1.274,1.274,0,0,0,.047.373.655.655,0,0,0,.13.246.485.485,0,0,0,.193.135.671.671,0,0,0,.24.042c.049,0,.1,0,.156,0l.161-.007.145-.009.116-.009h.014a.05.05,0,0,1,.056.056v.144A.055.055,0,0,1,394.564,318.727Z" transform="translate(-367.446 -315.44)"/><path d="M406.83,318.891a.056.056,0,0,1-.045.021h-.193a.056.056,0,0,1-.046-.021.073.073,0,0,1-.018-.049v-2.468a.067.067,0,0,1,.018-.047.059.059,0,0,1,.046-.019h.193a.059.059,0,0,1,.045.019.069.069,0,0,1,.018.047v2.468A.075.075,0,0,1,406.83,318.891Z" transform="translate(-378.958 -315.581)"/><path d="M414.07,317.694a1.575,1.575,0,0,1-.07.5.913.913,0,0,1-.2.342.773.773,0,0,1-.3.2,1.184,1.184,0,0,1-.762,0,.773.773,0,0,1-.3-.2.93.93,0,0,1-.2-.342,1.543,1.543,0,0,1-.072-.5v-.452a1.542,1.542,0,0,1,.072-.5.927.927,0,0,1,.2-.342.772.772,0,0,1,.3-.2,1.182,1.182,0,0,1,.762,0,.772.772,0,0,1,.3.2.91.91,0,0,1,.2.342,1.573,1.573,0,0,1,.07.5Zm-.326-.452a1.394,1.394,0,0,0-.044-.375.693.693,0,0,0-.124-.252.462.462,0,0,0-.2-.142.789.789,0,0,0-.518,0,.474.474,0,0,0-.2.142.673.673,0,0,0-.126.252,1.394,1.394,0,0,0-.044.375v.452a1.394,1.394,0,0,0,.044.375.693.693,0,0,0,.124.252.459.459,0,0,0,.2.142.736.736,0,0,0,.26.044.724.724,0,0,0,.259-.044.462.462,0,0,0,.2-.142.7.7,0,0,0,.124-.252,1.394,1.394,0,0,0,.044-.375Z" transform="translate(-383.761 -315.44)"/><path d="M430,318.883a.1.1,0,0,1-.071.03h-.215a.113.113,0,0,1-.112-.056l-1.083-2.058c0-.007-.008-.01-.011-.01s0,0,0,.01v2.048a.068.068,0,0,1-.018.047.059.059,0,0,1-.046.019h-.182a.126.126,0,0,1-.046-.007c-.012,0-.018-.016-.018-.035v-2.465a.092.092,0,0,1,.03-.07.1.1,0,0,1,.072-.028h.193a.2.2,0,0,1,.1.016.144.144,0,0,1,.046.054l1.076,2.048.007.011s0,0,0-.011v-2.051a.069.069,0,0,1,.018-.047.058.058,0,0,1,.045-.019h.184a.058.058,0,0,1,.045.019.068.068,0,0,1,.018.047v2.437A.1.1,0,0,1,430,318.883Z" transform="translate(-397.403 -315.581)"/><path d="M445.1,318.715c0,.037-.02.056-.06.056h-.207a.048.048,0,0,1-.038-.016.1.1,0,0,1-.021-.037l-.228-.806h-.908l-.224.806a.085.085,0,0,1-.024.037.056.056,0,0,1-.039.016h-.207c-.04,0-.06-.019-.06-.056a.063.063,0,0,1,0-.025l.649-2.283a.354.354,0,0,1,.061-.131.337.337,0,0,1,.089-.081.342.342,0,0,1,.1-.042.461.461,0,0,1,.1-.012.51.51,0,0,1,.1.011.32.32,0,0,1,.1.04.347.347,0,0,1,.089.081.354.354,0,0,1,.061.132l.649,2.286A.059.059,0,0,1,445.1,318.715Zm-.94-2.233c-.012-.042-.034-.063-.067-.063s-.058.021-.07.063l-.319,1.154h.775Z" transform="translate(-410.082 -315.44)"/><path d="M460.21,318.888a.039.039,0,0,1-.026.018c-.047.007-.131.014-.252.021s-.265.011-.431.011a1.777,1.777,0,0,1-.275-.021.607.607,0,0,1-.24-.089.483.483,0,0,1-.168-.2.792.792,0,0,1-.063-.345v-1.907a.072.072,0,0,1,.07-.07H459a.072.072,0,0,1,.07.07v1.907a.78.78,0,0,0,.016.17.222.222,0,0,0,.061.112.27.27,0,0,0,.13.063,1.054,1.054,0,0,0,.225.019h.677c.026,0,.039.014.039.042v.165A.058.058,0,0,1,460.21,318.888Z" transform="translate(-423.424 -315.581)"/><path d="M480.983,317.7a1.426,1.426,0,0,1-.075.488.883.883,0,0,1-.214.34.871.871,0,0,1-.335.2,1.4,1.4,0,0,1-.438.065q-.1,0-.2,0l-.182-.009-.152-.011a1.048,1.048,0,0,1-.105-.012.078.078,0,0,1-.074-.088v-2.409a.078.078,0,0,1,.074-.088c.026,0,.061-.009.105-.012l.152-.01.182-.009q.1,0,.2,0a1.43,1.43,0,0,1,.438.063.846.846,0,0,1,.335.2.9.9,0,0,1,.214.34,1.421,1.421,0,0,1,.075.489Zm-.319-.475a1.173,1.173,0,0,0-.058-.4.638.638,0,0,0-.157-.251.57.57,0,0,0-.234-.132,1.053,1.053,0,0,0-.292-.039l-.212,0c-.059,0-.118,0-.176.009v2.093c.056,0,.114.007.175.007h.213a1.058,1.058,0,0,0,.292-.039.557.557,0,0,0,.234-.133.655.655,0,0,0,.157-.251,1.159,1.159,0,0,0,.058-.4Z" transform="translate(-440.84 -315.44)"/><path d="M495.813,317.694a1.575,1.575,0,0,1-.07.5.912.912,0,0,1-.2.342.774.774,0,0,1-.3.2,1.185,1.185,0,0,1-.762,0,.772.772,0,0,1-.3-.2.93.93,0,0,1-.2-.342,1.544,1.544,0,0,1-.072-.5v-.452a1.542,1.542,0,0,1,.072-.5.927.927,0,0,1,.2-.342.772.772,0,0,1,.3-.2,1.182,1.182,0,0,1,.762,0,.774.774,0,0,1,.3.2.909.909,0,0,1,.2.342,1.573,1.573,0,0,1,.07.5Zm-.326-.452a1.387,1.387,0,0,0-.044-.375.69.69,0,0,0-.124-.252.461.461,0,0,0-.2-.142.788.788,0,0,0-.517,0,.472.472,0,0,0-.2.142.671.671,0,0,0-.126.252,1.4,1.4,0,0,0-.044.375v.452a1.4,1.4,0,0,0,.044.375.693.693,0,0,0,.124.252.459.459,0,0,0,.2.142.737.737,0,0,0,.26.044.723.723,0,0,0,.259-.044.462.462,0,0,0,.2-.142.693.693,0,0,0,.124-.252,1.386,1.386,0,0,0,.044-.375Z" transform="translate(-453.359 -315.44)"/><path d="M510.852,318.094a.86.86,0,0,1-.039.252.557.557,0,0,1-.135.226.693.693,0,0,1-.265.161,1.27,1.27,0,0,1-.428.061,2.9,2.9,0,0,1-.326-.016q-.14-.016-.256-.033a.09.09,0,0,1-.056-.021.069.069,0,0,1-.01-.042v-.14a.051.051,0,0,1,.017-.042.066.066,0,0,1,.042-.014h.01c.04,0,.085.008.135.01l.154.005.154,0,.135,0a.963.963,0,0,0,.261-.03.4.4,0,0,0,.163-.084.3.3,0,0,0,.084-.132.559.559,0,0,0,.025-.168.335.335,0,0,0-.021-.121.342.342,0,0,0-.07-.107.879.879,0,0,0-.13-.11q-.081-.058-.2-.132l-.34-.207a1.4,1.4,0,0,1-.363-.3.551.551,0,0,1-.121-.359.531.531,0,0,1,.219-.47,1.091,1.091,0,0,1,.623-.151c.052,0,.106,0,.163,0l.168.009q.082.005.156.014l.123.016c.04.007.06.027.06.06v.151c0,.037-.02.056-.06.056h-.007l-.282-.014q-.167-.007-.321-.007a.827.827,0,0,0-.394.07.278.278,0,0,0-.121.263.293.293,0,0,0,.091.214,1.53,1.53,0,0,0,.29.21l.322.193a2.4,2.4,0,0,1,.255.175,1.07,1.07,0,0,1,.171.168.538.538,0,0,1,.094.175A.668.668,0,0,1,510.852,318.094Z" transform="translate(-466.438 -315.44)"/><path d="M532.686,317.53a.067.067,0,0,1-.049.021H531.56v1.15a.069.069,0,0,1-.021.049.068.068,0,0,1-.049.021h-.179a.072.072,0,0,1-.07-.07v-1.907a.608.608,0,0,1,.188-.5.879.879,0,0,1,.559-.151l.174,0,.191,0q.095,0,.179.007l.14.009a.039.039,0,0,1,.026.018.059.059,0,0,1,.009.031v.175c0,.028-.013.042-.038.042h-.677a1.039,1.039,0,0,0-.224.019.269.269,0,0,0-.13.063.22.22,0,0,0-.061.114.78.78,0,0,0-.016.168v.487h1.076a.067.067,0,0,1,.049.021.066.066,0,0,1,.021.048v.131A.066.066,0,0,1,532.686,317.53Z" transform="translate(-485.141 -315.44)"/><path d="M543.64,318.715q0,.056-.06.056h-.207a.048.048,0,0,1-.039-.016.1.1,0,0,1-.021-.037l-.228-.806h-.908l-.224.806a.085.085,0,0,1-.025.037.056.056,0,0,1-.039.016h-.207c-.04,0-.06-.019-.06-.056a.06.06,0,0,1,0-.025l.649-2.283a.357.357,0,0,1,.062-.131.334.334,0,0,1,.089-.081.34.34,0,0,1,.1-.042.462.462,0,0,1,.1-.012.512.512,0,0,1,.1.011.32.32,0,0,1,.1.04.345.345,0,0,1,.089.081.354.354,0,0,1,.061.132l.649,2.286A.06.06,0,0,1,543.64,318.715Zm-.94-2.233q-.018-.063-.067-.063c-.035,0-.058.021-.07.063l-.319,1.154h.775Z" transform="translate(-493.982 -315.44)"/><path d="M559.43,318.051a.728.728,0,0,1-.082.365.619.619,0,0,1-.224.228.971.971,0,0,1-.328.118,2.2,2.2,0,0,1-.389.033q-.175,0-.323-.007a2.118,2.118,0,0,1-.249-.025.144.144,0,0,1-.088-.035.131.131,0,0,1-.028-.095V316.3a.114.114,0,0,1,.112-.13q.088-.01.237-.019t.321-.009a2.394,2.394,0,0,1,.4.031,1.033,1.033,0,0,1,.326.109.564.564,0,0,1,.305.536v.056a.58.58,0,0,1-.1.338.587.587,0,0,1-.277.212.557.557,0,0,1,.286.214.611.611,0,0,1,.1.354Zm-.333-1.233a.373.373,0,0,0-.051-.205.35.35,0,0,0-.143-.125.694.694,0,0,0-.222-.061,2.367,2.367,0,0,0-.29-.016q-.091,0-.182,0l-.164.007v.87h.538a.8.8,0,0,0,.25-.033.413.413,0,0,0,.159-.091.309.309,0,0,0,.082-.133.55.55,0,0,0,.023-.16Zm.014,1.173a.579.579,0,0,0-.024-.169.339.339,0,0,0-.086-.143.436.436,0,0,0-.163-.1.752.752,0,0,0-.255-.037h-.538v.968l.18.009c.062,0,.123.005.184.005a1.844,1.844,0,0,0,.292-.021.645.645,0,0,0,.222-.074.362.362,0,0,0,.14-.144.5.5,0,0,0,.049-.236Z" transform="translate(-507.685 -315.44)"/><path d="M574.036,318.725a.04.04,0,0,1-.046.046h-.224a.2.2,0,0,1-.051-.005q-.019-.005-.04-.041l-.628-1.045h-.091l-.167,0-.219-.009V318.7a.075.075,0,0,1-.017.049.056.056,0,0,1-.046.021h-.189a.056.056,0,0,1-.045-.021.073.073,0,0,1-.018-.049v-2.454a.07.07,0,0,1,.018-.055.133.133,0,0,1,.067-.023c.037,0,.081-.009.132-.012l.158-.009.167-.005.161,0a1.854,1.854,0,0,1,.388.039.894.894,0,0,1,.312.126.62.62,0,0,1,.207.232.765.765,0,0,1,.075.358v.025a.815.815,0,0,1-.04.265.645.645,0,0,1-.114.205.676.676,0,0,1-.175.147.882.882,0,0,1-.221.091l.638,1.065A.061.061,0,0,1,574.036,318.725Zm-.414-1.829a.392.392,0,0,0-.168-.366.976.976,0,0,0-.5-.1h-.095l-.107,0-.1,0-.081.005v.964l.221.005.165,0a1.589,1.589,0,0,0,.286-.023.547.547,0,0,0,.208-.079.364.364,0,0,0,.128-.15.559.559,0,0,0,.044-.237Z" transform="translate(-520.061 -315.44)"/><path d="M587.544,318.891a.056.056,0,0,1-.046.021h-.193a.056.056,0,0,1-.046-.021.074.074,0,0,1-.018-.049v-2.468a.068.068,0,0,1,.018-.047.059.059,0,0,1,.046-.019h.193a.06.06,0,0,1,.046.019.068.068,0,0,1,.018.047v2.468A.075.075,0,0,1,587.544,318.891Z" transform="translate(-532.822 -315.581)"/><path d="M594.439,318.727a.131.131,0,0,1-.049.023l-.112.019q-.056.009-.123.014c-.044,0-.095.007-.151.009s-.122,0-.2,0a1.146,1.146,0,0,1-.326-.049.745.745,0,0,1-.3-.174.914.914,0,0,1-.217-.333,1.422,1.422,0,0,1-.084-.528v-.487a1.435,1.435,0,0,1,.084-.531.9.9,0,0,1,.217-.331.752.752,0,0,1,.3-.172,1.14,1.14,0,0,1,.326-.049,2.579,2.579,0,0,1,.321.019q.153.019.268.037c.037,0,.056.02.056.046v.179a.051.051,0,0,1-.007.028c-.005.007-.017.01-.035.01h-.01l-.117-.009-.147-.011-.163-.009q-.084,0-.161,0a.7.7,0,0,0-.24.04.47.47,0,0,0-.193.133.659.659,0,0,0-.13.245,1.288,1.288,0,0,0-.047.377v.487a1.27,1.27,0,0,0,.047.373.655.655,0,0,0,.13.246.486.486,0,0,0,.193.135.671.671,0,0,0,.24.042c.049,0,.1,0,.156,0l.161-.007.145-.009.116-.009h.014a.05.05,0,0,1,.056.056v.144A.055.055,0,0,1,594.439,318.727Z" transform="translate(-537.624 -315.44)"/><path d="M607.027,318.715q0,.056-.06.056h-.207a.048.048,0,0,1-.039-.016.1.1,0,0,1-.021-.037l-.228-.806h-.908l-.224.806a.084.084,0,0,1-.025.037.056.056,0,0,1-.039.016h-.207c-.04,0-.06-.019-.06-.056a.059.059,0,0,1,0-.025l.649-2.283a.354.354,0,0,1,.061-.131.336.336,0,0,1,.089-.081.343.343,0,0,1,.1-.042.462.462,0,0,1,.1-.012.513.513,0,0,1,.1.011.318.318,0,0,1,.1.04.342.342,0,0,1,.089.081.356.356,0,0,1,.061.132l.649,2.286A.058.058,0,0,1,607.027,318.715Zm-.94-2.233q-.018-.063-.067-.063c-.035,0-.058.021-.07.063l-.319,1.154h.775Z" transform="translate(-547.951 -315.44)"/><path d="M622.91,318.883a.1.1,0,0,1-.071.03h-.215a.113.113,0,0,1-.112-.056l-1.083-2.058c0-.007-.008-.01-.011-.01s0,0,0,.01v2.048a.068.068,0,0,1-.017.047.059.059,0,0,1-.046.019h-.182a.125.125,0,0,1-.046-.007c-.012,0-.018-.016-.018-.035v-2.465a.092.092,0,0,1,.03-.07.1.1,0,0,1,.072-.028h.193a.2.2,0,0,1,.1.016.144.144,0,0,1,.046.054l1.076,2.048.007.011s0,0,0-.011v-2.051a.068.068,0,0,1,.017-.047.058.058,0,0,1,.045-.019h.184a.058.058,0,0,1,.045.019.068.068,0,0,1,.018.047v2.437A.1.1,0,0,1,622.91,318.883Z" transform="translate(-561.654 -315.581)"/><path d="M637.092,316.577h-.684v2.265a.075.075,0,0,1-.018.049.057.057,0,0,1-.046.021h-.193a.056.056,0,0,1-.045-.021.074.074,0,0,1-.018-.049v-2.265h-.684a.086.086,0,0,1-.049-.014.046.046,0,0,1-.021-.041v-.152a.056.056,0,0,1,.021-.045.076.076,0,0,1,.049-.017h1.687c.044,0,.067.021.067.062v.152C637.159,316.558,637.136,316.577,637.092,316.577Z" transform="translate(-573.769 -315.581)"/><path d="M651.094,318.76a.038.038,0,0,1-.026.018,1.207,1.207,0,0,1-.133.009l-.181.005c-.064,0-.129,0-.195,0h-.175a.879.879,0,0,1-.559-.151.607.607,0,0,1-.188-.5v-1.35a.607.607,0,0,1,.188-.5.879.879,0,0,1,.559-.151l.173,0,.191,0q.095,0,.179.007l.14.009a.039.039,0,0,1,.026.018.059.059,0,0,1,.009.031v.175c0,.028-.013.042-.039.042h-.677a1.039,1.039,0,0,0-.224.019.27.27,0,0,0-.13.063.222.222,0,0,0-.061.114.78.78,0,0,0-.016.168v.487h1.076a.068.068,0,0,1,.049.021.065.065,0,0,1,.021.048v.131a.065.065,0,0,1-.021.048.068.068,0,0,1-.049.021h-1.076v.591a.779.779,0,0,0,.016.171.223.223,0,0,0,.061.113.272.272,0,0,0,.13.063,1.037,1.037,0,0,0,.224.019h.677q.039,0,.039.042v.179A.058.058,0,0,1,651.094,318.76Z" transform="translate(-585.946 -315.44)"/><path d="M663.557,318.094a.857.857,0,0,1-.039.252.555.555,0,0,1-.135.226.694.694,0,0,1-.265.161,1.271,1.271,0,0,1-.428.061,2.9,2.9,0,0,1-.326-.016q-.14-.016-.256-.033a.09.09,0,0,1-.056-.021.068.068,0,0,1-.011-.042v-.14a.051.051,0,0,1,.018-.042.066.066,0,0,1,.042-.014h.01c.04,0,.085.008.135.01l.154.005.154,0,.135,0a.961.961,0,0,0,.261-.03.4.4,0,0,0,.163-.084.3.3,0,0,0,.084-.132.561.561,0,0,0,.024-.168.309.309,0,0,0-.091-.228.88.88,0,0,0-.13-.11c-.054-.038-.12-.082-.2-.132l-.34-.207a1.4,1.4,0,0,1-.363-.3.551.551,0,0,1-.121-.359.531.531,0,0,1,.219-.47,1.09,1.09,0,0,1,.622-.151q.077,0,.163,0l.168.009q.083.005.156.014l.123.016c.04.007.06.027.06.06v.151q0,.056-.06.056h-.007l-.282-.014q-.167-.007-.321-.007a.826.826,0,0,0-.394.07.278.278,0,0,0-.121.263.293.293,0,0,0,.091.214,1.529,1.529,0,0,0,.29.21l.322.193a2.4,2.4,0,0,1,.255.175,1.081,1.081,0,0,1,.171.168.543.543,0,0,1,.094.175A.67.67,0,0,1,663.557,318.094Z" transform="translate(-596.454 -315.44)"/><path d="M685.72,317.7a1.43,1.43,0,0,1-.075.488.883.883,0,0,1-.214.34.869.869,0,0,1-.335.2,1.4,1.4,0,0,1-.438.065c-.068,0-.134,0-.2,0l-.182-.009-.153-.011a1.052,1.052,0,0,1-.105-.012.078.078,0,0,1-.074-.088v-2.409a.078.078,0,0,1,.074-.088c.026,0,.061-.009.105-.012l.153-.01.182-.009c.064,0,.13,0,.2,0a1.429,1.429,0,0,1,.438.063.844.844,0,0,1,.335.2.9.9,0,0,1,.214.34,1.425,1.425,0,0,1,.075.489Zm-.319-.475a1.164,1.164,0,0,0-.058-.4.636.636,0,0,0-.157-.251.569.569,0,0,0-.234-.132,1.051,1.051,0,0,0-.292-.039l-.211,0c-.06,0-.118,0-.176.009v2.093c.056,0,.114.007.175.007h.213a1.057,1.057,0,0,0,.292-.039.557.557,0,0,0,.234-.133.653.653,0,0,0,.157-.251,1.15,1.15,0,0,0,.058-.4Z" transform="translate(-615.157 -315.44)"/><path d="M700.529,318.76a.038.038,0,0,1-.026.018,1.212,1.212,0,0,1-.133.009l-.181.005q-.1,0-.195,0h-.175a.879.879,0,0,1-.559-.151.607.607,0,0,1-.188-.5v-1.35a.607.607,0,0,1,.188-.5.879.879,0,0,1,.559-.151l.173,0,.191,0q.095,0,.179.007l.14.009a.039.039,0,0,1,.026.018.059.059,0,0,1,.009.031v.175c0,.028-.013.042-.038.042h-.677a1.042,1.042,0,0,0-.224.019.269.269,0,0,0-.13.063.221.221,0,0,0-.061.114.776.776,0,0,0-.016.168v.487h1.076a.067.067,0,0,1,.049.021.065.065,0,0,1,.021.048v.131a.065.065,0,0,1-.021.048.067.067,0,0,1-.049.021h-1.076v.591a.776.776,0,0,0,.016.171.222.222,0,0,0,.061.113.272.272,0,0,0,.13.063,1.039,1.039,0,0,0,.224.019h.677c.026,0,.038.014.038.042v.179A.058.058,0,0,1,700.529,318.76Z" transform="translate(-628.036 -315.44)"/><path d="M721.534,318.727a.131.131,0,0,1-.049.023l-.112.019c-.037.006-.078.01-.123.014s-.095.007-.151.009-.122,0-.2,0a1.144,1.144,0,0,1-.326-.049.746.746,0,0,1-.3-.174.918.918,0,0,1-.217-.333,1.421,1.421,0,0,1-.084-.528v-.487a1.433,1.433,0,0,1,.084-.531.9.9,0,0,1,.217-.331.753.753,0,0,1,.3-.172,1.137,1.137,0,0,1,.326-.049,2.585,2.585,0,0,1,.321.019q.152.019.268.037c.037,0,.056.02.056.046v.179a.05.05,0,0,1-.007.028c0,.007-.016.01-.035.01h-.01l-.118-.009-.147-.011-.163-.009c-.056,0-.11,0-.161,0a.7.7,0,0,0-.24.04.47.47,0,0,0-.193.133.662.662,0,0,0-.13.245,1.293,1.293,0,0,0-.047.377v.487a1.274,1.274,0,0,0,.047.373.658.658,0,0,0,.13.246.486.486,0,0,0,.193.135.669.669,0,0,0,.24.042c.049,0,.1,0,.156,0l.161-.007.145-.009.116-.009h.014a.05.05,0,0,1,.056.056v.144A.055.055,0,0,1,721.534,318.727Z" transform="translate(-645.835 -315.44)"/><path d="M734.72,318.76a.038.038,0,0,1-.026.018,1.209,1.209,0,0,1-.133.009l-.181.005c-.064,0-.129,0-.195,0h-.175a.879.879,0,0,1-.559-.151.607.607,0,0,1-.188-.5v-1.35a.607.607,0,0,1,.188-.5.879.879,0,0,1,.559-.151l.173,0,.191,0c.063,0,.123,0,.179.007l.14.009a.039.039,0,0,1,.026.018.059.059,0,0,1,.009.031v.175c0,.028-.013.042-.038.042h-.677a1.042,1.042,0,0,0-.224.019.269.269,0,0,0-.13.063.22.22,0,0,0-.061.114.789.789,0,0,0-.016.168v.487h1.076a.068.068,0,0,1,.049.021.065.065,0,0,1,.021.048v.131a.065.065,0,0,1-.021.048.067.067,0,0,1-.049.021h-1.076v.591a.788.788,0,0,0,.016.171.221.221,0,0,0,.061.113.272.272,0,0,0,.13.063,1.04,1.04,0,0,0,.224.019h.677q.038,0,.038.042v.179A.059.059,0,0,1,734.72,318.76Z" transform="translate(-657.147 -315.44)"/><path d="M748.046,318.725a.04.04,0,0,1-.046.046h-.224a.2.2,0,0,1-.051-.005q-.019-.005-.04-.041l-.628-1.045h-.091l-.167,0-.219-.009V318.7a.075.075,0,0,1-.017.049.057.057,0,0,1-.046.021h-.189a.056.056,0,0,1-.045-.021.073.073,0,0,1-.018-.049v-2.454a.07.07,0,0,1,.018-.055.133.133,0,0,1,.066-.023c.037,0,.081-.009.132-.012l.158-.009.167-.005.161,0a1.854,1.854,0,0,1,.388.039.894.894,0,0,1,.312.126.617.617,0,0,1,.207.232.766.766,0,0,1,.075.358v.025a.815.815,0,0,1-.04.265.641.641,0,0,1-.114.205.674.674,0,0,1-.176.147.883.883,0,0,1-.221.091l.638,1.065A.061.061,0,0,1,748.046,318.725Zm-.414-1.829a.392.392,0,0,0-.168-.366.975.975,0,0,0-.5-.1h-.095l-.107,0-.1,0-.081.005v.964l.221.005.165,0a1.59,1.59,0,0,0,.286-.023.547.547,0,0,0,.208-.079.36.36,0,0,0,.128-.15.558.558,0,0,0,.044-.237Z" transform="translate(-668.217 -315.44)"/><path d="M761.875,314.7q0,.056-.06.056h-.207a.049.049,0,0,1-.039-.016.1.1,0,0,1-.021-.037l-.228-.806h-.908l-.224.806a.086.086,0,0,1-.025.037.056.056,0,0,1-.039.016h-.207c-.04,0-.06-.019-.06-.056a.063.063,0,0,1,0-.025l.649-2.283a.354.354,0,0,1,.061-.131.335.335,0,0,1,.089-.081.342.342,0,0,1,.1-.042.463.463,0,0,1,.1-.012.507.507,0,0,1,.1.011.322.322,0,0,1,.1.04.343.343,0,0,1,.089.081.353.353,0,0,1,.062.132l.649,2.286A.063.063,0,0,1,761.875,314.7Zm-.407-2.753c0,.017-.01.025-.032.025h-.182a.061.061,0,0,1-.042-.012.432.432,0,0,1-.039-.04l-.288-.34-.291.34a.4.4,0,0,1-.038.04.061.061,0,0,1-.042.012h-.182c-.021,0-.031-.008-.031-.025a.048.048,0,0,1,.014-.035l.337-.435a.41.41,0,0,1,.039-.04.068.068,0,0,1,.046-.012h.3a.076.076,0,0,1,.047.012.305.305,0,0,1,.04.04l.333.435A.047.047,0,0,1,761.468,311.944Zm-.533.519q-.018-.063-.067-.063t-.07.063l-.319,1.154h.775Z" transform="translate(-679.791 -311.422)"/><path d="M778.054,318.891a.066.066,0,0,1-.049.021h-.17a.066.066,0,0,1-.049-.021.068.068,0,0,1-.021-.049v-2.079c0-.007,0-.011,0-.011s0,0-.007.007l-.5,1.038a.237.237,0,0,1-.06.077.159.159,0,0,1-.1.024h-.162a.159.159,0,0,1-.1-.024.24.24,0,0,1-.06-.077l-.5-1.038s0-.007-.007-.007,0,0,0,.011v2.079a.067.067,0,0,1-.021.049.066.066,0,0,1-.048.021h-.17a.066.066,0,0,1-.049-.021.067.067,0,0,1-.021-.049v-2.433a.1.1,0,0,1,.03-.072.1.1,0,0,1,.071-.03h.226a.16.16,0,0,1,.072.012.1.1,0,0,1,.04.047l.58,1.2c.012.026.026.039.042.039s.03-.013.042-.039l.58-1.2a.106.106,0,0,1,.04-.047.159.159,0,0,1,.072-.012h.225a.1.1,0,0,1,.071.03.1.1,0,0,1,.029.072v2.433A.068.068,0,0,1,778.054,318.891Z" transform="translate(-693.495 -315.581)"/><path d="M794.45,318.891a.056.056,0,0,1-.045.021h-.193a.056.056,0,0,1-.046-.021.074.074,0,0,1-.018-.049v-2.468a.068.068,0,0,1,.018-.047.059.059,0,0,1,.046-.019h.193a.059.059,0,0,1,.045.019.069.069,0,0,1,.018.047v2.468A.075.075,0,0,1,794.45,318.891Z" transform="translate(-708.985 -315.581)"/><path d="M801.347,318.727a.13.13,0,0,1-.049.023l-.112.019c-.037.006-.078.01-.123.014s-.095.007-.151.009-.122,0-.2,0a1.143,1.143,0,0,1-.326-.049.744.744,0,0,1-.3-.174.916.916,0,0,1-.218-.333,1.426,1.426,0,0,1-.084-.528v-.487a1.439,1.439,0,0,1,.084-.531.9.9,0,0,1,.218-.331.751.751,0,0,1,.3-.172,1.137,1.137,0,0,1,.326-.049,2.579,2.579,0,0,1,.321.019q.153.019.268.037c.037,0,.056.02.056.046v.179a.051.051,0,0,1-.007.028c0,.007-.016.01-.035.01h-.01l-.117-.009-.147-.011-.163-.009q-.084,0-.161,0a.7.7,0,0,0-.24.04.47.47,0,0,0-.193.133.659.659,0,0,0-.13.245,1.288,1.288,0,0,0-.047.377v.487a1.27,1.27,0,0,0,.047.373.655.655,0,0,0,.13.246.486.486,0,0,0,.193.135.67.67,0,0,0,.24.042c.049,0,.1,0,.156,0l.161-.007.146-.009.116-.009h.014a.05.05,0,0,1,.056.056v.144A.055.055,0,0,1,801.347,318.727Z" transform="translate(-713.789 -315.44)"/><path d="M813.934,318.715q0,.056-.06.056h-.207a.048.048,0,0,1-.038-.016.1.1,0,0,1-.021-.037l-.228-.806h-.908l-.224.806a.084.084,0,0,1-.025.037.056.056,0,0,1-.039.016h-.207c-.04,0-.06-.019-.06-.056a.06.06,0,0,1,0-.025l.649-2.283a.355.355,0,0,1,.062-.131.334.334,0,0,1,.089-.081.341.341,0,0,1,.1-.042.462.462,0,0,1,.1-.012.511.511,0,0,1,.1.011.317.317,0,0,1,.1.04.342.342,0,0,1,.089.081.352.352,0,0,1,.061.132l.649,2.286A.06.06,0,0,1,813.934,318.715Zm-.94-2.233q-.018-.063-.067-.063c-.035,0-.058.021-.07.063l-.319,1.154h.775Z" transform="translate(-724.115 -315.44)"/><g transform="translate(0.057 4.656)"><path d="M222.913,347.964a.783.783,0,0,1-.07.348.6.6,0,0,1-.193.228.807.807,0,0,1-.292.126,1.668,1.668,0,0,1-.37.038c-.053,0-.11,0-.172,0s-.115-.007-.159-.012v.928a.07.07,0,0,1-.016.046.053.053,0,0,1-.043.02h-.178a.053.053,0,0,1-.043-.02.07.07,0,0,1-.017-.046v-2.3c0-.049.026-.076.079-.082q.106-.013.255-.02t.294-.007a1.689,1.689,0,0,1,.37.038.843.843,0,0,1,.292.122.58.58,0,0,1,.193.221.737.737,0,0,1,.07.335Zm-.3-.045a.4.4,0,0,0-.152-.356.843.843,0,0,0-.472-.105l-.173,0c-.065,0-.117.006-.157.01v.964l.073,0,.089,0,.091,0,.078,0a.777.777,0,0,0,.482-.115.451.451,0,0,0,.142-.372Z" transform="translate(-221.361 -346.543)"/><path d="M233.975,349.628c0,.035-.019.053-.056.053h-.195a.046.046,0,0,1-.036-.015.1.1,0,0,1-.02-.035l-.215-.759H232.6l-.211.759a.082.082,0,0,1-.023.035.054.054,0,0,1-.037.015h-.195c-.037,0-.056-.018-.056-.053a.055.055,0,0,1,0-.023l.611-2.15a.337.337,0,0,1,.058-.124.323.323,0,0,1,.084-.076.334.334,0,0,1,.1-.04.442.442,0,0,1,.1-.011.49.49,0,0,1,.1.01.3.3,0,0,1,.1.038.326.326,0,0,1,.084.076.335.335,0,0,1,.058.124l.611,2.153A.055.055,0,0,1,233.975,349.628Zm-.885-2.1c-.011-.04-.032-.059-.063-.059s-.055.02-.066.059l-.3,1.087h.73Z" transform="translate(-230.484 -346.543)"/><path d="M248.913,349.638a.038.038,0,0,1-.043.043h-.211a.19.19,0,0,1-.048,0c-.012,0-.025-.016-.038-.038l-.591-.984H247.9l-.157,0-.206-.008v.971a.07.07,0,0,1-.017.046.053.053,0,0,1-.043.02h-.178a.053.053,0,0,1-.043-.02.069.069,0,0,1-.016-.046V347.3a.066.066,0,0,1,.016-.051.123.123,0,0,1,.063-.021c.035,0,.077-.008.124-.012l.149-.008.157,0,.152,0a1.749,1.749,0,0,1,.365.036.844.844,0,0,1,.294.119.583.583,0,0,1,.195.218.719.719,0,0,1,.071.337v.023a.766.766,0,0,1-.038.249.6.6,0,0,1-.107.193.634.634,0,0,1-.165.139.837.837,0,0,1-.208.086l.6,1A.059.059,0,0,1,248.913,349.638Zm-.39-1.722a.369.369,0,0,0-.159-.345.917.917,0,0,0-.469-.1h-.089l-.1,0-.1,0-.076.005v.908l.208,0,.155,0a1.514,1.514,0,0,0,.269-.021.515.515,0,0,0,.2-.075.337.337,0,0,0,.12-.141.528.528,0,0,0,.041-.224Z" transform="translate(-243.391 -346.543)"/><path d="M261.937,349.628c0,.035-.019.053-.056.053h-.195a.046.046,0,0,1-.036-.015.1.1,0,0,1-.02-.035l-.215-.759h-.855l-.211.759a.079.079,0,0,1-.023.035.053.053,0,0,1-.036.015h-.195c-.037,0-.056-.018-.056-.053a.052.052,0,0,1,0-.023l.611-2.15a.337.337,0,0,1,.058-.124.323.323,0,0,1,.084-.076.332.332,0,0,1,.1-.04.44.44,0,0,1,.1-.011.493.493,0,0,1,.1.01.3.3,0,0,1,.1.038.328.328,0,0,1,.084.076.334.334,0,0,1,.058.124l.611,2.153A.061.061,0,0,1,261.937,349.628Zm-.885-2.1c-.011-.04-.032-.059-.063-.059s-.055.02-.066.059l-.3,1.087h.73Z" transform="translate(-254.291 -346.543)"/><path d="M284.718,349.638a.038.038,0,0,1-.043.043h-.211a.19.19,0,0,1-.048,0c-.012,0-.025-.016-.038-.038l-.591-.984H283.7l-.157,0-.206-.008v.971a.07.07,0,0,1-.016.046.053.053,0,0,1-.043.02H283.1a.053.053,0,0,1-.043-.02.069.069,0,0,1-.017-.046V347.3a.066.066,0,0,1,.017-.051.124.124,0,0,1,.063-.021c.035,0,.077-.008.124-.012l.149-.008.157,0,.152,0a1.746,1.746,0,0,1,.365.036.842.842,0,0,1,.294.119.581.581,0,0,1,.195.218.719.719,0,0,1,.071.337v.023a.771.771,0,0,1-.038.249.6.6,0,0,1-.107.193.636.636,0,0,1-.165.139.84.84,0,0,1-.208.086l.6,1A.06.06,0,0,1,284.718,349.638Zm-.39-1.722a.37.37,0,0,0-.159-.345.917.917,0,0,0-.469-.1h-.089l-.1,0-.1,0-.076.005v.908l.208,0,.155,0a1.513,1.513,0,0,0,.269-.021.517.517,0,0,0,.2-.075.338.338,0,0,0,.12-.141.525.525,0,0,0,.041-.224Z" transform="translate(-273.876 -346.543)"/><path d="M298.3,349.671a.036.036,0,0,1-.025.016,1.136,1.136,0,0,1-.125.008l-.17.005c-.061,0-.122,0-.183,0h-.165a.828.828,0,0,1-.527-.142.572.572,0,0,1-.177-.472v-1.271a.572.572,0,0,1,.177-.472.828.828,0,0,1,.527-.142l.164,0,.18,0c.06,0,.116,0,.168.007l.132.008a.036.036,0,0,1,.025.016.054.054,0,0,1,.008.03v.165c0,.026-.012.04-.036.04h-.637a.978.978,0,0,0-.211.018.253.253,0,0,0-.122.059.209.209,0,0,0-.058.107.732.732,0,0,0-.015.159v.459h1.014a.064.064,0,0,1,.046.02.062.062,0,0,1,.02.046v.124a.062.062,0,0,1-.02.046.063.063,0,0,1-.046.019h-1.014v.557a.729.729,0,0,0,.015.161.209.209,0,0,0,.058.106.256.256,0,0,0,.122.059.97.97,0,0,0,.211.018h.637c.024,0,.036.013.036.04v.168A.054.054,0,0,1,298.3,349.671Z" transform="translate(-285.704 -346.543)"/><path d="M310.1,347.415a.045.045,0,0,1,0,.02l-.608,2.15a.372.372,0,0,1-.061.127.328.328,0,0,1-.082.076.276.276,0,0,1-.1.038.508.508,0,0,1-.1.01.48.48,0,0,1-.1-.01.294.294,0,0,1-.1-.038.316.316,0,0,1-.084-.076.37.37,0,0,1-.061-.127l-.611-2.15a.043.043,0,0,1,0-.02.053.053,0,0,1,.016-.041.062.062,0,0,1,.043-.015h.192a.053.053,0,0,1,.036.015.08.08,0,0,1,.023.035l.575,2.1c.013.046.035.069.066.069s.049-.023.063-.069l.578-2.1a.088.088,0,0,1,.022-.035.047.047,0,0,1,.035-.015h.195A.05.05,0,0,1,310.1,347.415Z" transform="translate(-295.299 -346.675)"/><path d="M324.266,349.671a.036.036,0,0,1-.025.016,1.131,1.131,0,0,1-.125.008l-.17.005c-.06,0-.122,0-.183,0H323.6a.829.829,0,0,1-.527-.142.572.572,0,0,1-.177-.472v-1.271a.572.572,0,0,1,.177-.472.829.829,0,0,1,.527-.142l.164,0,.18,0q.089,0,.168.007l.132.008a.036.036,0,0,1,.025.016.055.055,0,0,1,.008.03v.165c0,.026-.012.04-.036.04H323.6a.979.979,0,0,0-.211.018.254.254,0,0,0-.122.059.209.209,0,0,0-.058.107.732.732,0,0,0-.015.159v.459h1.014a.064.064,0,0,1,.046.02.062.062,0,0,1,.02.046v.124a.062.062,0,0,1-.02.046.063.063,0,0,1-.046.019h-1.014v.557a.729.729,0,0,0,.015.161.209.209,0,0,0,.058.106.257.257,0,0,0,.122.059.971.971,0,0,0,.211.018h.638c.024,0,.036.013.036.04v.168A.055.055,0,0,1,324.266,349.671Z" transform="translate(-307.808 -346.543)"/><path d="M336.005,349.043a.809.809,0,0,1-.036.238.524.524,0,0,1-.127.213.648.648,0,0,1-.249.152,1.2,1.2,0,0,1-.4.058,2.81,2.81,0,0,1-.307-.015q-.132-.015-.241-.032a.088.088,0,0,1-.053-.02.067.067,0,0,1-.01-.04v-.132a.047.047,0,0,1,.017-.04.061.061,0,0,1,.039-.013h.01c.037,0,.08.008.127.01l.145,0,.145,0,.127,0a.9.9,0,0,0,.246-.028.38.38,0,0,0,.154-.079.279.279,0,0,0,.079-.124.513.513,0,0,0,.023-.159.314.314,0,0,0-.02-.114.318.318,0,0,0-.066-.1.836.836,0,0,0-.122-.1c-.051-.036-.113-.078-.188-.124l-.32-.195a1.324,1.324,0,0,1-.342-.279.521.521,0,0,1-.114-.339.5.5,0,0,1,.206-.443,1.028,1.028,0,0,1,.586-.142q.073,0,.154,0l.158.008q.078.005.147.013l.116.015c.037.007.056.025.056.056v.142c0,.035-.019.053-.056.053h-.007l-.266-.013q-.157-.007-.3-.007a.778.778,0,0,0-.371.066.262.262,0,0,0-.114.248.277.277,0,0,0,.086.2,1.44,1.44,0,0,0,.273.2l.3.182a2.285,2.285,0,0,1,.241.165,1.017,1.017,0,0,1,.161.159.507.507,0,0,1,.089.165A.635.635,0,0,1,336.005,349.043Z" transform="translate(-317.706 -346.543)"/><path d="M348.066,347.613h-.644v2.133a.071.071,0,0,1-.016.046.054.054,0,0,1-.043.02h-.182a.053.053,0,0,1-.043-.02.071.071,0,0,1-.017-.046v-2.133h-.644a.081.081,0,0,1-.046-.013.043.043,0,0,1-.02-.039v-.144a.052.052,0,0,1,.02-.042.07.07,0,0,1,.046-.016h1.588c.042,0,.063.02.063.059v.144C348.129,347.6,348.108,347.613,348.066,347.613Z" transform="translate(-327.832 -346.675)"/><path d="M360.987,349.793a.053.053,0,0,1-.043.02h-.182a.053.053,0,0,1-.043-.02.07.07,0,0,1-.017-.046v-2.325a.064.064,0,0,1,.017-.045.055.055,0,0,1,.043-.018h.182a.056.056,0,0,1,.043.018.064.064,0,0,1,.017.045v2.325A.07.07,0,0,1,360.987,349.793Z" transform="translate(-339.999 -346.675)"/><path d="M368.395,349.793a.063.063,0,0,1-.046.02h-.16a.063.063,0,0,1-.046-.02.064.064,0,0,1-.019-.046v-1.959c0-.007,0-.01,0-.01s0,0-.007.007l-.474.978a.222.222,0,0,1-.056.073.152.152,0,0,1-.093.023h-.152a.152.152,0,0,1-.093-.023.224.224,0,0,1-.056-.073l-.473-.978s0-.007-.007-.007,0,0,0,.01v1.959a.064.064,0,0,1-.019.046.063.063,0,0,1-.046.02h-.16a.062.062,0,0,1-.046-.02.063.063,0,0,1-.02-.046v-2.292a.093.093,0,0,1,.028-.068.092.092,0,0,1,.067-.028h.212a.152.152,0,0,1,.068.012.1.1,0,0,1,.038.044l.546,1.133c.011.024.024.036.04.036s.029-.012.04-.036l.546-1.133a.1.1,0,0,1,.038-.044.152.152,0,0,1,.068-.012h.213a.091.091,0,0,1,.067.028.093.093,0,0,1,.028.068v2.292A.064.064,0,0,1,368.395,349.793Z" transform="translate(-344.864 -346.675)"/><path d="M384.7,349.671a.036.036,0,0,1-.025.016,1.131,1.131,0,0,1-.125.008l-.17.005c-.061,0-.122,0-.183,0h-.165a.828.828,0,0,1-.527-.142.572.572,0,0,1-.177-.472v-1.271a.572.572,0,0,1,.177-.472.829.829,0,0,1,.527-.142l.164,0,.18,0q.089,0,.168.007l.132.008a.036.036,0,0,1,.025.016.054.054,0,0,1,.008.03v.165c0,.026-.012.04-.036.04h-.638a.977.977,0,0,0-.211.018.254.254,0,0,0-.122.059.208.208,0,0,0-.058.107.732.732,0,0,0-.015.159v.459h1.014a.064.064,0,0,1,.046.02.062.062,0,0,1,.02.046v.124a.062.062,0,0,1-.02.046.064.064,0,0,1-.046.019h-1.014v.557a.729.729,0,0,0,.015.161.209.209,0,0,0,.058.106.257.257,0,0,0,.122.059.969.969,0,0,0,.211.018h.638c.024,0,.036.013.036.04v.168A.054.054,0,0,1,384.7,349.671Z" transform="translate(-359.265 -346.543)"/><path d="M397.279,349.785a.091.091,0,0,1-.067.028h-.2a.106.106,0,0,1-.106-.053l-1.02-1.939c0-.007-.008-.01-.01-.01s0,0,0,.01v1.929a.064.064,0,0,1-.016.044.056.056,0,0,1-.043.018h-.172a.118.118,0,0,1-.043-.007c-.011,0-.017-.015-.017-.033v-2.322a.087.087,0,0,1,.028-.066.1.1,0,0,1,.068-.026h.181a.192.192,0,0,1,.093.015.136.136,0,0,1,.043.051l1.014,1.929.007.01s0,0,0-.01v-1.932a.064.064,0,0,1,.016-.045.054.054,0,0,1,.042-.018h.173a.055.055,0,0,1,.042.018.064.064,0,0,1,.016.045v2.3A.093.093,0,0,1,397.279,349.785Z" transform="translate(-369.694 -346.675)"/><path d="M410.636,347.613h-.644v2.133a.071.071,0,0,1-.017.046.053.053,0,0,1-.043.02h-.182a.053.053,0,0,1-.043-.02.07.07,0,0,1-.017-.046v-2.133h-.644A.082.082,0,0,1,409,347.6a.043.043,0,0,1-.02-.039v-.144a.052.052,0,0,1,.02-.042.071.071,0,0,1,.046-.016h1.589c.042,0,.063.02.063.059v.144C410.7,347.6,410.677,347.613,410.636,347.613Z" transform="translate(-381.104 -346.675)"/><path d="M423.441,348.667a1.481,1.481,0,0,1-.066.471.855.855,0,0,1-.185.322.727.727,0,0,1-.283.185,1.111,1.111,0,0,1-.718,0,.728.728,0,0,1-.283-.185.873.873,0,0,1-.187-.322,1.445,1.445,0,0,1-.068-.471v-.426a1.445,1.445,0,0,1,.068-.471.873.873,0,0,1,.187-.322.726.726,0,0,1,.283-.185,1.116,1.116,0,0,1,.718,0,.724.724,0,0,1,.283.185.855.855,0,0,1,.185.322,1.48,1.48,0,0,1,.066.471Zm-.307-.426a1.3,1.3,0,0,0-.041-.353.65.65,0,0,0-.117-.238.436.436,0,0,0-.184-.134.737.737,0,0,0-.487,0,.447.447,0,0,0-.186.134.634.634,0,0,0-.118.238,1.309,1.309,0,0,0-.041.353v.426a1.31,1.31,0,0,0,.041.353.65.65,0,0,0,.117.238.431.431,0,0,0,.186.134.7.7,0,0,0,.245.041.683.683,0,0,0,.244-.041.434.434,0,0,0,.184-.134.651.651,0,0,0,.117-.238,1.3,1.3,0,0,0,.041-.353Z" transform="translate(-391.892 -346.543)"/><path d="M437.608,349.043a.809.809,0,0,1-.036.238.522.522,0,0,1-.127.213.648.648,0,0,1-.249.152,1.2,1.2,0,0,1-.4.058,2.81,2.81,0,0,1-.307-.015q-.132-.015-.241-.032a.088.088,0,0,1-.053-.02.067.067,0,0,1-.01-.04v-.132a.048.048,0,0,1,.017-.04.061.061,0,0,1,.04-.013h.01c.037,0,.08.008.127.01l.145,0,.145,0,.127,0a.905.905,0,0,0,.246-.028.379.379,0,0,0,.154-.079.277.277,0,0,0,.079-.124.514.514,0,0,0,.023-.159.291.291,0,0,0-.086-.215.84.84,0,0,0-.122-.1q-.076-.054-.188-.124l-.32-.195a1.318,1.318,0,0,1-.342-.279.52.52,0,0,1-.114-.339.5.5,0,0,1,.206-.443,1.028,1.028,0,0,1,.586-.142q.073,0,.154,0l.158.008c.052,0,.1.008.147.013l.116.015q.056.01.056.056v.142q0,.053-.056.053h-.007l-.266-.013q-.157-.007-.3-.007a.778.778,0,0,0-.371.066.262.262,0,0,0-.114.248.277.277,0,0,0,.086.2,1.443,1.443,0,0,0,.273.2l.3.182a2.3,2.3,0,0,1,.24.165,1.012,1.012,0,0,1,.161.159.505.505,0,0,1,.089.165A.635.635,0,0,1,437.608,349.043Z" transform="translate(-404.213 -346.543)"/><path d="M448.573,359.83a.161.161,0,0,1-.01.038l-.354.891a.293.293,0,0,1-.035.069.065.065,0,0,1-.054.021h-.193a.05.05,0,0,1-.057-.056.082.082,0,0,1,0-.033l.269-.891c.019-.06.05-.09.094-.09h.274C448.552,359.778,448.573,359.8,448.573,359.83Z" transform="translate(-414.215 -357.249)"/><path d="M464.978,349.79a.036.036,0,0,1-.025.017q-.066.01-.238.02t-.406.01a1.7,1.7,0,0,1-.259-.02.565.565,0,0,1-.226-.084.452.452,0,0,1-.159-.185.746.746,0,0,1-.059-.325v-1.8a.068.068,0,0,1,.066-.066h.168a.068.068,0,0,1,.066.066v1.8a.725.725,0,0,0,.015.16.206.206,0,0,0,.058.106.253.253,0,0,0,.122.059.976.976,0,0,0,.211.018h.638c.024,0,.036.013.036.04v.155A.055.055,0,0,1,464.978,349.79Z" transform="translate(-427.613 -346.675)"/><path d="M475.42,348.667a1.486,1.486,0,0,1-.066.471.856.856,0,0,1-.185.322.728.728,0,0,1-.283.185,1.111,1.111,0,0,1-.718,0,.73.73,0,0,1-.283-.185.874.874,0,0,1-.187-.322,1.453,1.453,0,0,1-.068-.471v-.426a1.452,1.452,0,0,1,.068-.471.874.874,0,0,1,.187-.322.727.727,0,0,1,.283-.185,1.117,1.117,0,0,1,.718,0,.726.726,0,0,1,.283.185.856.856,0,0,1,.185.322,1.485,1.485,0,0,1,.066.471Zm-.307-.426a1.316,1.316,0,0,0-.041-.353.651.651,0,0,0-.117-.238.436.436,0,0,0-.184-.134.737.737,0,0,0-.487,0,.448.448,0,0,0-.186.134.634.634,0,0,0-.119.238,1.309,1.309,0,0,0-.041.353v.426a1.311,1.311,0,0,0,.041.353.654.654,0,0,0,.117.238.433.433,0,0,0,.186.134.7.7,0,0,0,.245.041.683.683,0,0,0,.244-.041.434.434,0,0,0,.184-.134.652.652,0,0,0,.117-.238,1.317,1.317,0,0,0,.041-.353Z" transform="translate(-436.148 -346.543)"/><path d="M490.127,349.615a.992.992,0,0,1-1.249,0,.946.946,0,0,1-.222-.694v-1.5a.063.063,0,0,1,.063-.063h.18a.062.062,0,0,1,.045.018.06.06,0,0,1,.018.045v1.5a1.38,1.38,0,0,0,.026.283.5.5,0,0,0,.09.207.4.4,0,0,0,.166.126.785.785,0,0,0,.512,0,.405.405,0,0,0,.168-.126.5.5,0,0,0,.09-.205,1.356,1.356,0,0,0,.026-.284v-1.5a.06.06,0,0,1,.018-.045.062.062,0,0,1,.045-.018h.18a.063.063,0,0,1,.045.018.06.06,0,0,1,.018.045v1.5A.942.942,0,0,1,490.127,349.615Z" transform="translate(-448.941 -346.675)"/><path d="M504.525,349.595a.052.052,0,0,1-.02.045.133.133,0,0,1-.046.021l-.106.018c-.035.005-.074.01-.115.013l-.142.008c-.053,0-.114,0-.185,0a1.07,1.07,0,0,1-.307-.047.7.7,0,0,1-.281-.163.862.862,0,0,1-.2-.314,1.339,1.339,0,0,1-.079-.5v-.459a1.351,1.351,0,0,1,.079-.5.847.847,0,0,1,.2-.312.708.708,0,0,1,.281-.162,1.076,1.076,0,0,1,.307-.046,2.446,2.446,0,0,1,.3.018c.1.012.18.024.253.035.035,0,.053.019.053.043v.168a.048.048,0,0,1-.007.027c0,.007-.015.01-.033.01h-.01l-.111-.008-.139-.01-.154-.008q-.079,0-.152,0a.653.653,0,0,0-.226.038.445.445,0,0,0-.182.125.622.622,0,0,0-.122.231,1.219,1.219,0,0,0-.045.355v.459a1.2,1.2,0,0,0,.045.352.623.623,0,0,0,.122.231.456.456,0,0,0,.182.127.627.627,0,0,0,.226.04c.046,0,.1,0,.147,0l.152-.007.137-.008.109-.008h.013a.047.047,0,0,1,.053.053Zm-.426.215a.038.038,0,0,1-.013.026l-.373.416a.491.491,0,0,1-.036.038.06.06,0,0,1-.04.011h-.178c-.02,0-.03-.008-.03-.023a.066.066,0,0,1,.013-.033l.32-.409a.25.25,0,0,1,.04-.038.071.071,0,0,1,.043-.012h.218C504.087,349.786,504.1,349.794,504.1,349.81Z" transform="translate(-461.187 -346.543)"/><path d="M516.362,349.628c0,.035-.019.053-.056.053h-.195a.046.046,0,0,1-.036-.015.094.094,0,0,1-.02-.035l-.215-.759h-.855l-.211.759a.08.08,0,0,1-.023.035.053.053,0,0,1-.036.015h-.195c-.038,0-.056-.018-.056-.053a.055.055,0,0,1,0-.023l.611-2.15a.337.337,0,0,1,.058-.124.322.322,0,0,1,.084-.076.333.333,0,0,1,.1-.04.443.443,0,0,1,.1-.011.492.492,0,0,1,.1.01.3.3,0,0,1,.1.038.327.327,0,0,1,.084.076.334.334,0,0,1,.058.124l.611,2.153A.058.058,0,0,1,516.362,349.628Zm-.885-2.1c-.011-.04-.032-.059-.063-.059s-.055.02-.066.059l-.3,1.087h.73Z" transform="translate(-470.914 -346.543)"/><path d="M530.132,349.043a.8.8,0,0,1-.036.238.519.519,0,0,1-.127.213.649.649,0,0,1-.249.152,1.2,1.2,0,0,1-.4.058,2.806,2.806,0,0,1-.307-.015q-.132-.015-.241-.032a.089.089,0,0,1-.053-.02.066.066,0,0,1-.01-.04v-.132a.047.047,0,0,1,.017-.04.061.061,0,0,1,.04-.013h.01c.037,0,.08.008.127.01l.145,0,.145,0,.127,0a.9.9,0,0,0,.246-.028.379.379,0,0,0,.154-.079.276.276,0,0,0,.079-.124.513.513,0,0,0,.023-.159.29.29,0,0,0-.086-.215.84.84,0,0,0-.122-.1c-.051-.036-.113-.078-.188-.124l-.32-.195a1.319,1.319,0,0,1-.342-.279.52.52,0,0,1-.114-.339.5.5,0,0,1,.206-.443,1.028,1.028,0,0,1,.586-.142q.073,0,.154,0l.159.008c.052,0,.1.008.147.013l.115.015c.038.007.056.025.056.056v.142c0,.035-.019.053-.056.053h-.007l-.266-.013q-.157-.007-.3-.007a.779.779,0,0,0-.371.066.262.262,0,0,0-.114.248.277.277,0,0,0,.086.2,1.443,1.443,0,0,0,.273.2l.3.182a2.29,2.29,0,0,1,.241.165,1.012,1.012,0,0,1,.161.159.505.505,0,0,1,.089.165A.625.625,0,0,1,530.132,349.043Z" transform="translate(-482.989 -346.543)"/><path d="M550.2,349.043a.813.813,0,0,1-.036.238.525.525,0,0,1-.127.213.65.65,0,0,1-.249.152,1.2,1.2,0,0,1-.4.058,2.8,2.8,0,0,1-.307-.015q-.132-.015-.241-.032a.089.089,0,0,1-.053-.02.067.067,0,0,1-.01-.04v-.132a.047.047,0,0,1,.017-.04.06.06,0,0,1,.039-.013h.01c.037,0,.08.008.127.01l.145,0,.145,0,.127,0a.9.9,0,0,0,.246-.028.38.38,0,0,0,.154-.079.281.281,0,0,0,.079-.124.524.524,0,0,0,.023-.159.291.291,0,0,0-.086-.215.842.842,0,0,0-.122-.1q-.076-.054-.188-.124l-.32-.195a1.322,1.322,0,0,1-.342-.279.521.521,0,0,1-.114-.339.5.5,0,0,1,.206-.443,1.029,1.029,0,0,1,.586-.142q.073,0,.154,0l.159.008c.052,0,.1.008.147.013l.116.015c.037.007.056.025.056.056v.142c0,.035-.019.053-.056.053h-.007l-.266-.013q-.157-.007-.3-.007a.78.78,0,0,0-.372.066.262.262,0,0,0-.114.248.276.276,0,0,0,.086.2,1.448,1.448,0,0,0,.273.2l.3.182a2.272,2.272,0,0,1,.24.165,1.015,1.015,0,0,1,.161.159.517.517,0,0,1,.089.165A.635.635,0,0,1,550.2,349.043Z" transform="translate(-500.075 -346.543)"/><path d="M561.97,349.628c0,.035-.019.053-.056.053h-.195a.046.046,0,0,1-.036-.015.1.1,0,0,1-.02-.035l-.215-.759h-.855l-.211.759a.08.08,0,0,1-.023.035.053.053,0,0,1-.036.015h-.195c-.038,0-.056-.018-.056-.053a.058.058,0,0,1,0-.023l.611-2.15a.333.333,0,0,1,.057-.124.325.325,0,0,1,.084-.076.333.333,0,0,1,.1-.04.442.442,0,0,1,.1-.011.494.494,0,0,1,.1.01.3.3,0,0,1,.1.038.328.328,0,0,1,.084.076.334.334,0,0,1,.058.124l.611,2.153A.057.057,0,0,1,561.97,349.628Zm-.885-2.1c-.011-.04-.032-.059-.063-.059s-.055.02-.066.059l-.3,1.087h.73Z" transform="translate(-509.745 -346.543)"/><path d="M576.93,349.785a.091.091,0,0,1-.067.028h-.2a.106.106,0,0,1-.106-.053l-1.02-1.939c0-.007-.008-.01-.01-.01s0,0,0,.01v1.929a.064.064,0,0,1-.016.044.055.055,0,0,1-.043.018h-.172a.119.119,0,0,1-.043-.007c-.011,0-.016-.015-.016-.033v-2.322a.087.087,0,0,1,.028-.066.1.1,0,0,1,.068-.026h.182a.19.19,0,0,1,.093.015.136.136,0,0,1,.043.051l1.014,1.929.007.01s0,0,0-.01v-1.932a.064.064,0,0,1,.016-.045.054.054,0,0,1,.042-.018h.173a.055.055,0,0,1,.043.018.064.064,0,0,1,.016.045v2.3A.093.093,0,0,1,576.93,349.785Z" transform="translate(-522.652 -346.675)"/><path d="M590.85,349.793a.053.053,0,0,1-.043.02h-.182a.053.053,0,0,1-.043-.02.07.07,0,0,1-.017-.046v-2.325a.063.063,0,0,1,.017-.045.055.055,0,0,1,.043-.018h.182a.056.056,0,0,1,.043.018.064.064,0,0,1,.016.045v2.325A.07.07,0,0,1,590.85,349.793Z" transform="translate(-535.709 -346.675)"/><path d="M596.978,347.613h-.644v2.133a.072.072,0,0,1-.016.046.054.054,0,0,1-.043.02h-.182a.054.054,0,0,1-.043-.02.071.071,0,0,1-.016-.046v-2.133h-.644a.081.081,0,0,1-.046-.013.043.043,0,0,1-.02-.039v-.144a.052.052,0,0,1,.02-.042.07.07,0,0,1,.046-.016h1.588c.042,0,.063.02.063.059v.144C597.041,347.6,597.02,347.613,596.978,347.613Z" transform="translate(-539.76 -346.675)"/><path d="M608.2,345.843c0,.035-.019.053-.056.053h-.195a.046.046,0,0,1-.036-.015.1.1,0,0,1-.02-.035l-.215-.759h-.855l-.211.759a.079.079,0,0,1-.023.035.053.053,0,0,1-.036.015h-.2c-.038,0-.056-.018-.056-.053a.054.054,0,0,1,0-.023l.611-2.15a.335.335,0,0,1,.058-.124.32.32,0,0,1,.084-.076.335.335,0,0,1,.1-.04.443.443,0,0,1,.1-.011.493.493,0,0,1,.1.01.3.3,0,0,1,.1.038.314.314,0,0,1,.142.2l.611,2.153A.056.056,0,0,1,608.2,345.843Zm-.885-2.1c-.011-.039-.032-.059-.063-.059s-.055.02-.066.059l-.3,1.087h.73Zm.439-.958a.038.038,0,0,1-.013.026l-.373.416a.468.468,0,0,1-.036.038.059.059,0,0,1-.04.012h-.178c-.02,0-.03-.008-.03-.023a.044.044,0,0,1,.013-.033l.323-.41c.016-.017.028-.03.036-.038a.064.064,0,0,1,.043-.012h.218C607.745,342.758,607.757,342.766,607.757,342.781Z" transform="translate(-549.109 -342.758)"/><path d="M623.142,349.638a.038.038,0,0,1-.043.043h-.211a.192.192,0,0,1-.048,0,.078.078,0,0,1-.038-.038l-.591-.984h-.086l-.157,0-.206-.008v.971a.071.071,0,0,1-.016.046.053.053,0,0,1-.043.02h-.178a.053.053,0,0,1-.043-.02.07.07,0,0,1-.016-.046V347.3a.066.066,0,0,1,.016-.051.124.124,0,0,1,.063-.021c.035,0,.076-.008.124-.012l.149-.008.157,0,.152,0a1.749,1.749,0,0,1,.365.036.844.844,0,0,1,.294.119.583.583,0,0,1,.195.218.721.721,0,0,1,.071.337v.023a.766.766,0,0,1-.038.249.605.605,0,0,1-.107.193.634.634,0,0,1-.165.139.834.834,0,0,1-.208.086l.6,1A.058.058,0,0,1,623.142,349.638Zm-.39-1.722a.369.369,0,0,0-.159-.345.916.916,0,0,0-.469-.1h-.089l-.1,0-.1,0-.076.005v.908l.208,0,.155,0a1.514,1.514,0,0,0,.269-.021.515.515,0,0,0,.2-.075.339.339,0,0,0,.12-.141.525.525,0,0,0,.041-.224Z" transform="translate(-562.016 -346.543)"/><path d="M635.862,349.793a.053.053,0,0,1-.043.02h-.182a.053.053,0,0,1-.043-.02.07.07,0,0,1-.016-.046v-2.325a.064.064,0,0,1,.016-.045.056.056,0,0,1,.043-.018h.182a.056.056,0,0,1,.043.018.064.064,0,0,1,.016.045v2.325A.07.07,0,0,1,635.862,349.793Z" transform="translate(-574.033 -346.675)"/><path d="M642.1,349.628c0,.035-.019.053-.056.053h-.195a.045.045,0,0,1-.036-.015.1.1,0,0,1-.02-.035l-.215-.759h-.855l-.211.759a.081.081,0,0,1-.023.035.053.053,0,0,1-.037.015h-.195c-.037,0-.056-.018-.056-.053a.055.055,0,0,1,0-.023l.611-2.15a.337.337,0,0,1,.058-.124.318.318,0,0,1,.084-.076.328.328,0,0,1,.1-.04.44.44,0,0,1,.1-.011.492.492,0,0,1,.1.01.3.3,0,0,1,.1.038.324.324,0,0,1,.084.076.337.337,0,0,1,.058.124l.611,2.153A.058.058,0,0,1,642.1,349.628Zm-.885-2.1c-.011-.04-.032-.059-.063-.059s-.055.02-.066.059l-.3,1.087h.73Z" transform="translate(-577.971 -346.543)"/><path d="M655.869,349.043a.815.815,0,0,1-.036.238.526.526,0,0,1-.127.213.65.65,0,0,1-.25.152,1.2,1.2,0,0,1-.4.058,2.808,2.808,0,0,1-.307-.015q-.132-.015-.241-.032a.088.088,0,0,1-.053-.02.067.067,0,0,1-.01-.04v-.132a.048.048,0,0,1,.017-.04.06.06,0,0,1,.04-.013h.01c.037,0,.08.008.127.01l.145,0,.145,0,.127,0a.9.9,0,0,0,.246-.028.377.377,0,0,0,.153-.079.279.279,0,0,0,.08-.124.522.522,0,0,0,.023-.159.314.314,0,0,0-.02-.114.319.319,0,0,0-.066-.1.845.845,0,0,0-.122-.1q-.076-.054-.188-.124l-.321-.195a1.319,1.319,0,0,1-.342-.279.521.521,0,0,1-.114-.339.5.5,0,0,1,.207-.443,1.027,1.027,0,0,1,.586-.142q.073,0,.154,0l.158.008q.078.005.147.013l.116.015q.056.01.056.056v.142q0,.053-.056.053h-.007l-.266-.013q-.157-.007-.3-.007a.778.778,0,0,0-.371.066.261.261,0,0,0-.114.248.277.277,0,0,0,.086.2,1.433,1.433,0,0,0,.273.2l.3.182a2.268,2.268,0,0,1,.24.165,1,1,0,0,1,.162.159.5.5,0,0,1,.089.165A.629.629,0,0,1,655.869,349.043Z" transform="translate(-590.044 -346.543)"/><path d="M676.447,349.671a.036.036,0,0,1-.025.016,1.134,1.134,0,0,1-.125.008l-.17.005c-.06,0-.122,0-.183,0h-.165a.828.828,0,0,1-.526-.142.572.572,0,0,1-.177-.472v-1.271a.572.572,0,0,1,.177-.472.828.828,0,0,1,.526-.142l.164,0,.18,0c.059,0,.116,0,.168.007l.132.008a.036.036,0,0,1,.025.016.055.055,0,0,1,.008.03v.165c0,.026-.012.04-.036.04h-.638a.976.976,0,0,0-.211.018.253.253,0,0,0-.122.059.207.207,0,0,0-.058.107.72.72,0,0,0-.015.159v.459h1.014a.063.063,0,0,1,.046.02.061.061,0,0,1,.02.046v.124a.062.062,0,0,1-.02.046.063.063,0,0,1-.046.019h-1.014v.557a.717.717,0,0,0,.015.161.208.208,0,0,0,.058.106.256.256,0,0,0,.122.059.968.968,0,0,0,.211.018h.638c.024,0,.036.013.036.04v.168A.055.055,0,0,1,676.447,349.671Z" transform="translate(-607.662 -346.543)"/><path d="M696.23,349.64a.132.132,0,0,1-.046.021l-.106.018c-.035.005-.074.01-.116.013l-.142.008c-.053,0-.114,0-.185,0a1.069,1.069,0,0,1-.307-.047.7.7,0,0,1-.281-.163.865.865,0,0,1-.2-.314,1.338,1.338,0,0,1-.079-.5v-.459a1.35,1.35,0,0,1,.079-.5.85.85,0,0,1,.2-.312.71.71,0,0,1,.281-.162,1.075,1.075,0,0,1,.307-.046,2.445,2.445,0,0,1,.3.018q.144.018.253.035c.035,0,.053.019.053.043v.168a.048.048,0,0,1-.007.027c0,.007-.015.01-.033.01h-.01l-.111-.008-.139-.01-.154-.008c-.053,0-.1,0-.152,0a.655.655,0,0,0-.226.038.445.445,0,0,0-.182.125.624.624,0,0,0-.122.231,1.219,1.219,0,0,0-.045.355v.459a1.2,1.2,0,0,0,.045.352.625.625,0,0,0,.122.231.456.456,0,0,0,.182.127.629.629,0,0,0,.226.04c.046,0,.1,0,.147,0l.152-.007.137-.008.109-.008h.013a.047.047,0,0,1,.053.053v.135A.052.052,0,0,1,696.23,349.64Z" transform="translate(-624.425 -346.543)"/><path d="M708.046,348.667a1.483,1.483,0,0,1-.066.471.855.855,0,0,1-.185.322.728.728,0,0,1-.283.185,1.111,1.111,0,0,1-.718,0,.73.73,0,0,1-.283-.185.874.874,0,0,1-.187-.322,1.453,1.453,0,0,1-.068-.471v-.426a1.452,1.452,0,0,1,.068-.471.874.874,0,0,1,.187-.322.728.728,0,0,1,.283-.185,1.117,1.117,0,0,1,.718,0,.725.725,0,0,1,.283.185.856.856,0,0,1,.185.322,1.482,1.482,0,0,1,.066.471Zm-.307-.426a1.314,1.314,0,0,0-.041-.353.65.65,0,0,0-.117-.238.434.434,0,0,0-.184-.134.737.737,0,0,0-.487,0,.446.446,0,0,0-.186.134.634.634,0,0,0-.119.238,1.311,1.311,0,0,0-.041.353v.426a1.312,1.312,0,0,0,.041.353.654.654,0,0,0,.117.238.431.431,0,0,0,.186.134.694.694,0,0,0,.245.041.683.683,0,0,0,.244-.041.433.433,0,0,0,.184-.134.651.651,0,0,0,.117-.238,1.316,1.316,0,0,0,.041-.353Z" transform="translate(-634.21 -346.543)"/><path d="M723.048,349.785a.091.091,0,0,1-.067.028h-.2a.106.106,0,0,1-.106-.053l-1.021-1.939c0-.007-.008-.01-.01-.01s0,0,0,.01v1.929a.064.064,0,0,1-.016.044.056.056,0,0,1-.043.018h-.172a.119.119,0,0,1-.043-.007c-.011,0-.016-.015-.016-.033v-2.322a.087.087,0,0,1,.028-.066.1.1,0,0,1,.068-.026h.181a.191.191,0,0,1,.093.015.136.136,0,0,1,.043.051l1.014,1.929.007.01s0,0,0-.01v-1.932a.064.064,0,0,1,.016-.045.055.055,0,0,1,.043-.018h.173a.054.054,0,0,1,.042.018.064.064,0,0,1,.016.045v2.3A.093.093,0,0,1,723.048,349.785Z" transform="translate(-647.06 -346.675)"/><path d="M737.531,349.654c-.082.014-.172.025-.273.035s-.228.015-.385.015a.921.921,0,0,1-.309-.055.727.727,0,0,1-.274-.175.9.9,0,0,1-.2-.317,1.337,1.337,0,0,1-.076-.481v-.442a1.358,1.358,0,0,1,.079-.5.885.885,0,0,1,.2-.317.706.706,0,0,1,.284-.167,1.1,1.1,0,0,1,.317-.048q.231,0,.381.015t.246.031a.105.105,0,0,1,.039.013.039.039,0,0,1,.017.037v.165c0,.022-.014.033-.043.033h-.013l-.141-.012c-.045,0-.092-.005-.14-.007l-.157,0-.19,0a.7.7,0,0,0-.221.035.435.435,0,0,0-.187.122.626.626,0,0,0-.129.234,1.2,1.2,0,0,0-.048.368v.442a1.225,1.225,0,0,0,.043.348.667.667,0,0,0,.119.236.449.449,0,0,0,.177.134.569.569,0,0,0,.216.041q.152,0,.254-.007t.162-.013v-.944a.07.07,0,0,1,.016-.046.053.053,0,0,1,.043-.02h.178a.058.058,0,0,1,.045.02.067.067,0,0,1,.018.046v1.112A.066.066,0,0,1,737.531,349.654Z" transform="translate(-659.55 -346.543)"/><path d="M751.446,345.856a.055.055,0,0,1-.008.03.036.036,0,0,1-.025.016,1.126,1.126,0,0,1-.125.008l-.17.005c-.06,0-.122,0-.183,0h-.165a.828.828,0,0,1-.527-.142.572.572,0,0,1-.177-.472v-1.271a.572.572,0,0,1,.177-.472.828.828,0,0,1,.527-.142l.164,0,.18,0c.059,0,.115,0,.168.007l.132.008a.036.036,0,0,1,.025.016.055.055,0,0,1,.008.03v.165c0,.026-.012.039-.036.039h-.637a.979.979,0,0,0-.212.018.251.251,0,0,0-.122.059.208.208,0,0,0-.058.107.739.739,0,0,0-.015.159v.459h1.014a.064.064,0,0,1,.046.02.062.062,0,0,1,.02.046v.124a.062.062,0,0,1-.02.046.064.064,0,0,1-.046.019h-1.014v.557a.736.736,0,0,0,.015.161.209.209,0,0,0,.058.106.254.254,0,0,0,.122.059.973.973,0,0,0,.212.018h.637c.024,0,.036.013.036.04Zm-.132-2.606q0,.023-.03.023h-.172a.059.059,0,0,1-.04-.012.448.448,0,0,1-.036-.038l-.271-.32-.274.32a.433.433,0,0,1-.036.038.059.059,0,0,1-.04.012h-.172c-.02,0-.03-.008-.03-.023a.044.044,0,0,1,.013-.033l.317-.41a.47.47,0,0,1,.036-.038.064.064,0,0,1,.043-.012h.281a.071.071,0,0,1,.045.012.315.315,0,0,1,.038.038l.314.41A.045.045,0,0,1,751.314,343.25Z" transform="translate(-671.511 -342.758)"/><path d="M764.013,349.785a.09.09,0,0,1-.067.028h-.2a.106.106,0,0,1-.106-.053l-1.02-1.939c0-.007-.008-.01-.01-.01s0,0,0,.01v1.929a.063.063,0,0,1-.017.044.055.055,0,0,1-.043.018h-.172a.116.116,0,0,1-.043-.007c-.011,0-.017-.015-.017-.033v-2.322a.087.087,0,0,1,.028-.066.1.1,0,0,1,.068-.026h.181a.191.191,0,0,1,.093.015.135.135,0,0,1,.043.051l1.014,1.929.007.01s0,0,0-.01v-1.932a.064.064,0,0,1,.016-.045.054.054,0,0,1,.042-.018h.173a.055.055,0,0,1,.043.018.064.064,0,0,1,.016.045v2.3A.093.093,0,0,1,764.013,349.785Z" transform="translate(-681.939 -346.675)"/><path d="M778.8,349.671a.037.037,0,0,1-.025.016,1.13,1.13,0,0,1-.125.008l-.17.005c-.061,0-.121,0-.183,0h-.165a.828.828,0,0,1-.527-.142.572.572,0,0,1-.177-.472v-1.271a.572.572,0,0,1,.177-.472.828.828,0,0,1,.527-.142l.163,0,.18,0c.06,0,.116,0,.168.007l.132.008a.037.037,0,0,1,.025.016.055.055,0,0,1,.008.03v.165c0,.026-.012.04-.036.04h-.637a.977.977,0,0,0-.211.018.253.253,0,0,0-.122.059.21.21,0,0,0-.058.107.74.74,0,0,0-.015.159v.459h1.014a.064.064,0,0,1,.046.02.062.062,0,0,1,.02.046v.124a.062.062,0,0,1-.02.046.063.063,0,0,1-.046.019h-1.014v.557a.737.737,0,0,0,.015.161.21.21,0,0,0,.058.106.256.256,0,0,0,.122.059.97.97,0,0,0,.211.018h.637c.024,0,.036.013.036.04v.168A.055.055,0,0,1,778.8,349.671Z" transform="translate(-694.807 -346.543)"/><path d="M791.353,349.638a.038.038,0,0,1-.043.043H791.1a.192.192,0,0,1-.048,0,.078.078,0,0,1-.038-.038l-.591-.984h-.086l-.157,0-.206-.008v.971a.07.07,0,0,1-.017.046.053.053,0,0,1-.043.02h-.178a.053.053,0,0,1-.043-.02.069.069,0,0,1-.017-.046V347.3a.066.066,0,0,1,.017-.051.124.124,0,0,1,.063-.021c.036,0,.076-.008.124-.012l.149-.008.157,0,.152,0a1.746,1.746,0,0,1,.365.036.844.844,0,0,1,.294.119.584.584,0,0,1,.195.218.72.72,0,0,1,.071.337v.023a.772.772,0,0,1-.038.249.606.606,0,0,1-.107.193.636.636,0,0,1-.165.139.836.836,0,0,1-.208.086l.6,1A.059.059,0,0,1,791.353,349.638Zm-.39-1.722a.369.369,0,0,0-.159-.345.917.917,0,0,0-.469-.1h-.089l-.1,0-.1,0-.076.005v.908l.208,0,.155,0a1.511,1.511,0,0,0,.269-.021.515.515,0,0,0,.2-.075.338.338,0,0,0,.12-.141.528.528,0,0,0,.041-.224Z" transform="translate(-705.235 -346.543)"/><path d="M804.94,349.671a.037.037,0,0,1-.025.016,1.135,1.135,0,0,1-.125.008l-.17.005c-.06,0-.121,0-.183,0h-.165a.828.828,0,0,1-.527-.142.572.572,0,0,1-.177-.472v-1.271a.572.572,0,0,1,.177-.472.828.828,0,0,1,.527-.142l.164,0,.18,0q.089,0,.168.007l.132.008a.037.037,0,0,1,.025.016.054.054,0,0,1,.008.03v.165c0,.026-.012.04-.036.04h-.638a.976.976,0,0,0-.211.018.252.252,0,0,0-.122.059.207.207,0,0,0-.058.107.72.72,0,0,0-.015.159v.459h1.014a.063.063,0,0,1,.046.02.061.061,0,0,1,.02.046v.124a.062.062,0,0,1-.02.046.063.063,0,0,1-.046.019h-1.014v.557a.717.717,0,0,0,.015.161.208.208,0,0,0,.058.106.255.255,0,0,0,.122.059.968.968,0,0,0,.211.018h.638c.024,0,.036.013.036.04v.168A.054.054,0,0,1,804.94,349.671Z" transform="translate(-717.063 -346.543)"/><path d="M816.679,349.043a.807.807,0,0,1-.036.238.521.521,0,0,1-.127.213.649.649,0,0,1-.249.152,1.2,1.2,0,0,1-.4.058,2.808,2.808,0,0,1-.307-.015q-.132-.015-.241-.032a.089.089,0,0,1-.053-.02.067.067,0,0,1-.01-.04v-.132a.047.047,0,0,1,.017-.04.06.06,0,0,1,.039-.013h.01c.037,0,.08.008.127.01l.146,0,.145,0,.127,0a.9.9,0,0,0,.246-.028.38.38,0,0,0,.154-.079.279.279,0,0,0,.079-.124.514.514,0,0,0,.023-.159.29.29,0,0,0-.086-.215.845.845,0,0,0-.122-.1q-.076-.054-.188-.124l-.32-.195a1.321,1.321,0,0,1-.342-.279.521.521,0,0,1-.114-.339.5.5,0,0,1,.206-.443,1.028,1.028,0,0,1,.586-.142c.048,0,.1,0,.154,0l.158.008c.052,0,.1.008.147.013l.115.015c.037.007.056.025.056.056v.142c0,.035-.019.053-.056.053h-.006l-.266-.013q-.157-.007-.3-.007a.779.779,0,0,0-.371.066.261.261,0,0,0-.114.248.277.277,0,0,0,.086.2,1.452,1.452,0,0,0,.273.2l.3.182a2.253,2.253,0,0,1,.24.165,1,1,0,0,1,.161.159.5.5,0,0,1,.089.165A.631.631,0,0,1,816.679,349.043Z" transform="translate(-726.961 -346.543)"/></g></g></g></svg>