<svg xmlns="http://www.w3.org/2000/svg" xmlns:xlink="http://www.w3.org/1999/xlink" width="67.343" height="60.309" viewBox="0 0 67.343 60.309"><defs><style>.a{fill:none;}.b{clip-path:url(#a);}.c{fill:#1a1818;}.c,.d{fill-rule:evenodd;}.d{fill:#fff;}</style><clipPath id="a"><rect class="a" width="67.343" height="60.309"/></clipPath></defs><g class="b" transform="translate(0 0)"><path class="c" d="M147.354,239.4h41.682l25.661,25.53v34.779H147.354Z" transform="translate(-147.354 -239.404)"/><path class="d" d="M189.962,298.242a4.706,4.706,0,0,0-2.86-4.5.162.162,0,0,1,.027-.026.783.783,0,0,1,.058-.055c.017-.017.037-.033.056-.05s.038-.032.058-.05.038-.035.059-.051.033-.032.053-.048.038-.034.059-.053l.058-.053c.016-.013.034-.031.053-.046s.038-.035.059-.056.036-.029.054-.046.041-.036.062-.055.035-.032.051-.047l.06-.052c.019-.019.039-.032.056-.049l.056-.052c.02-.015.039-.034.058-.05l.056-.051c.018-.017.037-.033.058-.051a4.572,4.572,0,0,0,1.508-3.46c0-3.258-2.346-5.2-5.726-5.2h-7.309v.051h-.058v.051h-.055v.05h-.057v.05H176.4v.05h-.058v.051h-.056v.051h-.057v.05h-.056v.049h-.056v.051h-.058v.05H176v.051h-.056v.051h-.057v.049h-.057v.052h-.057v.05h-.057v.05h-.056v.052H175.6v.049h-.055v.053h-.058v.05h-.057v.049h-.057v.052h-.058v.05h-.055v.05h-.057v.052h-.057v.05h-.056v.051h-.056v.048h-.058v.051h-.057v.052h-.055v.052h-.057v.048h-.058v.051H174.7v.052h-.056v.05h-.057V286h-.056v.053h-.058v.05h-.057v.053h-.056v.049H174.3v.051h-.057v.049h-.056v.052h-.057v.048h-.056v.053h-.058v.049h-.055v.052H173.9v.05h-.057v.05h-.058v.05h-.056v.053h-.058v.047h-.054v.051h-.056v.053H173.5v.049h-.056v.051h-.056v.05h-.058v.05h-.056v.054h-.058v.048h-.056v.05h-.056v.051h-.057v.051h-.057v.05h-.056v.048h-.057v.052h-.057v.051h-.058v.052h-.056v.048h-.055v.051H172.6v.052h-.056v.05h-.057v.05h-.058v.052h-.057v.049h-.055v.053h-.057v.048H172.2v.051h-.055v.052h-.059v.052h-.054v.048h-.057v.052h-.057v.05h-.058v.052H171.8v.049h-.054v.05h-.058v.051h-.055v.051h-.059v.048h-.057v.052h-.056v.051h-.057v.051h-.056v.049h-.057v.051h-.058v.05h-.056v.051h-.058v.05h-.055v.051h-.056v.051h-.058v.051h-.057v19.5h7.555a6.128,6.128,0,0,0,4.205-1.4c.019-.019.038-.032.057-.049a.631.631,0,0,1,.057-.05.589.589,0,0,1,.055-.051c.02-.017.039-.034.056-.051s.038-.032.058-.051.037-.034.058-.052.038-.035.056-.049l.054-.049c.019-.018.04-.035.06-.054a.713.713,0,0,0,.056-.048c.019-.018.038-.035.057-.051l.057-.05c.017-.017.036-.032.056-.051s.038-.033.058-.053l.055-.047c.02-.017.037-.033.056-.052s.038-.034.057-.052a.413.413,0,0,0,.057-.049c.019-.016.038-.033.057-.051a.638.638,0,0,0,.053-.048c.021-.018.043-.033.061-.051l.056-.052c.019-.015.038-.033.056-.049s.038-.031.056-.05l.058-.052.053-.05c.021-.016.042-.034.059-.05l.057-.051c.019-.018.038-.033.055-.052s.04-.033.059-.05a.722.722,0,0,1,.056-.049l.056-.05a.646.646,0,0,0,.057-.053.608.608,0,0,0,.058-.051c.019-.014.037-.031.055-.047l.059-.053.056-.05a.715.715,0,0,0,.058-.051c.019-.016.036-.033.054-.048s.04-.035.059-.051a.486.486,0,0,1,.057-.05l.056-.051c.02-.017.038-.033.057-.052s.037-.034.055-.047.038-.035.058-.053.038-.035.058-.052.036-.032.054-.048.039-.036.057-.052.041-.035.059-.053.035-.03.055-.048l.057-.05c.021-.017.038-.034.058-.052s.038-.033.058-.052l.052-.048c.019-.015.04-.032.058-.048l.059-.053c.019-.017.036-.032.058-.051s.036-.031.056-.048a.529.529,0,0,1,.057-.05.543.543,0,0,1,.056-.052c.02-.018.037-.031.054-.05s.041-.033.059-.053.038-.032.056-.048l.057-.052c.018-.015.04-.033.057-.05s.036-.032.054-.05a.66.66,0,0,0,.058-.051l.057-.048c.02-.019.04-.035.059-.053l.053-.049a.465.465,0,0,0,.056-.053.66.66,0,0,0,.061-.05l.053-.05a.592.592,0,0,0,.059-.053c.017-.013.038-.033.057-.049l.054-.051.058-.05c.021-.018.038-.032.056-.051a.448.448,0,0,0,.057-.052c.02-.015.038-.032.056-.047l.056-.051c.021-.019.04-.033.058-.051s.038-.034.056-.05.038-.036.058-.052.036-.033.057-.048a.665.665,0,0,1,.057-.053c.019-.016.035-.034.053-.05s.04-.035.059-.05l.056-.052.057-.052c.018-.015.038-.033.058-.051l.056-.047a.617.617,0,0,1,.057-.053c.019-.017.036-.034.056-.049s.038-.032.059-.053.034-.032.054-.048.038-.033.056-.05.04-.033.059-.051.037-.034.053-.051l.06-.05a5.162,5.162,0,0,0,1.632-4.048Zm-8.5-5.477H178.7v-1.62a3.358,3.358,0,0,1,2.761,1.62Zm.409,9.011H178.7v-2.028a3.493,3.493,0,0,1,3.17,2.028ZM204.412,270.1l-1.5-.131.049-.051v0l.054-.053.005,0,.053-.053a.006.006,0,0,0,0,0l.053-.054s0,0,0,0l.054-.054,0,0,.053-.053,0,0,.053-.055,0,.005.052-.055s0,0,0,0l.051-.054,0,0,.053-.054h0l.054-.05,0,0,.052-.053.005,0,.054-.053s0,0,0,0l.054-.053,0,0,.051-.052.006,0,.053-.053h.005l.049-.053.006,0,.051-.053s.005,0,.006,0l.049-.054.005,0,.055-.053s0,0,0,0l.054-.053.005,0,.052-.054s0,0,0,0l.053-.052h0l.053-.052h0l.052-.051,0,0,.053-.052s0,0,.006,0l.05-.055.005,0,.053-.053s0,0,0,0l.052-.055,0,0,.055-.055,0,0,.052-.053,0,0,.054-.051,0,0,.055-.055,0,0,.052-.053,0,0,.051-.053,0,0,.054-.054,0,0,.053-.052,0,0,.054-.055s0,0,0,0l.054-.053s0,0,0,0l.053-.052s0,0,0,0l.054-.055,0,0,.053-.052,0,0,.053-.053,0,0,.055-.053s0,0,0,0l.054-.053,0,0,.053-.055.005,0,.052-.055,0,0,.054-.054,0,0,.054-.053s0,0,0,0l.053-.053,0,0,.054-.054,0,0,.054-.05,0,0,.054-.053h0l.053-.053,0,0,.052-.054.006,0,.052-.053.005,0,.051-.054,0,0,.052-.053.006,0,.053-.053,0,0,.052-.051h.005l.051-.054,0,0,.053-.053,0,0,.053-.051.006,0,1.281-1.286a7.552,7.552,0,0,0-4.827-1.453,5.5,5.5,0,0,0-3.865,1.326.439.439,0,0,1-.053.047c-.019.02-.038.035-.057.055l-.057.047a.65.65,0,0,1-.057.052c-.018.018-.038.033-.057.052a.609.609,0,0,0-.056.05.677.677,0,0,0-.058.051c-.017.014-.038.032-.055.048s-.04.035-.058.053-.039.032-.056.05a.517.517,0,0,0-.059.053c-.018.017-.037.031-.052.047a.6.6,0,0,0-.058.052c-.019.017-.04.032-.058.052s-.038.03-.054.047-.043.037-.06.052a.487.487,0,0,1-.055.051c-.019.016-.04.033-.058.05s-.038.034-.056.052-.038.033-.056.048l-.057.051c-.02.019-.041.034-.057.051s-.038.032-.056.052a.522.522,0,0,0-.056.048c-.021.018-.04.034-.059.053s-.037.033-.058.052l-.056.048c-.018.016-.038.033-.058.053a.606.606,0,0,0-.055.05c-.019.017-.038.029-.056.048s-.04.034-.059.053-.037.033-.056.048l-.057.052c-.019.017-.038.031-.057.05s-.037.033-.057.051-.039.033-.057.051l-.054.048c-.02.019-.04.033-.059.052s-.037.032-.056.051-.038.034-.057.05-.038.033-.056.048-.038.034-.057.053-.038.033-.058.053-.036.03-.055.046a.544.544,0,0,1-.061.053c-.016.017-.033.031-.051.049a.5.5,0,0,0-.058.052l-.058.049c-.019.019-.039.035-.058.052s-.037.031-.055.048-.04.033-.056.053-.04.032-.059.051-.038.032-.054.048-.04.033-.059.052-.038.034-.057.051l-.056.05c-.017.017-.038.032-.053.049s-.042.034-.059.05-.04.036-.057.053-.04.035-.058.052l-.055.046c-.019.018-.04.035-.058.055s-.037.031-.055.048a.541.541,0,0,0-.057.049l-.057.052c-.019.017-.041.034-.057.051s-.039.031-.057.051-.038.032-.056.048l-.057.052c-.019.019-.039.034-.056.052s-.04.032-.059.052-.036.032-.055.05-.038.034-.056.051l-.056.049c-.019.018-.038.031-.058.05a.785.785,0,0,0-.057.055l-.056.046a.51.51,0,0,1-.058.052c-.017.017-.038.035-.055.053l-.058.05c-.017.015-.036.031-.056.046a.478.478,0,0,1-.054.053c-.019.02-.041.035-.06.055s-.036.03-.056.049l-.058.049c-.017.018-.038.035-.057.052s-.037.033-.055.05l-.056.05-.059.052a.487.487,0,0,1-.057.049c-.016.019-.037.033-.054.052a.72.72,0,0,0-.057.049l-.058.051c-.017.018-.038.033-.057.05s-.036.032-.057.05-.039.033-.057.052a.489.489,0,0,1-.055.047l-.056.052c-.019.019-.04.034-.059.053s-.037.032-.057.05a3.532,3.532,0,0,0-1.131,2.67c0,2.219,1.393,3.4,4.01,3.614l.047,0-.054.053a.009.009,0,0,0,0,0l-.054.055,0,0-.052.052s0,0,0,0l-.053.055s0,0,0,0l-.054.055a0,0,0,0,0,0,0l-.054.053,0,0-.053.053,0,0-.053.052,0,0-.053.054-.005,0-.054.053s0,0,0,0l-.053.048s0,0,0,0l-.054.055,0,0-.054.053,0,0-.053.055s0,0,0,0l-.054.052,0,0-.054.053,0,0-.053.056,0,0-.052.056s0,0,0,0l-.052.053,0,0-.057.053s0,0,0,0l-.054.053,0,0-.054.053s0,0,0,0l-.055.052,0,0-.053.054,0,0-.053.053s0,0,0,0l-.054.054s0,0,0,0l-.054.053s0,0,0,0l-.054.053a0,0,0,0,0,0,0l-.053.053,0,0-.054.053,0,0-.053.054,0-.007-.054.056,0,0-.053.053,0,0-.055.051s0,0,0,0l-.055.053h0l-.053.053s0,0,0,0l-.053.054a0,0,0,0,1,0,0l-.052.054,0,0-.056.053s0,0,0,0l-.053.054,0,0-.054.053s0,0,0,0l-.054.054s0,0,0,0l-.053.055a0,0,0,0,0,0,0l-.052.051,0,0-.053.055,0,0-.052.056s0,0,0,0l-.054.053s0,0,0,0l-.052.05s0,0,0,0l-.055.055,0,0-.054.053,0,0-.053.054s0,0,0,0l-.053.053s0,0,0,0l-.053.053,0,0-.053.054s0,0,0,0l-.055.054s0,0,0,0l-.053.053,0,0-.055.055s0,0,0,0l-.053.053s0,0,0,0l-.052.055,0,0-1.309,1.313a7.36,7.36,0,0,0,5.508,1.946,6.244,6.244,0,0,0,4.306-1.379c.017-.017.035-.029.053-.048l.06-.053c.018-.016.04-.034.055-.049l.056-.049a.716.716,0,0,1,.058-.052l.056-.052c.018-.015.037-.033.056-.048l.056-.051c.021-.019.038-.035.057-.055a.728.728,0,0,0,.056-.047c.02-.017.04-.034.06-.053s.036-.034.055-.05.036-.03.058-.049.036-.033.057-.054l.052-.046c.023-.019.038-.037.06-.053l.057-.052c.017-.016.037-.032.057-.05l.056-.049c.019-.019.039-.036.057-.051s.037-.033.058-.052.037-.032.054-.051.039-.034.06-.05a.442.442,0,0,1,.056-.051c.017-.017.035-.033.053-.048s.04-.036.06-.053.038-.033.056-.051.036-.033.055-.048.04-.033.057-.051a.777.777,0,0,1,.059-.053c.017-.015.037-.033.055-.052a.5.5,0,0,0,.054-.048l.063-.052.052-.05c.019-.015.038-.032.056-.05s.04-.034.056-.051a.442.442,0,0,0,.057-.051c.021-.018.04-.033.06-.052s.038-.031.056-.048a.722.722,0,0,1,.057-.053c.019-.016.038-.033.058-.048s.036-.033.055-.052.04-.034.056-.052.04-.034.056-.048.04-.035.057-.053l.057-.049c.019-.016.039-.033.057-.051s.042-.035.057-.052.038-.034.055-.048.037-.034.058-.055a.366.366,0,0,0,.057-.051c.019-.014.037-.032.055-.048l.057-.05c.02-.017.04-.034.057-.052s.039-.034.058-.053.037-.031.055-.047.039-.035.058-.051.037-.034.058-.051.035-.033.055-.05a.486.486,0,0,1,.057-.05c.02-.018.038-.034.057-.053l.057-.05c.017-.017.036-.032.056-.05l.058-.05.056-.053c.017-.017.037-.032.056-.049a.664.664,0,0,1,.058-.05c.019-.018.037-.035.057-.053s.036-.034.056-.05.037-.032.055-.05a.7.7,0,0,0,.058-.051c.019-.015.038-.033.057-.048a.45.45,0,0,1,.057-.051c.018-.019.037-.033.057-.052s.037-.032.055-.05.039-.033.058-.051.038-.032.056-.049a.653.653,0,0,1,.059-.05c.016-.019.036-.034.055-.053s.037-.031.054-.047l.058-.052.057-.051.057-.05.057-.05c.019-.016.038-.035.057-.052l.056-.049a.721.721,0,0,0,.054-.051.513.513,0,0,0,.058-.051.641.641,0,0,0,.057-.052.4.4,0,0,0,.054-.048.713.713,0,0,0,.06-.053.468.468,0,0,0,.056-.052.406.406,0,0,0,.054-.048.668.668,0,0,0,.059-.051c.019-.019.038-.033.056-.051a.54.54,0,0,0,.058-.051c.019-.017.036-.033.056-.048l.057-.049c.022-.019.041-.037.058-.055s.036-.031.053-.049a3.582,3.582,0,0,0,1.21-2.782c0-2.519-1.609-3.423-3.955-3.643Zm-8.076,6.618h0Zm27.039,32.024-.018-.053h.074l-.017-.049h.074l-.019-.05h.077l-.019-.05h.074l-.018-.051h.076l-.02-.05h.075l-.018-.053h.076l-.019-.048h.077l-.02-.052h.076l-.019-.052h.075l-.019-.051H224l-.019-.049h.076l-.021-.051h.076l-.018-.051h.076l-.019-.052h.075l-.019-.047h.076l-.018-.051h.075l-.019-.049h.078l-.02-.053h.077l-.021-.05h.077l-.017-.049h.074l-.02-.052h.075l-.019-.051h.077l-.019-.05h.077l-.019-.051h.076l-.019-.049h.075l-.019-.054h.076l-.019-.051h.076l-.017-.049h.074l-.019-.051h.078l-.021-.05h.074l-.017-.05h.073l-.016-.051h.075l-.017-.05h.074l-.019-.049h.076l-.02-.053h.076l-.017-.048h.075l-.017-.053h.072l-.017-.05h.074l-.015-.051h.076l-.019-.049h.074l-.017-.051h.073l-.017-.051h.073l-.015-.052h.073l-.017-.048h.073l-.016-.052h.074l-.018-.051h.075l-.019-.051h.076l-.019-.05h.072l-.016-.051h.075l-.019-.051h.076l-.019-.05h.075l-.017-.049h.076l-.021-.051h.076l-.019-.05h.075l-.019-.053h.077l-.02-.048h.077l-.021-.051h.077l-.018-.05h.075l-.019-.051h.076l-.018-.05h.075l-.019-.05h.076l-.018-.051h.076l-.019-.052h.076l-.019-.048h.074l-.017-.052h.076l-.019-.052h.074l-.018-.051h.076l-.019-.048h.076l-.02-.053h.077l-.019-.05h.077l-.019-.052h.075l-.019-.049h.076L227.5,305h.074l-.021-.053h.076l-.019-.049h.077l-.018-.052h.074l-.017-.048h.074l-.017-.051h.074l-.018-.051h.075l-.019-.05h.078l-.019-.05h.074l-.019-.05h.076l-.017-.051h.072l-.015-.052h.074l-.019-.049h.075l-.017-.049h.073l-.016-.053h.075l-.017-.05h.072l-.017-.049h.074l-.017-.051h.076l-.017-.05h.073l-.018-.051h.075l-.019-.05h.074l-.016-.052h.074l-.018-.051h.074l-.02-.049h.076l-.017-.05h.075l-.018-.05h.075l-.019-.051h.075l-.018-.052h.074l-7.118-19.5h-1.745l-.018.05h-.038l-.02.051h-.037l-.017.05h-.038l-.021.05h-.038l-.015.05h-.042l-.017.051h-.04l-.018.051h-.038l-.017.05h-.04l-.021.049h-.035l-.019.051h-.039l-.018.05h-.04l-.017.051h-.039l-.017.051H219.5l-.017.049h-.04l-.018.052h-.037l-.019.05h-.04l-.017.05h-.039l-.017.052h-.038l-.019.049h-.036l-.021.053h-.037l-.02.05h-.04l-.017.049h-.038l-.017.052h-.041l-.016.05h-.038l-.021.05h-.035l-.021.052h-.036l-.02.05h-.037l-.019.051h-.04l-.018.048H218.6l-.019.051h-.04l-.018.052h-.036l-.019.052h-.036l-.02.048h-.038l-.019.051h-.038l-.019.052h-.035l-.022.05H218.2l-.019.048h-.037l-.02.053h-.038l-.017.05h-.039l-.017.053h-.039l-.019.049h-.038l-.019.049h-.037l-.02.051H217.8l-.02.052h-.037l-.018.048h-.04l-.018.053h-.04l-.018.049h-.037l-.017.052h-.04l-.017.05h-.042l-.017.05h-.04l-.017.05h-.038l-.017.053h-.038l-.02.048h-.037l-.019.051h-.038l-.018.052h-.039l-.017.049h-.04l-.017.051h-.039l-.018.05h-.039l-.017.05h-.039l-.019.054h-.038l-.019.048h-.038l-.016.05h-.039l-.019.051h-.038l-.018.051h-.038l-.018.051h-.038l-.02.048H216.5l-.018.052h-.039l-.017.051h-.038l-.018.051h-.037l-.022.049h-.035l-.022.051h-.036l-.019.052h-.038l-.019.05h-.04l-.018.05h-.036l-.02.052h-.037l-.022.049h-.037l-.019.053h-.036l-.019.048h-.038l-.019.051h-.037l-.02.052H215.7l-.022.052h-.037l-.019.048h-.036l-.019.052h-.038l-.021.05h-.037l-.018.052h-.038l-.019.049h-.036l-.021.05h-.036l-.019.051h-.038l-.02.051h-.036l-.018.048h-.04l-.015.052h-.042l-.018.051h-.038l-.019.051h-.038l-.019.049h-.039l-.017.051h-.038l-.018.05H214.8l-.019.051h-.038l-.017.05h-.04l-.017.051h-.039l-.018.051h-.04l-.016.051h-.042l-7.143,19.5h2.208l.019-.053h.038l.019-.049h.037l.019-.05h.039l.02-.05h.037l.019-.051h.037l.019-.05h.039l.016-.053h.038l.019-.048h.04l.017-.052h.04l.017-.052h.038l.019-.051h.038l.018-.049h.039l.018-.051h.039l.018-.051h.038l.019-.052h.038l.021-.047h.037l.016-.051h.04l.016-.049h.042l.015-.053h.04l.018-.05h.038l.017-.049h.041l.017-.052h.039l.017-.051h.038l.018-.05h.041l.015-.051h.039l.019-.049h.039l.017-.054h.039l.016-.051h.042l.015-.049h.041l.016-.051h.039l.019-.05h.039l.017-.05h.04l.018-.051h.039l.017-.05h.039l.015-.049h.041l.018-.053h.038l.018-.048h.038l.018-.053h.042l.016-.05h.038l.018-.051h.038l.019-.049h.038l.02-.051h.036l.021-.051h.038l.018-.052h.039l.017-.048h.039l.019-.052h.036l.019-.051h.039l.017-.051h.038l.019-.05h.036l.02-.051h.037l.02-.051h.038l.019-.05h.038l.017-.049h.038l.019-.051h.038l.019-.05h.038l.017-.053h.039l.019-.048h.04l.018-.051h.037l.019-.05h.037l.019-.051h.039l.016-.05h.042l.017-.05h.038l.016-.051h.042l.017-.052h.039l.017-.048h.039l.017-.052h.041l.015-.052h.04l.017-.051h.04l.017-.048h.039l.017-.053h.04l.017-.05h.04l.018-.052h.039l.017-.049h.041l.015-.05h.042l.015-.053h.037l.021-.049h.036l.019-.052h.041l.017-.048H214l.019-.051h.039l.016-.051h.038l.017-.05h.04l.019-.05h.038l.018-.05h.038l.021-.051h.037l.018-.052h.037l.02-.049h.038l.019-.049h.037l0-.012h5.1l1.553,4.41Zm-20.61,0H190.711v-19.5h.056v-.051h.056v-.051h.057v-.051h.058v-.05H191v-.051h.056v-.05h.057v-.051h.055v-.049h.056v-.051h.058v-.051h.056v-.052h.058v-.048h.056v-.051h.058v-.051h.056v-.05h.057v-.049h.057v-.052h.056v-.05h.055v-.052h.058v-.048h.056v-.052h.057v-.052h.059v-.051h.053v-.048h.057v-.053h.058v-.049h.056v-.052h.058v-.05h.056v-.05h.058v-.052h.056v-.051h.057v-.049h.058v-.051h.056v-.051h.056v-.052h.055v-.048h.059v-.05h.057v-.051h.056v-.051h.058v-.05h.056v-.048h.057v-.054h.058v-.05h.056v-.05h.054v-.051h.06v-.049h.054v-.053h.058v-.051h.056v-.047h.059v-.053h.057v-.05h.054v-.05h.058v-.05h.056v-.052h.058v-.049h.057v-.053h.056v-.048H194v-.052h.056v-.051h.058v-.049h.057v-.049h.057v-.053h.056v-.05h.056V286h.057v-.048h.058v-.05h.056v-.052h.058V285.8h.055v-.048h.057V285.7h.056v-.052h.058V285.6h.057v-.048h.056V285.5h.059v-.05h.056V285.4h.056v-.05h.058v-.05h.057v-.052h.056V285.2h.056v-.05h.057V285.1h.057v-.049h.057v-.052h.058v-.05h.055v-.05h.056v-.052h.058v-.049h.056v-.051h.056v-.051h.057v-.05h.057v-.051h.056v-.049h.058v-.05h.056v-.051h.06v-.051h.054v-.05h.056v-.05h.056v-.05h.057v-.051h.058v-.051h12.055V286h-.057v.051h-.056v.051h-.056v.05h-.056v.051h-.058v.05h-.056v.052H208.1v.049h-.057v.05h-.056v.052h-.057v.05h-.056v.05h-.059v.052h-.055v.051H207.7v.049h-.054v.051h-.058v.051h-.057v.051h-.057v.052h-.056v.05h-.056v.051H207.3v.05h-.056v.051h-.056v.05h-.058v.049h-.056v.052h-.056v.051h-.056v.05h-.058v.049h-.057v.053h-.056v.05h-.058v.05h-.055v.052h-.056v.05h-.058v.049h-.056v.052h-.057v.049H206.4v.052h-.058v.05h-.056v.049h-.059v.052h-.056v.049h-.053v.052h-.057v.052H206v.048h-.058v.052h-.055v.052h-.06v.05h-.054v.051h-.057v.05h-.058v.053H205.6v.051h-.056v.048h-.057v.051h-.058v.051h-.056v.052h-.057v.048h-.059v.051H205.2v.05h-.055v.053h-.058v.049h-.058v.049h-.056v.051h-.057v.052h-.058v.048h-.056v.05h-.057v.052h-.057v.051h-.056v.052h-.058v.05h-.056v.051h-.056v.05h-.056v.051h-.058v.049h-.057v.053h-.057v.048h-.057v.051h-.056v.052h-.057v.049h-.058v.051h-.056v.051H203.9v.048h-.056v.052h-.056v.051h-.058v.05h-.058v.051h-.058v.051h-.053v.051H203.5v.049h-.057v.053h-.057v.049h-.058v.051h-.057v.051h-.055v.049h-.057v.051H203.1v.05h-.056v.051h-.055v.05h-.057v.051h-.057V291h-.058v.052h-.056v.048h-4.253v1.772h8.509v1.861h-.056v.051h-.057v.05h-.057v.051h-.057v.049h-.056v.051h-.057v.05h-.056v.051h-.057v.05h-.056v.05h-.058v.052H206.4v.049h-.057v.05h-.057v.051h-.056v.05h-.058v.051h-.055v.051h-.056v.05H206v.052h-.055v.051h-.058v.05h-.058v.051h-.055v.05h-.057v.052h-.056v.049H205.6V296h-.058v.052h-.056v.048h-.057v.053h-.056v.049h-.058v.05h-.057v.052h-.057v.051h-.057v.049h-.056v.05h-.058v.051h-.056v.05h-.057v.049h-.058v.051h-.055v.053h-.057v.05h-.057v.049h-.057v.053h-.057v.05h-.056v.05h-.055v.049h-.057v.051h-.056v.052H204.3v.05h-.056v.049h-.056v.052h-.058v.05h-.055v.051h-.057v.048h-.057v.051H203.9v.051h-.057v.052h-.055v.049h-.056v.051h-.056v.051h-.058v.052h-.054v.048h-.057v.053h-.057v.05h-.057v.049h-.057v.052h-.057v.049h-.057v.05h-.056v.052h-.056v.049h-.056v.052h-.058v.05h-.057v.05h-.056v.052h-.056v.049h-.056v.051h-.058v.053h-.058v.048H202.6v.051h-.057v.052h-.058v.051h-.056v.05h-.058v.048h-.057v.052h-.056v.053H202.2v.05h-.057v.048h-.055v.051h-.057v.051h-.057v.051h-.056v.051h-.057v.048H201.8v.051h-.058v.052h-.056v.049h-.056v.051h-.056v.05h-.057v.053h-.057v.046H201.4v.054h-.058v.049h-.056v.052h-2.779v1.933h9.983v1.861h-.057v.052h-.056v.051h-.056v.05h-.056v.05h-.058v.049h-.056v.051H208.1v.052h-.057v.05h-.056v.051h-.057v.05h-.056v.051h-.059v.049h-.055v.05H207.7v.053h-.054v.049h-.058v.049h-.057v.052h-.057v.051h-.056v.05h-.056v.05H207.3v.05h-.056v.051h-.056v.051h-.058v.048h-.056v.052h-.056v.049h-.056V305h-.058v.05h-.057v.049h-.056v.052h-.058v.05h-.055v.053h-.056v.048h-.058v.051h-.056v.052h-.057v.052H206.4v.048h-.058v.052h-.056v.051h-.059v.05h-.056v.05h-.053v.051h-.057v.05H206v.051h-.058v.048h-.055v.053h-.06v.05h-.054v.051h-.057v.049h-.058v.05H205.6v.051h-.056v.051h-.057v.05h-.058v.051h-.056v.051h-.057v.052h-.059v.048H205.2v.052h-.055v.051h-.058v.051h-.058v.049h-.056v.051h-.057v.05h-.058v.053h-.056v.048h-.057v.053h-.057v.049h-.056v.05h-.058v.051h-.056v.05h-.056v.05h-.056v.051h-.058v.049h-.057v.051h-.057v.054h-.057v.049h-.056v.051h-.057v.05h-.058v.051h-.056v.052H203.9v.049h-.056v.05h-.056v.053h-.058v.049h-.058v.051h-.058v.047h-.053v.052H203.5v.051h-.057v.051h-.057v.049h-.058v.051h-.057v.052h-.055v.052h-.057v.048H203.1v.053h-.056v.05h-.055v.051h-.057v.05h-.057v.05h-.058v.049h-.056v.053Zm-12.795-28.477H189.9l.019.053h-.076l.018.05h-.074l.017.048h-.074l.018.052h-.076l.019.051h-.076l.018.052h-.076l.02.049H189.5l.019.05h-.075l.017.05h-.075l.019.052h-.075l.019.051h-.074l.019.048h-.076l.017.051h-.074l.017.051H189.1l.017.052h-.073l.017.049h-.075l.019.048h-.076l.019.054h-.073l.017.051h-.074l.017.048h-.073l.018.053H188.7l.019.049h-.076l.018.052h-.072l.017.05h-.074l.015.049h-.073l.019.05h-.076l.021.053h-.076l.018.048h-.077l.02.051h-.076l.018.051h-.074l.017.05h-.074l.017.051h-.074l.019.05h-.076l.02.051h-.078l.018.053h-.074l.018.047h-.074l.02.05H187.8l.019.053h-.077l.019.051h-.076l.02.048h-.075l.017.051h-.075l.019.053h-.076l.019.049h-.076l.02.052H187.4l.019.049h-.075l.018.052h-.075l.018.051h-.073l.015.05h-.072l.019.05h-.077l.019.051h-2.207l-1.555-4.409h-5.1l0,.01h-.036l-.019.052h-.042l-.016.05h-.037l-.019.052h-.038l-.02.049H178l-.02.051h-.036l-.019.052h-.039l-.019.049h-.037l-.02.049h-.038l-.018.053h-.039l-.018.05h-.037l-.02.05h-.038l-.019.049h-.037l-.019.051h-.038l-.018.051h-.04l-.017.051h-.036l-.021.05h-.038l-.018.051h-.038l-.019.05h-.038l-.019.052h-.038l-.017.048h-.04l-.017.051h-.041l-.016.051h-.038l-.019.05h-.038l-.018.051h-.038l-.016.049h-.041l-.016.052h-.042l-.017.051H176.7l-.017.049h-.042l-.017.052h-.038l-.018.05h-.04l-.015.051h-.04l-.017.05h-.041l-.016.05h-.037l-.02.051H176.3l-.019.053h-.038l-.019.048h-.038l-.017.051h-.04l-.017.053h-.039l-.019.05h-.037l-.019.048h-.04l-.017.052h-.04l-.017.051h-.037l-.019.052h-.038l-.018.049h-.04l-.018.05h-.037l-.019.05h-.038l-.019.052h-.038l-.017.051h-.04l-.017.048h-.039l-.018.051h-.038l-.019.051h-.038l-.02.052h-.036l-.02.049h-.037l-.019.048h-.038l-.019.054h-.038l-.019.051h-.037l-.017.048H175l-.017.053h-.04l-.017.049h-.038l-.019.052h-.038l-.017.05h-.04l-.02.049h-.036l-.018.05h-.039l-.018.053H174.6l-.019.048h-.037l-.018.051h-.04l-.017.051h-.039l-.017.05h-.042l-.016.051h-.04l-.018.05h-.038l-.018.051h-.04l-.015.053h-.038l-.018.047h-.04l-.019.05h-.038l-.019.053h-.038l-.018.051h-.04l-.016.048h-.04l-.017.051h-.038l-.02.053h-.039l-.018.049h-.038l-.018.052h-.039l-.017.049h-.04l-.016.052h-.04l-.018.051h-.039l-.019.05h-.039l-.017.05h-.038l-.019.051h-2.208l7.144-19.5h.038l.019-.053h.039l.019-.047h.038l.017-.053h.039l.017-.051h.038l.019-.05h.036l.02-.051h.037l.021-.048h.035l.021-.052h.036l.02-.051h.038l.019-.051h.038l.019-.05h.039l.019-.051h.037l.019-.052h.037l.019-.052h.038l.017-.049h.041l.017-.051h.038l.019-.051h.037l.019-.05h.039l.019-.051h.037l.019-.051h.038l.017-.048h.038l.019-.052h.038l.02-.049h.035l.021-.052h.038l.019-.051h.038l.016-.049h.041l.019-.051h.038l.017-.05h.039l.018-.053h.04l.018-.052h.036l.02-.046h.038l.019-.051h.038l.017-.052h.037l.019-.051h.038l.019-.047h.037l.019-.052h.038l.018-.051h.041l.015-.051h.04l.019-.05h.037l.019-.049h.038l.019-.051h.037l.021-.052h.037l.019-.05h.039l.018-.05h.037l.018-.05h.038l.019-.051h.038l.019-.051h.039l.018-.05h.037l.019-.05h.038l.019-.053h.037l.019-.049h.037l.021-.05h.036l.021-.052h.038l.018-.049h.038l.019-.048h.036l.02-.053h.036l.021-.049h.037l.02-.052h.036l.02-.049h.037l.019-.051h.039l.018-.052h.038l.019-.05h.036l.019-.049h.039l.017-.052h.04l.017-.05H182l.017-.052h.038l.019-.05h.038l.019-.048h.036l.021-.053h.038l.019-.051h.038l.019-.05h.038l.018-.048h.039l.016-.053h.04l.018-.051h.039l.018-.048h.038l.016-.052h.042l.016-.051h.04l.017-.05h.037l.019-.05h.038l.018-.05h.039l.019-.053h.037l.018-.048h.038l.018-.05h.039l.019-.051h.037l.02-.05h.036l.021-.051h.039l.019-.053h.036l.018-.048h.038l.019-.05h.038l.019-.052h.037l.02-.051h.037l.019-.048h.038l.018-.051h.039l.019-.051h.037l.019-.051h.038l.018-.048h.038l.021-.052h.037l.02-.05h.037l.02-.051h.037l.02-.05h.035l.021-.05h1.747l7.116,19.5h-.074l.017.05h-.074l.017.05h-.076l.019.051h-.076l.019.052h-.076l.021.051H192.5l.02.047h-.075l.018.051h-.074l.018.051h-.073l.016.05h-.075l.019.051h-.076l.019.05h-.075l.017.051h-.075l.019.05h-.076l.019.05h-.075l.018.052h-.075l.017.05h-.076l.019.052h-.075l.018.049h-.075l.017.051h-.074l.018.052h-.075l.017.049H191.6l.017.049h-.077l.021.053h-.075l.017.05h-.072l.015.05h-.073l.016.049h-.073l.018.051h-.076l.019.051H191.2l.019.051h-.074l.017.05h-.076l.018.051h-.075l.019.05h-.076l.019.052h-.074l.015.048h-.073l.018.051H190.8l.017.051h-.073l.017.05h-.076l.018.051h-.074l.018.049h-.074l.017.052h-.075l.018.051h-.074l.018.049h-.074l.019.052h-.076l.018.05h-.075l.019.051h-.077l.02.05h-.075l.017.05h-.075l.019.051h-.076l.02.053h-.076l.02.048h-.077Z" transform="translate(-165.691 -254.038)"/></g></svg>